<svg xmlns="http://www.w3.org/2000/svg" viewBox="0 0 405.8 112.54"><defs><style>.cls-1{fill:#fff;}.cls-2{fill:none;}</style></defs><title>Asset 44</title><g id="Layer_2" data-name="Layer 2"><g id="Layer_1-2" data-name="Layer 1"><path class="cls-1" d="M1.92,73.84,10,72.47q5.57-.94,9.06,1.08a8.93,8.93,0,0,1,4.27,6.66,12.17,12.17,0,0,1-.62,6.67A11.59,11.59,0,0,1,18.57,92a17.08,17.08,0,0,1-7.21,2.82l-8,1.35L3,112.2l-2,.33ZM3.46,94.27,11.25,93a12.72,12.72,0,0,0,8.1-4.26,9.66,9.66,0,0,0,1.93-8.08q-1.34-7.89-11.1-6.23L3.87,75.44Z"/><path class="cls-1" d="M62.07,103a18.74,18.74,0,0,1-9.2-.6,15.7,15.7,0,0,1-7.2-4.94,17.75,17.75,0,0,1-3.79-8.59,23.61,23.61,0,0,1,.74-11.21,21.65,21.65,0,0,1,5.8-9.32,18.24,18.24,0,0,1,9.75-4.85,18.63,18.63,0,0,1,9.16.6,15.66,15.66,0,0,1,7.21,5,17.89,17.89,0,0,1,3.79,8.61,23.62,23.62,0,0,1-.74,11.21,21.46,21.46,0,0,1-5.8,9.3A18.27,18.27,0,0,1,62.07,103Zm-.23-1.94a16.29,16.29,0,0,0,8.22-4,19.56,19.56,0,0,0,5.42-8.25,20.65,20.65,0,0,0,.85-10.54,16.8,16.8,0,0,0-3.22-7.62,13.82,13.82,0,0,0-6.3-4.59,16.35,16.35,0,0,0-8.47-.62A16.17,16.17,0,0,0,52,68a18.34,18.34,0,0,0-5,5,20.29,20.29,0,0,0-3,7,21.18,21.18,0,0,0-.17,8.27,16.63,16.63,0,0,0,3.21,7.59,13.85,13.85,0,0,0,6.3,4.56A16.35,16.35,0,0,0,61.84,101.07Z"/><path class="cls-1" d="M100.65,57.12l7.69-1.3q5.37-.91,8.87,1.16a9,9,0,0,1,4.26,6.61,10.91,10.91,0,0,1-1.28,7.54,12.73,12.73,0,0,1-6.14,5.22L124.5,91.62l-2.32.39-10-15a17.4,17.4,0,0,1-2.29.54l-7.79,1.32-.38,16.6-2,.33Zm1.48,19.83,7.74-1.31a13.35,13.35,0,0,0,5.47-2.14,9.81,9.81,0,0,0,3.42-4.05,9,9,0,0,0,.61-5.35,7.42,7.42,0,0,0-3.45-5.53q-2.79-1.63-7.42-.85l-6,1Z"/><path class="cls-1" d="M154.61,49.85l-13.56,2.3,0-1.88,29.09-4.93,0,1.88-13.56,2.3-.86,36.81-2,.33Z"/><path class="cls-1" d="M190.29,41.93l19.77-3.35,0,1.88-17.8,3-.42,17,15.33-2.6v1.82l-15.33,2.6-.45,18-2,.33Z"/><path class="cls-1" d="M247.92,71.52a18.74,18.74,0,0,1-9.2-.6,15.7,15.7,0,0,1-7.2-4.94,17.75,17.75,0,0,1-3.79-8.59,23.61,23.61,0,0,1,.74-11.21,21.64,21.64,0,0,1,5.8-9.32A18.24,18.24,0,0,1,244,32a18.63,18.63,0,0,1,9.16.6,15.67,15.67,0,0,1,7.21,5,17.89,17.89,0,0,1,3.79,8.61,23.62,23.62,0,0,1-.74,11.21,21.46,21.46,0,0,1-5.8,9.3A18.27,18.27,0,0,1,247.92,71.52Zm-.23-1.94a16.29,16.29,0,0,0,8.22-4,19.56,19.56,0,0,0,5.42-8.25,20.65,20.65,0,0,0,.85-10.54A16.8,16.8,0,0,0,259,39.17a13.83,13.83,0,0,0-6.3-4.59,16.36,16.36,0,0,0-8.47-.62,16.17,16.17,0,0,0-6.32,2.52,18.34,18.34,0,0,0-5,5,20.29,20.29,0,0,0-3,7,21.18,21.18,0,0,0-.17,8.27,16.63,16.63,0,0,0,3.21,7.59,13.85,13.85,0,0,0,6.3,4.56A16.35,16.35,0,0,0,247.69,69.58Z"/><path class="cls-1" d="M286.51,25.63l2-.33-.86,36.81,18-3,0,1.88-20,3.38Z"/><path class="cls-1" d="M326.69,18.83l2-.33-.9,38.69-2,.33Z"/><path class="cls-1" d="M370.16,50.81a18.74,18.74,0,0,1-9.2-.6,15.7,15.7,0,0,1-7.2-4.94A17.75,17.75,0,0,1,350,36.69a23.61,23.61,0,0,1,.74-11.21,21.64,21.64,0,0,1,5.8-9.32,18.24,18.24,0,0,1,9.75-4.85,18.63,18.63,0,0,1,9.16.6,15.67,15.67,0,0,1,7.21,5,17.89,17.89,0,0,1,3.79,8.61,23.62,23.62,0,0,1-.74,11.21,21.46,21.46,0,0,1-5.8,9.3A18.27,18.27,0,0,1,370.16,50.81Zm-.23-1.94a16.29,16.29,0,0,0,8.22-4,19.56,19.56,0,0,0,5.42-8.25,20.65,20.65,0,0,0,.85-10.54,16.8,16.8,0,0,0-3.22-7.62,13.83,13.83,0,0,0-6.3-4.59,16.36,16.36,0,0,0-8.47-.62,16.17,16.17,0,0,0-6.32,2.52,18.34,18.34,0,0,0-5,5,20.29,20.29,0,0,0-3,7,21.18,21.18,0,0,0-.17,8.27,16.63,16.63,0,0,0,3.21,7.59,13.85,13.85,0,0,0,6.3,4.56A16.35,16.35,0,0,0,369.93,48.87Z"/><rect class="cls-2" width="405.8" height="112.54"/></g></g></svg>