<svg xmlns="http://www.w3.org/2000/svg" viewBox="0 0 2763 1004.88"><defs><style>.cls-1{stroke:#000;}.cls-1,.cls-2{stroke-miterlimit:10;}.cls-2{fill:none;stroke:#f5c023;}</style></defs><title>Asset 64</title><g id="Layer_2" data-name="Layer 2"><g id="Layer_1-2" data-name="Layer 1"><rect class="cls-1" x="0.5" y="74.42" width="2762" height="832"/><rect class="cls-2" x="1130.95" y="330.35" width="479.78" height="119.95" transform="translate(2741.68 780.64) rotate(180)"/><rect class="cls-2" x="1115.96" y="345.34" width="479.78" height="119.95" transform="translate(2711.7 810.63) rotate(180)"/><rect class="cls-2" x="1100.97" y="360.34" width="479.78" height="119.95" transform="translate(2681.71 840.62) rotate(180)"/><rect class="cls-2" x="1085.97" y="375.33" width="479.78" height="119.95" transform="translate(2651.73 870.6) rotate(180)"/><rect class="cls-2" x="1070.98" y="390.32" width="479.78" height="119.95" transform="translate(2621.74 900.59) rotate(180)"/><rect class="cls-2" x="1055.99" y="405.31" width="479.78" height="119.95" transform="translate(2591.75 930.57) rotate(180)"/><rect class="cls-2" x="1040.99" y="420.31" width="479.78" height="119.95" transform="translate(2561.77 960.56) rotate(180)"/><rect class="cls-2" x="1026" y="435.3" width="479.78" height="119.95" transform="translate(2531.78 990.55) rotate(180)"/><rect class="cls-2" x="1610.73" y="449.64" width="479.78" height="119.95" transform="translate(3701.25 1019.22) rotate(180)"/><rect class="cls-2" x="1595.74" y="464.63" width="479.78" height="119.95" transform="translate(3671.26 1049.2) rotate(180)"/><rect class="cls-2" x="1580.75" y="479.62" width="479.78" height="119.95" transform="translate(3641.27 1079.19) rotate(180)"/><rect class="cls-2" x="1565.75" y="494.62" width="479.78" height="119.95" transform="translate(3611.29 1109.18) rotate(180)"/><rect class="cls-2" x="1550.76" y="509.61" width="479.78" height="119.95" transform="translate(3581.3 1139.16) rotate(180)"/><rect class="cls-2" x="1535.77" y="524.6" width="479.78" height="119.95" transform="translate(3551.31 1169.15) rotate(180)"/><rect class="cls-2" x="1520.77" y="539.6" width="479.78" height="119.95" transform="translate(3521.33 1199.14) rotate(180)"/><rect class="cls-2" x="1505.78" y="554.59" width="479.78" height="119.95" transform="translate(3491.34 1229.12) rotate(180)"/><rect class="cls-2" x="1235.9" y="105.45" width="479.78" height="119.95" transform="translate(2951.59 330.85) rotate(180)"/><rect class="cls-2" x="1220.91" y="120.45" width="479.78" height="119.95" transform="translate(2921.6 360.84) rotate(180)"/><rect class="cls-2" x="1205.92" y="135.44" width="479.78" height="119.95" transform="translate(2891.62 390.82) rotate(180)"/><rect class="cls-2" x="1190.92" y="150.43" width="479.78" height="119.95" transform="translate(2861.63 420.81) rotate(180)"/><rect class="cls-2" x="1175.93" y="165.42" width="479.78" height="119.95" transform="translate(2831.64 450.79) rotate(180)"/><rect class="cls-2" x="1160.94" y="180.42" width="479.78" height="119.95" transform="translate(2801.66 480.78) rotate(180)"/><rect class="cls-2" x="1145.95" y="195.41" width="479.78" height="119.95" transform="translate(2771.67 510.77) rotate(180)"/><rect class="cls-2" x="1130.95" y="210.4" width="479.78" height="119.95" transform="translate(2741.68 540.75) rotate(180)"/><rect class="cls-2" x="1820.64" y="0.5" width="479.78" height="119.95" transform="translate(4121.05 120.95) rotate(180)"/><rect class="cls-2" x="1805.64" y="15.49" width="479.78" height="119.95" transform="translate(4091.07 150.93) rotate(180)"/><rect class="cls-2" x="1790.65" y="30.49" width="479.78" height="119.95" transform="translate(4061.08 180.92) rotate(180)"/><rect class="cls-2" x="1775.66" y="45.48" width="479.78" height="119.95" transform="translate(4031.1 210.9) rotate(180)"/><rect class="cls-2" x="1760.66" y="60.47" width="479.78" height="119.95" transform="translate(4001.11 240.89) rotate(180)"/><rect class="cls-2" x="1745.67" y="75.47" width="479.78" height="119.95" transform="translate(3971.12 270.88) rotate(180)"/><rect class="cls-2" x="1730.68" y="90.46" width="479.78" height="119.95" transform="translate(3941.14 300.86) rotate(180)"/><rect class="cls-2" x="1715.68" y="105.45" width="479.78" height="119.95" transform="translate(3911.15 330.85) rotate(180)"/><rect class="cls-2" x="1715.68" y="224.74" width="479.78" height="119.95" transform="translate(3911.15 569.42) rotate(180)"/><rect class="cls-2" x="1700.69" y="239.73" width="479.78" height="119.95" transform="translate(3881.16 599.41) rotate(180)"/><rect class="cls-2" x="1685.7" y="254.73" width="479.78" height="119.95" transform="translate(3851.18 629.4) rotate(180)"/><rect class="cls-2" x="1670.71" y="269.72" width="479.78" height="119.95" transform="translate(3821.19 659.38) rotate(180)"/><rect class="cls-2" x="1655.71" y="284.71" width="479.78" height="119.95" transform="translate(3791.21 689.37) rotate(180)"/><rect class="cls-2" x="1640.72" y="299.7" width="479.78" height="119.95" transform="translate(3761.22 719.36) rotate(180)"/><rect class="cls-2" x="1625.73" y="314.7" width="479.78" height="119.95" transform="translate(3731.23 749.34) rotate(180)"/><rect class="cls-2" x="1610.73" y="329.69" width="479.78" height="119.95" transform="translate(3701.25 779.33) rotate(180)"/><rect class="cls-2" x="921.05" y="779.49" width="479.78" height="119.95" transform="translate(2321.88 1678.92) rotate(180)"/><rect class="cls-2" x="906.05" y="794.48" width="479.78" height="119.95" transform="translate(2291.89 1708.9) rotate(180)"/><rect class="cls-2" x="891.06" y="809.47" width="479.78" height="119.95" transform="translate(2261.9 1738.89) rotate(180)"/><rect class="cls-2" x="876.07" y="824.47" width="479.78" height="119.95" transform="translate(2231.92 1768.88) rotate(180)"/><rect class="cls-2" x="861.08" y="839.46" width="479.78" height="119.95" transform="translate(2201.93 1798.86) rotate(180)"/><rect class="cls-2" x="846.08" y="854.45" width="479.78" height="119.95" transform="translate(2171.95 1828.85) rotate(180)"/><rect class="cls-2" x="831.09" y="869.44" width="479.78" height="119.95" transform="translate(2141.96 1858.83) rotate(180)"/><rect class="cls-2" x="816.1" y="884.44" width="479.78" height="119.95" transform="translate(2111.97 1888.82) rotate(180)"/><rect class="cls-2" x="1026" y="554.59" width="479.78" height="119.95" transform="translate(2531.78 1229.12) rotate(180)"/><rect class="cls-2" x="1011.01" y="569.58" width="479.78" height="119.95" transform="translate(2501.79 1259.11) rotate(180)"/><rect class="cls-2" x="996.01" y="584.57" width="479.78" height="119.95" transform="translate(2471.81 1289.09) rotate(180)"/><rect class="cls-2" x="981.02" y="599.57" width="479.78" height="119.95" transform="translate(2441.82 1319.08) rotate(180)"/><rect class="cls-2" x="966.03" y="614.56" width="479.78" height="119.95" transform="translate(2411.84 1349.07) rotate(180)"/><rect class="cls-2" x="951.03" y="629.55" width="479.78" height="119.95" transform="translate(2381.85 1379.05) rotate(180)"/><rect class="cls-2" x="936.04" y="644.55" width="479.78" height="119.95" transform="translate(2351.86 1409.04) rotate(180)"/><rect class="cls-2" x="921.05" y="659.54" width="479.78" height="119.95" transform="translate(2321.88 1439.03) rotate(180)"/><rect class="cls-2" x="1505.78" y="673.88" width="479.78" height="119.95" transform="translate(3491.34 1467.7) rotate(180)"/><rect class="cls-2" x="1490.79" y="688.87" width="479.78" height="119.95" transform="translate(3461.36 1497.68) rotate(180)"/><rect class="cls-2" x="1475.79" y="703.86" width="479.78" height="119.95" transform="translate(3431.37 1527.67) rotate(180)"/><rect class="cls-2" x="1460.8" y="718.86" width="479.78" height="119.95" transform="translate(3401.38 1557.66) rotate(180)"/><rect class="cls-2" x="1445.81" y="733.85" width="479.78" height="119.95" transform="translate(3371.4 1587.64) rotate(180)"/><rect class="cls-2" x="1430.82" y="748.84" width="479.78" height="119.95" transform="translate(3341.41 1617.63) rotate(180)"/><rect class="cls-2" x="1415.82" y="763.83" width="479.78" height="119.95" transform="translate(3311.42 1647.61) rotate(180)"/><rect class="cls-2" x="1400.83" y="778.83" width="479.78" height="119.95" transform="translate(3281.44 1677.6) rotate(180)"/></g></g></svg>