<svg xmlns="http://www.w3.org/2000/svg" viewBox="0 0 2538.2 833"><defs><style>.cls-1{fill:#fff;stroke:#fff;}.cls-1,.cls-2{stroke-miterlimit:10;}.cls-2{fill:none;stroke:#000;stroke-width:2px;}</style></defs><title>Asset 69</title><g id="Layer_2" data-name="Layer 2"><g id="Layer_1-2" data-name="Layer 1"><rect class="cls-1" x="0.5" y="0.5" width="2537.2" height="832"/><rect class="cls-2" x="30.06" y="195.63" width="667.12" height="220.87"/><rect class="cls-2" x="39.11" y="186.62" width="667.12" height="220.87"/><rect class="cls-2" x="48.03" y="179.05" width="665.25" height="219.52"/><rect class="cls-2" x="56.71" y="170.37" width="665.25" height="219.52"/><rect class="cls-2" x="65.94" y="160.87" width="665.25" height="219.52"/><rect class="cls-2" x="74.89" y="152.46" width="665.25" height="219.52"/><rect class="cls-2" x="83.99" y="143.36" width="665.25" height="219.52"/><rect class="cls-2" x="92.85" y="134.02" width="665.25" height="219.52"/><rect class="cls-2" x="101.95" y="125.16" width="665.25" height="219.52"/><rect class="cls-2" x="110.55" y="116.55" width="665.25" height="219.52"/><rect class="cls-2" x="119.9" y="107.21" width="665.25" height="219.52"/><rect class="cls-2" x="128.67" y="98.26" width="665.25" height="219.52"/><rect class="cls-2" x="137.62" y="89.32" width="665.25" height="219.52"/><rect class="cls-2" x="146.73" y="80.2" width="665.25" height="219.52"/><rect class="cls-2" x="155.68" y="71.26" width="665.25" height="219.52"/><rect class="cls-2" x="164.8" y="62.13" width="665.25" height="219.52"/><rect class="cls-2" x="173.68" y="53.13" width="665.25" height="219.52"/><rect class="cls-2" x="183.44" y="44.26" width="665.25" height="219.52"/><rect class="cls-2" x="33.87" y="567.87" width="667.12" height="220.87"/><rect class="cls-2" x="42.91" y="558.86" width="667.12" height="220.87"/><rect class="cls-2" x="51.84" y="551.29" width="665.25" height="219.52"/><rect class="cls-2" x="60.52" y="542.61" width="665.25" height="219.52"/><rect class="cls-2" x="69.74" y="533.11" width="665.25" height="219.52"/><rect class="cls-2" x="78.7" y="524.7" width="665.25" height="219.52"/><rect class="cls-2" x="87.8" y="515.6" width="665.25" height="219.52"/><rect class="cls-2" x="96.65" y="506.25" width="665.25" height="219.52"/><rect class="cls-2" x="105.75" y="497.4" width="665.25" height="219.52"/><rect class="cls-2" x="114.36" y="488.79" width="665.25" height="219.52"/><rect class="cls-2" x="123.71" y="479.45" width="665.25" height="219.52"/><rect class="cls-2" x="132.48" y="470.5" width="665.25" height="219.52"/><rect class="cls-2" x="141.42" y="461.56" width="665.25" height="219.52"/><rect class="cls-2" x="150.54" y="452.44" width="665.25" height="219.52"/><rect class="cls-2" x="159.48" y="443.5" width="665.25" height="219.52"/><rect class="cls-2" x="168.61" y="434.37" width="665.25" height="219.52"/><rect class="cls-2" x="177.48" y="425.37" width="665.25" height="219.52"/><rect class="cls-2" x="187.24" y="416.5" width="665.25" height="219.52"/><rect class="cls-2" x="855.54" y="195.57" width="667.12" height="220.87"/><rect class="cls-2" x="864.58" y="186.56" width="667.12" height="220.87"/><rect class="cls-2" x="873.51" y="178.99" width="665.25" height="219.52"/><rect class="cls-2" x="882.19" y="170.31" width="665.25" height="219.52"/><rect class="cls-2" x="891.41" y="160.81" width="665.25" height="219.52"/><rect class="cls-2" x="900.37" y="152.4" width="665.25" height="219.52"/><rect class="cls-2" x="909.47" y="143.3" width="665.25" height="219.52"/><rect class="cls-2" x="918.32" y="133.95" width="665.25" height="219.52"/><rect class="cls-2" x="927.42" y="125.1" width="665.25" height="219.52"/><rect class="cls-2" x="936.03" y="116.49" width="665.25" height="219.52"/><rect class="cls-2" x="945.38" y="107.15" width="665.25" height="219.52"/><rect class="cls-2" x="954.15" y="98.2" width="665.25" height="219.52"/><rect class="cls-2" x="963.09" y="89.26" width="665.25" height="219.52"/><rect class="cls-2" x="972.21" y="80.14" width="665.25" height="219.52"/><rect class="cls-2" x="981.15" y="71.2" width="665.25" height="219.52"/><rect class="cls-2" x="990.28" y="62.07" width="665.25" height="219.52"/><rect class="cls-2" x="999.15" y="53.07" width="665.25" height="219.52"/><rect class="cls-2" x="1008.91" y="44.2" width="665.25" height="219.52"/><rect class="cls-2" x="859.34" y="567.81" width="667.12" height="220.87"/><rect class="cls-2" x="868.39" y="558.8" width="667.12" height="220.87"/><rect class="cls-2" x="877.31" y="551.23" width="665.25" height="219.52"/><rect class="cls-2" x="886" y="542.55" width="665.25" height="219.52"/><rect class="cls-2" x="895.22" y="533.05" width="665.25" height="219.52"/><rect class="cls-2" x="904.17" y="524.64" width="665.25" height="219.52"/><rect class="cls-2" x="913.27" y="515.54" width="665.25" height="219.52"/><rect class="cls-2" x="922.13" y="506.19" width="665.25" height="219.52"/><rect class="cls-2" x="931.23" y="497.34" width="665.25" height="219.52"/><rect class="cls-2" x="939.84" y="488.73" width="665.25" height="219.52"/><rect class="cls-2" x="949.18" y="479.38" width="665.25" height="219.52"/><rect class="cls-2" x="957.95" y="470.44" width="665.25" height="219.52"/><rect class="cls-2" x="966.9" y="461.5" width="665.25" height="219.52"/><rect class="cls-2" x="976.01" y="452.38" width="665.25" height="219.52"/><rect class="cls-2" x="984.96" y="443.44" width="665.25" height="219.52"/><rect class="cls-2" x="994.08" y="434.31" width="665.25" height="219.52"/><rect class="cls-2" x="1002.96" y="425.31" width="665.25" height="219.52"/><rect class="cls-2" x="1012.72" y="416.44" width="665.25" height="219.52"/><rect class="cls-2" x="1678.87" y="195.95" width="667.12" height="220.87"/><rect class="cls-2" x="1687.91" y="186.94" width="667.12" height="220.87"/><rect class="cls-2" x="1696.84" y="179.37" width="665.25" height="219.52"/><rect class="cls-2" x="1705.52" y="170.69" width="665.25" height="219.52"/><rect class="cls-2" x="1714.74" y="161.19" width="665.25" height="219.52"/><rect class="cls-2" x="1723.7" y="152.78" width="665.25" height="219.52"/><rect class="cls-2" x="1732.8" y="143.68" width="665.25" height="219.52"/><rect class="cls-2" x="1741.65" y="134.34" width="665.25" height="219.52"/><rect class="cls-2" x="1750.75" y="125.48" width="665.25" height="219.52"/><rect class="cls-2" x="1759.36" y="116.87" width="665.25" height="219.52"/><rect class="cls-2" x="1768.71" y="107.53" width="665.25" height="219.52"/><rect class="cls-2" x="1777.48" y="98.58" width="665.25" height="219.52"/><rect class="cls-2" x="1786.42" y="89.64" width="665.25" height="219.52"/><rect class="cls-2" x="1795.54" y="80.52" width="665.25" height="219.52"/><rect class="cls-2" x="1804.48" y="71.58" width="665.25" height="219.52"/><rect class="cls-2" x="1813.61" y="62.45" width="665.25" height="219.52"/><rect class="cls-2" x="1822.48" y="53.45" width="665.25" height="219.52"/><rect class="cls-2" x="1832.24" y="44.58" width="665.25" height="219.52"/><rect class="cls-2" x="1682.67" y="568.19" width="667.12" height="220.87"/><rect class="cls-2" x="1691.72" y="559.18" width="667.12" height="220.87"/><rect class="cls-2" x="1700.64" y="551.61" width="665.25" height="219.52"/><rect class="cls-2" x="1709.32" y="542.93" width="665.25" height="219.52"/><rect class="cls-2" x="1718.55" y="533.43" width="665.25" height="219.52"/><rect class="cls-2" x="1727.5" y="525.02" width="665.25" height="219.52"/><rect class="cls-2" x="1736.6" y="515.92" width="665.25" height="219.52"/><rect class="cls-2" x="1745.46" y="506.57" width="665.25" height="219.52"/><rect class="cls-2" x="1754.56" y="497.72" width="665.25" height="219.52"/><rect class="cls-2" x="1763.16" y="489.11" width="665.25" height="219.52"/><rect class="cls-2" x="1772.51" y="479.77" width="665.25" height="219.52"/><rect class="cls-2" x="1781.28" y="470.82" width="665.25" height="219.52"/><rect class="cls-2" x="1790.23" y="461.88" width="665.25" height="219.52"/><rect class="cls-2" x="1799.34" y="452.76" width="665.25" height="219.52"/><rect class="cls-2" x="1808.29" y="443.82" width="665.25" height="219.52"/><rect class="cls-2" x="1817.41" y="434.69" width="665.25" height="219.52"/><rect class="cls-2" x="1826.29" y="425.69" width="665.25" height="219.52"/><rect class="cls-2" x="1836.05" y="416.82" width="665.25" height="219.52"/></g></g></svg>