<svg xmlns="http://www.w3.org/2000/svg" viewBox="0 0 4534.45 1622.89"><defs><style>.cls-1{stroke:#000;}.cls-1,.cls-2{stroke-miterlimit:10;}.cls-2{fill:none;stroke:#fff;stroke-width:2px;}</style></defs><title>Asset 71</title><g id="Layer_2" data-name="Layer 2"><g id="Layer_1-2" data-name="Layer 1"><rect class="cls-1" x="564.95" y="119.33" width="3969" height="832"/><rect class="cls-2" x="1372.72" y="408.47" width="911.34" height="810.22"/><polygon class="cls-2" points="915.43 1618.81 4.09 1621.89 453.82 406.51 914.37 809.02 915.43 1618.81"/><polygon class="cls-2" points="4257.3 1223.52 2534.63 1162.1 2744.39 810.93 3722.6 813.58 4257.3 1223.52"/><polygon class="cls-2" points="3722.6 813.58 3198.26 411.08 3705.01 1.11 4362.37 204.79 3722.6 813.58"/><polygon class="cls-2" points="4259.43 951.36 3722.6 813.58 4362.37 204.79 4531.65 771.27 4259.43 951.36"/><polygon class="cls-2" points="3722.6 813.58 2744.39 810.93 2283.84 408.43 3198.26 411.08 3722.6 813.58"/><polygon class="cls-2" points="1892.58 811.67 914.37 809.02 453.82 406.51 1368.24 409.17 1892.58 811.67"/><polygon class="cls-2" points="3198.26 411.08 2284.19 408.22 1823.64 5.71 2744.49 4.87 3198.26 411.08"/><polygon class="cls-2" points="1369.8 411.61 564.96 136.02 8.57 2.53 916.03 5.4 1369.8 411.61"/><polygon class="cls-2" points="2284.06 408.47 1372.72 408.47 1741.48 1.11 2369.26 1.23 2284.06 408.47"/></g></g></svg>