<svg xmlns="http://www.w3.org/2000/svg" viewBox="0 0 405.8 112.54"><defs><style>.cls-1{fill:#fff;}.cls-2{fill:none;}</style></defs><title>Asset 45</title><g id="Layer_2" data-name="Layer 2"><g id="Layer_1-2" data-name="Layer 1"><path class="cls-1" d="M21.19,112.22a18.78,18.78,0,0,1-9.14-.53,14.83,14.83,0,0,1-7-4.83,18.06,18.06,0,0,1-3.68-8.58A23.24,23.24,0,0,1,2.16,87a20.6,20.6,0,0,1,6-9.16A20.26,20.26,0,0,1,18.46,73a21.28,21.28,0,0,1,6.21-.14,17.76,17.76,0,0,1,5.71,1.67l-.22,2A18.67,18.67,0,0,0,18.64,75a18.15,18.15,0,0,0-8.78,4,18.77,18.77,0,0,0-5.6,8.1,20.3,20.3,0,0,0-.85,10.54,17.22,17.22,0,0,0,3.12,7.61,13,13,0,0,0,6.06,4.48,16.15,16.15,0,0,0,8.34.57,24.74,24.74,0,0,0,5.31-1.56,28.2,28.2,0,0,0,4.93-2.61l.38,1.91a22,22,0,0,1-4.81,2.62A26.92,26.92,0,0,1,21.19,112.22Z"/><path class="cls-1" d="M71.21,104a18.74,18.74,0,0,1-9.2-.6,15.7,15.7,0,0,1-7.2-4.94A17.75,17.75,0,0,1,51,89.87a23.62,23.62,0,0,1,.74-11.21,21.65,21.65,0,0,1,5.8-9.32A18.24,18.24,0,0,1,67.3,64.5a18.63,18.63,0,0,1,9.16.6,15.67,15.67,0,0,1,7.21,5,17.89,17.89,0,0,1,3.79,8.61,23.62,23.62,0,0,1-.74,11.21,21.46,21.46,0,0,1-5.8,9.3A18.27,18.27,0,0,1,71.21,104ZM71,102.06a16.29,16.29,0,0,0,8.22-4,19.56,19.56,0,0,0,5.42-8.25,20.66,20.66,0,0,0,.85-10.54,16.8,16.8,0,0,0-3.22-7.62A13.82,13.82,0,0,0,76,67.06a16.36,16.36,0,0,0-8.47-.62A16.17,16.17,0,0,0,61.16,69a18.33,18.33,0,0,0-5,5,20.29,20.29,0,0,0-3,7A21.18,21.18,0,0,0,53,89.28a16.63,16.63,0,0,0,3.21,7.59,13.85,13.85,0,0,0,6.3,4.56A16.35,16.35,0,0,0,71,102.06Z"/><path class="cls-1" d="M109.79,58.11,120,56.37q8.28-1.4,13.59,1.93T140.18,69a23.06,23.06,0,0,1-.88,11.89A19.61,19.61,0,0,1,132.48,90a27.23,27.23,0,0,1-12.05,4.88l-11.54,2Zm1.1,36.43,9.47-1.6a24.45,24.45,0,0,0,10.56-4.25,18,18,0,0,0,6.27-8.16,20.55,20.55,0,0,0,.9-11q-1.14-6.7-5.73-9.6t-12.14-1.62l-8.48,1.44Z"/><path class="cls-1" d="M162.38,49.2l20.26-3.43,0,1.88-18.29,3.1-.39,16,16.66-2.82-.05,1.78-16.66,2.82-.39,17.16L183,82.37l0,1.88-21.49,3.64Z"/><rect class="cls-2" width="405.8" height="112.54"/></g></g></svg>