<svg xmlns="http://www.w3.org/2000/svg" viewBox="0 0 406.05 112.79"><defs><style>.cls-1{fill:none;stroke:#fff;stroke-miterlimit:10;stroke-width:0.25px;}</style></defs><title>Asset 36</title><g id="Layer_2" data-name="Layer 2"><g id="Layer_1-2" data-name="Layer 1"><path d="M21.32,112.34a18.78,18.78,0,0,1-9.14-.53,14.83,14.83,0,0,1-7-4.83A18.06,18.06,0,0,1,1.51,98.4a23.24,23.24,0,0,1,.77-11.31,20.6,20.6,0,0,1,6-9.16,20.26,20.26,0,0,1,10.27-4.78A21.28,21.28,0,0,1,24.8,73a17.76,17.76,0,0,1,5.71,1.67l-.22,2a18.67,18.67,0,0,0-11.52-1.55,18.15,18.15,0,0,0-8.78,4,18.77,18.77,0,0,0-5.6,8.1,20.3,20.3,0,0,0-.85,10.54,17.22,17.22,0,0,0,3.12,7.61,13,13,0,0,0,6.06,4.48,16.15,16.15,0,0,0,8.34.57,24.74,24.74,0,0,0,5.31-1.56,28.2,28.2,0,0,0,4.93-2.61l.38,1.91a22,22,0,0,1-4.81,2.62A26.92,26.92,0,0,1,21.32,112.34Z"/><path d="M71.33,104.12a18.74,18.74,0,0,1-9.2-.6,15.7,15.7,0,0,1-7.2-4.94A17.75,17.75,0,0,1,51.14,90a23.62,23.62,0,0,1,.74-11.21,21.65,21.65,0,0,1,5.8-9.32,18.24,18.24,0,0,1,9.75-4.85,18.63,18.63,0,0,1,9.16.6,15.67,15.67,0,0,1,7.21,5,17.89,17.89,0,0,1,3.79,8.61A23.62,23.62,0,0,1,86.84,90a21.46,21.46,0,0,1-5.8,9.3A18.27,18.27,0,0,1,71.33,104.12Zm-.23-1.94a16.29,16.29,0,0,0,8.22-4,19.56,19.56,0,0,0,5.42-8.25,20.66,20.66,0,0,0,.85-10.54,16.8,16.8,0,0,0-3.22-7.62,13.82,13.82,0,0,0-6.3-4.59,16.36,16.36,0,0,0-8.47-.62,16.17,16.17,0,0,0-6.32,2.52,18.33,18.33,0,0,0-5,5,20.29,20.29,0,0,0-3,7,21.18,21.18,0,0,0-.17,8.27A16.63,16.63,0,0,0,56.33,97a13.85,13.85,0,0,0,6.3,4.56A16.35,16.35,0,0,0,71.11,102.18Z"/><path d="M109.91,58.23l10.25-1.74q8.28-1.4,13.59,1.93t6.55,10.68A23.06,23.06,0,0,1,139.43,81a19.61,19.61,0,0,1-6.83,9.09A27.23,27.23,0,0,1,120.55,95l-11.54,2ZM111,94.66l9.47-1.6A24.45,24.45,0,0,0,131,88.81a18,18,0,0,0,6.27-8.16,20.55,20.55,0,0,0,.9-11q-1.14-6.7-5.73-9.6t-12.14-1.62l-8.48,1.44Z"/><path d="M162.51,49.32l20.26-3.43,0,1.88-18.29,3.1-.39,16L180.72,64l-.05,1.78L164,68.65l-.39,17.16,19.52-3.31,0,1.88L161.61,88Z"/><rect class="cls-1" x="0.13" y="0.13" width="405.8" height="112.54"/></g></g></svg>