<svg xmlns="http://www.w3.org/2000/svg" viewBox="0 0 2378.5 1424.33"><defs><style>.cls-1,.cls-2{fill:none;}.cls-1{stroke:#000;stroke-miterlimit:10;stroke-width:2px;}</style></defs><title>Asset 92</title><g id="Layer_2" data-name="Layer 2"><g id="Layer_1-2" data-name="Layer 1"><line class="cls-1" x1="1" y1="1423.44" x2="1" y2="0.54"/><line class="cls-1" x1="1.19" y1="19.32" x2="2377.78" y2="19.32"/><line class="cls-1" x1="1.19" y1="37.03" x2="2377.78" y2="37.03"/><line class="cls-1" x1="1.19" y1="55.24" x2="2377.78" y2="55.24"/><line class="cls-1" x1="0.47" y1="73" x2="2377.45" y2="73"/><line class="cls-1" x1="0.47" y1="90.74" x2="2377.43" y2="90.74"/><line class="cls-1" x1="0.47" y1="109.07" x2="2377.43" y2="109.07"/><line class="cls-1" x1="0.47" y1="127.38" x2="2377.43" y2="127.38"/><line class="cls-1" x1="0.47" y1="145.14" x2="2377.43" y2="145.14"/><line class="cls-1" x1="0.47" y1="163.11" x2="2377.43" y2="163.11"/><line class="cls-1" x1="0.47" y1="181.2" x2="2377.43" y2="181.2"/><line class="cls-1" x1="0.47" y1="199.18" x2="2377.43" y2="199.18"/><line class="cls-1" x1="0.47" y1="217.15" x2="2377.43" y2="217.15"/><line class="cls-1" x1="0.47" y1="235.13" x2="2377.43" y2="235.13"/><line class="cls-1" x1="1" y1="253.13" x2="2377.43" y2="253.13"/><line class="cls-1" x1="0.47" y1="271.08" x2="2377.43" y2="271.08"/><line class="cls-1" x1="0.47" y1="288.93" x2="2377.43" y2="288.93"/><line class="cls-1" x1="0.47" y1="307.31" x2="2377.43" y2="307.31"/><line class="cls-1" x1="0.47" y1="325.1" x2="2377.43" y2="325.1"/><line class="cls-1" x1="0.47" y1="343.04" x2="2377.43" y2="343.04"/><line class="cls-1" x1="1.19" y1="361.22" x2="2377.43" y2="361.22"/><line class="cls-1" x1="1.19" y1="379.43" x2="2377.43" y2="379.43"/><line class="cls-1" x1="1.19" y1="397.14" x2="2377.43" y2="397.14"/><line class="cls-1" x1="1.19" y1="415.34" x2="2377.43" y2="415.34"/><line class="cls-1" x1="0.47" y1="433.11" x2="2377.43" y2="433.11"/><line class="cls-1" x1="0.47" y1="450.84" x2="2377.43" y2="450.84"/><line class="cls-1" x1="0.47" y1="469.17" x2="2377.43" y2="469.17"/><line class="cls-1" x1="0.47" y1="487.49" x2="2377.43" y2="487.49"/><line class="cls-1" x1="0.47" y1="505.24" x2="2377.43" y2="505.24"/><line class="cls-1" x1="0.47" y1="523.22" x2="2377.43" y2="523.22"/><line class="cls-1" x1="0.47" y1="541.31" x2="2377.43" y2="541.31"/><line class="cls-1" x1="0.47" y1="559.28" x2="2377.43" y2="559.28"/><line class="cls-1" x1="0.47" y1="577.26" x2="2377.43" y2="577.26"/><line class="cls-1" x1="0.47" y1="595.23" x2="2377.43" y2="595.23"/><line class="cls-1" x1="1" y1="613.24" x2="2377.43" y2="613.24"/><line class="cls-1" x1="0.47" y1="631.18" x2="2377.43" y2="631.18"/><line class="cls-1" x1="0.47" y1="649.04" x2="2377.43" y2="649.04"/><line class="cls-1" x1="0.47" y1="667.42" x2="2377.43" y2="667.42"/><line class="cls-1" x1="0.47" y1="685.21" x2="2377.43" y2="685.21"/><line class="cls-1" x1="0.47" y1="703.14" x2="2377.43" y2="703.14"/><line class="cls-1" x1="1.19" y1="721.3" x2="2377.43" y2="721.3"/><line class="cls-1" x1="1.19" y1="739.51" x2="2377.43" y2="739.5"/><line class="cls-1" x1="1.19" y1="757.22" x2="2377.43" y2="757.22"/><line class="cls-1" x1="1.19" y1="775.42" x2="2377.43" y2="775.42"/><line class="cls-1" x1="0.47" y1="793.19" x2="2377.43" y2="793.19"/><line class="cls-1" x1="0.47" y1="810.92" x2="2377.43" y2="810.92"/><line class="cls-1" x1="0.47" y1="829.25" x2="2377.43" y2="829.25"/><line class="cls-1" x1="0.47" y1="847.57" x2="2377.43" y2="847.57"/><line class="cls-1" x1="0.47" y1="865.32" x2="2377.43" y2="865.32"/><line class="cls-1" x1="0.47" y1="883.3" x2="2377.43" y2="883.3"/><line class="cls-1" x1="0.47" y1="901.39" x2="2377.43" y2="901.39"/><line class="cls-1" x1="0.47" y1="919.36" x2="2377.43" y2="919.36"/><line class="cls-1" x1="0.47" y1="937.34" x2="2377.43" y2="937.34"/><line class="cls-1" x1="0.47" y1="955.31" x2="2377.43" y2="955.31"/><line class="cls-1" x1="1" y1="973.32" x2="2377.43" y2="973.32"/><line class="cls-1" x1="0.47" y1="991.26" x2="2376.37" y2="991.26"/><line class="cls-1" x1="0.47" y1="1009.12" x2="2377.43" y2="1009.12"/><line class="cls-1" x1="0.47" y1="1027.5" x2="2377.43" y2="1027.5"/><line class="cls-1" x1="0.47" y1="1045.29" x2="2377.43" y2="1045.29"/><line class="cls-1" x1="0.47" y1="1063.22" x2="2377.43" y2="1063.22"/><line class="cls-1" x1="1.19" y1="1081.41" x2="2376.37" y2="1081.41"/><line class="cls-1" x1="1.19" y1="1099.61" x2="2377.43" y2="1099.61"/><line class="cls-1" x1="1.19" y1="1117.32" x2="2377.43" y2="1117.32"/><line class="cls-1" x1="1.19" y1="1135.53" x2="2377.43" y2="1135.53"/><line class="cls-1" x1="0.47" y1="1153.29" x2="2377.43" y2="1153.29"/><line class="cls-1" x1="0.47" y1="1171.03" x2="2377.43" y2="1171.03"/><line class="cls-1" x1="0.47" y1="1189.36" x2="2377.43" y2="1189.36"/><line class="cls-1" x1="0.47" y1="1207.67" x2="2378.5" y2="1207.67"/><line class="cls-1" x1="0.47" y1="1225.43" x2="2377.43" y2="1225.43"/><line class="cls-1" x1="0.47" y1="1243.4" x2="2377.43" y2="1243.4"/><line class="cls-1" x1="0.47" y1="1261.49" x2="2377.43" y2="1261.49"/><line class="cls-1" x1="0.47" y1="1279.47" x2="2377.43" y2="1279.47"/><line class="cls-1" x1="0.47" y1="1297.44" x2="2377.43" y2="1297.44"/><line class="cls-1" x1="0.47" y1="1315.42" x2="2377.43" y2="1315.42"/><line class="cls-1" x1="1" y1="1333.42" x2="2377.43" y2="1333.42"/><line class="cls-1" x1="0.47" y1="1351.37" x2="2377.43" y2="1351.37"/><line class="cls-1" x1="0.47" y1="1369.22" x2="2377.43" y2="1369.22"/><line class="cls-1" x1="0.47" y1="1387.6" x2="2377.43" y2="1387.6"/><line class="cls-1" x1="0.47" y1="1405.39" x2="2377.43" y2="1405.39"/><line class="cls-1" x1="0.47" y1="1423.33" x2="2377.43" y2="1423.33"/><line class="cls-1" x1="1423.4" y1="0.43" x2="1423.4" y2="1423.33"/><line class="cls-1" x1="1405.2" y1="0.43" x2="1405.2" y2="1423.33"/><line class="cls-1" x1="1387.48" y1="0.43" x2="1387.48" y2="1423.33"/><line class="cls-1" x1="1369.28" y1="0.43" x2="1369.28" y2="1423.33"/><line class="cls-1" x1="1351.51" x2="1351.51" y2="1422.9"/><line class="cls-1" x1="1333.78" x2="1333.78" y2="1422.9"/><line class="cls-1" x1="1315.45" x2="1315.45" y2="1422.9"/><line class="cls-1" x1="1297.13" x2="1297.13" y2="1422.9"/><line class="cls-1" x1="1279.38" x2="1279.38" y2="1422.9"/><line class="cls-1" x1="1261.4" x2="1261.4" y2="1422.9"/><line class="cls-1" x1="1243.31" x2="1243.31" y2="1422.9"/><line class="cls-1" x1="1225.34" x2="1225.34" y2="1422.9"/><line class="cls-1" x1="1207.36" x2="1207.36" y2="1422.9"/><line class="cls-1" x1="1189.39" x2="1189.39" y2="1422.9"/><line class="cls-1" x1="1171.38" y1="0.32" x2="1171.38" y2="1423.22"/><line class="cls-1" x1="1153.44" x2="1153.44" y2="1422.9"/><line class="cls-1" x1="1135.58" x2="1135.58" y2="1422.9"/><line class="cls-1" x1="1117.2" x2="1117.2" y2="1422.9"/><line class="cls-1" x1="1099.41" x2="1099.41" y2="1422.9"/><line class="cls-1" x1="1081.48" x2="1081.48" y2="1422.9"/><line class="cls-1" x1="1063.3" y1="0.43" x2="1063.3" y2="1423.33"/><line class="cls-1" x1="1045.09" y1="0.43" x2="1045.09" y2="1423.33"/><line class="cls-1" x1="1027.38" y1="0.43" x2="1027.38" y2="1423.33"/><line class="cls-1" x1="1009.17" y1="0.43" x2="1009.17" y2="1423.33"/><line class="cls-1" x1="991.41" x2="991.41" y2="1422.9"/><line class="cls-1" x1="973.67" x2="973.67" y2="1422.9"/><line class="cls-1" x1="955.34" x2="955.34" y2="1422.9"/><line class="cls-1" x1="937.03" x2="937.03" y2="1422.9"/><line class="cls-1" x1="919.27" x2="919.27" y2="1422.9"/><line class="cls-1" x1="901.3" x2="901.3" y2="1422.9"/><line class="cls-1" x1="883.21" x2="883.21" y2="1422.9"/><line class="cls-1" x1="865.23" x2="865.23" y2="1422.9"/><line class="cls-1" x1="847.26" x2="847.26" y2="1422.9"/><line class="cls-1" x1="829.28" x2="829.28" y2="1422.9"/><line class="cls-1" x1="811.28" y1="0.32" x2="811.28" y2="1423.22"/><line class="cls-1" x1="793.33" x2="793.33" y2="1422.9"/><line class="cls-1" x1="775.48" x2="775.48" y2="1422.9"/><line class="cls-1" x1="757.1" x2="757.1" y2="1422.9"/><line class="cls-1" x1="739.31" x2="739.31" y2="1422.9"/><line class="cls-1" x1="721.37" x2="721.37" y2="1422.9"/><line class="cls-1" x1="703.22" y1="0.43" x2="703.22" y2="1423.33"/><line class="cls-1" x1="685.01" y1="0.43" x2="685.01" y2="1423.33"/><line class="cls-1" x1="667.3" y1="0.43" x2="667.3" y2="1423.33"/><line class="cls-1" x1="649.09" y1="0.43" x2="649.09" y2="1423.33"/><line class="cls-1" x1="631.33" x2="631.33" y2="1422.9"/><line class="cls-1" x1="613.59" x2="613.59" y2="1422.9"/><line class="cls-1" x1="595.26" x2="595.26" y2="1422.9"/><line class="cls-1" x1="576.95" x2="576.95" y2="1422.9"/><line class="cls-1" x1="559.19" x2="559.19" y2="1422.9"/><line class="cls-1" x1="541.22" x2="541.22" y2="1422.9"/><line class="cls-1" x1="523.13" x2="523.13" y2="1422.9"/><line class="cls-1" x1="505.15" x2="505.15" y2="1422.9"/><line class="cls-1" x1="487.18" x2="487.18" y2="1422.9"/><line class="cls-1" x1="469.2" x2="469.2" y2="1422.9"/><line class="cls-1" x1="451.2" y1="0.32" x2="451.2" y2="1423.22"/><line class="cls-1" x1="433.25" x2="433.25" y2="1422.9"/><line class="cls-1" x1="415.4" x2="415.4" y2="1422.9"/><line class="cls-1" x1="397.02" x2="397.02" y2="1422.9"/><line class="cls-1" x1="379.23" x2="379.23" y2="1422.9"/><line class="cls-1" x1="361.29" x2="361.29" y2="1422.9"/><line class="cls-1" x1="343.11" y1="0.43" x2="343.11" y2="1423.33"/><line class="cls-1" x1="324.91" y1="0.43" x2="324.91" y2="1423.33"/><line class="cls-1" x1="307.19" y1="0.43" x2="307.19" y2="1423.33"/><line class="cls-1" x1="288.99" y1="0.43" x2="288.99" y2="1423.33"/><line class="cls-1" x1="271.22" x2="271.22" y2="1422.9"/><line class="cls-1" x1="253.49" x2="253.49" y2="1422.9"/><line class="cls-1" x1="235.16" x2="235.16" y2="1422.9"/><line class="cls-1" x1="216.84" x2="216.84" y2="1422.9"/><line class="cls-1" x1="199.09" x2="199.09" y2="1422.9"/><line class="cls-1" x1="181.11" x2="181.11" y2="1422.9"/><line class="cls-1" x1="163.02" x2="163.02" y2="1422.9"/><line class="cls-1" x1="145.05" x2="145.05" y2="1422.9"/><line class="cls-1" x1="127.07" x2="127.07" y2="1422.9"/><line class="cls-1" x1="109.1" x2="109.1" y2="1422.9"/><line class="cls-1" x1="91.09" y1="0.32" x2="91.09" y2="1423.22"/><line class="cls-1" x1="73.15" x2="73.15" y2="1422.9"/><line class="cls-1" x1="55.29" x2="55.29" y2="1422.9"/><line class="cls-1" x1="36.91" x2="36.91" y2="1422.9"/><line class="cls-1" x1="19.12" x2="19.12" y2="1422.9"/><line class="cls-2" x1="1.19" x2="1.19" y2="1422.9"/><line class="cls-1" x1="2358.12" y1="0.43" x2="2358.12" y2="1423.33"/><line class="cls-1" x1="2340.14" y1="0.43" x2="2340.14" y2="1423.33"/><line class="cls-1" x1="2322.05" y1="0.43" x2="2322.05" y2="1423.33"/><line class="cls-1" x1="2304.07" y1="0.43" x2="2304.07" y2="1423.33"/><line class="cls-1" x1="2286.1" y1="0.43" x2="2286.1" y2="1423.33"/><line class="cls-1" x1="2268.13" y1="0.43" x2="2268.13" y2="1423.33"/><line class="cls-1" x1="2250.12" y1="0.74" x2="2250.12" y2="1423.64"/><line class="cls-1" x1="2232.18" y1="0.43" x2="2232.18" y2="1423.33"/><line class="cls-1" x1="2214.32" y1="0.43" x2="2214.32" y2="1423.33"/><line class="cls-1" x1="2195.94" y1="0.43" x2="2195.94" y2="1423.33"/><line class="cls-1" x1="2178.15" y1="0.43" x2="2178.15" y2="1423.33"/><line class="cls-1" x1="2160.22" y1="0.43" x2="2160.22" y2="1423.33"/><line class="cls-1" x1="2142.06" y1="0.85" x2="2142.06" y2="1423.76"/><line class="cls-1" x1="2123.85" y1="0.85" x2="2123.85" y2="1423.76"/><line class="cls-1" x1="2106.14" y1="0.85" x2="2106.14" y2="1423.76"/><line class="cls-1" x1="2087.94" y1="0.85" x2="2087.94" y2="1423.76"/><line class="cls-1" x1="2070.17" y1="0.43" x2="2070.17" y2="1423.33"/><line class="cls-1" x1="2052.44" y1="0.43" x2="2052.44" y2="1423.33"/><line class="cls-1" x1="2034.11" y1="0.43" x2="2034.11" y2="1423.33"/><line class="cls-1" x1="2015.79" y1="0.43" x2="2015.79" y2="1423.33"/><line class="cls-1" x1="1998.04" y1="0.43" x2="1998.04" y2="1423.33"/><line class="cls-1" x1="1980.06" y1="0.43" x2="1980.06" y2="1423.33"/><line class="cls-1" x1="1961.97" y1="0.43" x2="1961.97" y2="1423.33"/><line class="cls-1" x1="1944" y1="0.43" x2="1944" y2="1423.33"/><line class="cls-1" x1="1926.02" y1="0.43" x2="1926.02" y2="1423.33"/><line class="cls-1" x1="1908.05" y1="0.43" x2="1908.05" y2="1423.33"/><line class="cls-1" x1="1890.04" y1="0.74" x2="1890.04" y2="1423.64"/><line class="cls-1" x1="1872.1" y1="0.43" x2="1872.1" y2="1423.33"/><line class="cls-1" x1="1854.24" y1="0.43" x2="1854.24" y2="1423.33"/><line class="cls-1" x1="1835.86" y1="0.43" x2="1835.86" y2="1423.33"/><line class="cls-1" x1="1818.07" y1="0.43" x2="1818.07" y2="1423.33"/><line class="cls-1" x1="1800.14" y1="0.43" x2="1800.14" y2="1423.33"/><line class="cls-1" x1="1781.95" y1="0.85" x2="1781.95" y2="1423.76"/><line class="cls-1" x1="1763.75" y1="0.85" x2="1763.75" y2="1423.76"/><line class="cls-1" x1="1746.04" y1="0.85" x2="1746.04" y2="1423.76"/><line class="cls-1" x1="1727.83" y1="0.85" x2="1727.83" y2="1423.76"/><line class="cls-1" x1="1710.07" y1="0.43" x2="1710.07" y2="1423.33"/><line class="cls-1" x1="1692.33" y1="0.43" x2="1692.33" y2="1423.33"/><line class="cls-1" x1="1674" y1="0.43" x2="1674" y2="1423.33"/><line class="cls-1" x1="1655.69" y1="0.43" x2="1655.69" y2="1423.33"/><line class="cls-1" x1="1637.93" y1="0.43" x2="1637.93" y2="1423.33"/><line class="cls-1" x1="1619.96" y1="0.43" x2="1619.96" y2="1423.33"/><line class="cls-1" x1="1601.86" y1="0.43" x2="1601.86" y2="1423.33"/><line class="cls-1" x1="1583.89" y1="0.43" x2="1583.89" y2="1423.33"/><line class="cls-1" x1="1565.92" y1="0.43" x2="1565.92" y2="1423.33"/><line class="cls-1" x1="1547.94" y1="0.43" x2="1547.94" y2="1423.33"/><line class="cls-1" x1="1529.93" y1="0.74" x2="1529.93" y2="1423.64"/><line class="cls-1" x1="1511.99" y1="0.43" x2="1511.99" y2="1423.33"/><line class="cls-1" x1="1494.14" y1="0.43" x2="1494.14" y2="1423.33"/><line class="cls-1" x1="1475.76" y1="0.43" x2="1475.76" y2="1423.33"/><line class="cls-1" x1="1457.97" y1="0.43" x2="1457.97" y2="1423.33"/><line class="cls-1" x1="1440.03" y1="0.43" x2="1440.03" y2="1423.33"/><line class="cls-2" x1="0.49" x2="2377.43" y2="0.43"/></g></g></svg>