<svg xmlns="http://www.w3.org/2000/svg" viewBox="0 0 2378.5 1427.09"><defs><style>.cls-1,.cls-2{fill:none;}.cls-1{stroke:#000;stroke-miterlimit:10;stroke-width:2px;}</style></defs><title>Asset 90</title><g id="Layer_2" data-name="Layer 2"><g id="Layer_1-2" data-name="Layer 1"><line class="cls-1" x1="1" y1="1426.2" x2="1" y2="0.54"/><line class="cls-1" x1="1.19" y1="22.08" x2="2377.78" y2="22.08"/><line class="cls-1" x1="1.19" y1="39.79" x2="2377.78" y2="39.79"/><line class="cls-1" x1="1.19" y1="58" x2="2377.78" y2="58"/><line class="cls-1" x1="0.47" y1="75.76" x2="2377.45" y2="75.76"/><line class="cls-1" x1="0.47" y1="93.5" x2="2377.43" y2="93.5"/><line class="cls-1" x1="0.47" y1="111.83" x2="2377.43" y2="111.83"/><line class="cls-1" x1="0.47" y1="130.14" x2="2377.43" y2="130.14"/><line class="cls-1" x1="0.47" y1="147.89" x2="2377.43" y2="147.89"/><line class="cls-1" x1="0.47" y1="165.87" x2="2377.43" y2="165.87"/><line class="cls-1" x1="0.47" y1="183.96" x2="2377.43" y2="183.96"/><line class="cls-1" x1="0.47" y1="201.94" x2="2377.43" y2="201.94"/><line class="cls-1" x1="0.47" y1="219.91" x2="2377.43" y2="219.91"/><line class="cls-1" x1="0.47" y1="237.89" x2="2377.43" y2="237.89"/><line class="cls-1" x1="1" y1="255.89" x2="2377.43" y2="255.89"/><line class="cls-1" x1="0.47" y1="273.83" x2="2377.43" y2="273.83"/><line class="cls-1" x1="0.47" y1="291.69" x2="2377.43" y2="291.69"/><line class="cls-1" x1="0.47" y1="310.07" x2="2377.43" y2="310.07"/><line class="cls-1" x1="0.47" y1="327.86" x2="2377.43" y2="327.86"/><line class="cls-1" x1="0.47" y1="345.8" x2="2377.43" y2="345.8"/><line class="cls-1" x1="1.19" y1="363.98" x2="2377.43" y2="363.98"/><line class="cls-1" x1="1.19" y1="382.18" x2="2377.43" y2="382.18"/><line class="cls-1" x1="1.19" y1="399.9" x2="2377.43" y2="399.9"/><line class="cls-1" x1="1.19" y1="418.1" x2="2377.43" y2="418.1"/><line class="cls-1" x1="0.47" y1="435.86" x2="2377.43" y2="435.86"/><line class="cls-1" x1="0.47" y1="453.6" x2="2377.43" y2="453.6"/><line class="cls-1" x1="0.47" y1="471.93" x2="2377.43" y2="471.93"/><line class="cls-1" x1="0.47" y1="490.24" x2="2377.43" y2="490.24"/><line class="cls-1" x1="0.47" y1="508" x2="2377.43" y2="508"/><line class="cls-1" x1="0.47" y1="525.97" x2="2377.43" y2="525.97"/><line class="cls-1" x1="0.47" y1="544.07" x2="2377.43" y2="544.07"/><line class="cls-1" x1="0.47" y1="562.04" x2="2377.43" y2="562.04"/><line class="cls-1" x1="0.47" y1="580.02" x2="2377.43" y2="580.02"/><line class="cls-1" x1="0.47" y1="597.99" x2="2377.43" y2="597.99"/><line class="cls-1" x1="1" y1="616" x2="2377.43" y2="616"/><line class="cls-1" x1="0.47" y1="633.94" x2="2377.43" y2="633.94"/><line class="cls-1" x1="0.47" y1="651.79" x2="2377.43" y2="651.79"/><line class="cls-1" x1="0.47" y1="670.18" x2="2377.43" y2="670.17"/><line class="cls-1" x1="0.47" y1="687.96" x2="2377.43" y2="687.96"/><line class="cls-1" x1="0.47" y1="705.9" x2="2377.43" y2="705.9"/><line class="cls-1" x1="1.19" y1="724.06" x2="2377.43" y2="724.06"/><line class="cls-1" x1="1.19" y1="742.26" x2="2377.43" y2="742.26"/><line class="cls-1" x1="1.19" y1="759.98" x2="2377.43" y2="759.98"/><line class="cls-1" x1="1.19" y1="778.18" x2="2377.43" y2="778.18"/><line class="cls-1" x1="0.47" y1="795.94" x2="2377.43" y2="795.94"/><line class="cls-1" x1="0.47" y1="813.68" x2="2377.43" y2="813.68"/><line class="cls-1" x1="0.47" y1="832.01" x2="2377.43" y2="832.01"/><line class="cls-1" x1="0.47" y1="850.32" x2="2377.43" y2="850.32"/><line class="cls-1" x1="0.47" y1="868.08" x2="2377.43" y2="868.08"/><line class="cls-1" x1="0.47" y1="886.05" x2="2377.43" y2="886.05"/><line class="cls-1" x1="0.47" y1="904.15" x2="2377.43" y2="904.15"/><line class="cls-1" x1="0.47" y1="922.12" x2="2377.43" y2="922.12"/><line class="cls-1" x1="0.47" y1="940.1" x2="2377.43" y2="940.1"/><line class="cls-1" x1="0.47" y1="958.07" x2="2377.43" y2="958.07"/><line class="cls-1" x1="1" y1="976.08" x2="2377.43" y2="976.08"/><line class="cls-1" x1="0.47" y1="994.02" x2="2376.37" y2="994.02"/><line class="cls-1" x1="0.47" y1="1011.87" x2="2377.43" y2="1011.87"/><line class="cls-1" x1="0.47" y1="1030.26" x2="2377.43" y2="1030.25"/><line class="cls-1" x1="0.47" y1="1048.04" x2="2377.43" y2="1048.04"/><line class="cls-1" x1="0.47" y1="1065.98" x2="2377.43" y2="1065.98"/><line class="cls-1" x1="1.19" y1="1084.16" x2="2376.37" y2="1084.16"/><line class="cls-1" x1="1.19" y1="1102.37" x2="2377.43" y2="1102.37"/><line class="cls-1" x1="1.19" y1="1120.08" x2="2377.43" y2="1120.08"/><line class="cls-1" x1="1.19" y1="1138.29" x2="2377.43" y2="1138.28"/><line class="cls-1" x1="0.47" y1="1156.05" x2="2377.43" y2="1156.05"/><line class="cls-1" x1="0.47" y1="1173.79" x2="2377.43" y2="1173.78"/><line class="cls-1" x1="0.47" y1="1192.12" x2="2377.43" y2="1192.12"/><line class="cls-1" x1="0.47" y1="1210.43" x2="2378.5" y2="1210.43"/><line class="cls-1" x1="0.47" y1="1228.18" x2="2377.43" y2="1228.18"/><line class="cls-1" x1="0.47" y1="1246.16" x2="2377.43" y2="1246.16"/><line class="cls-1" x1="0.47" y1="1264.25" x2="2377.43" y2="1264.25"/><line class="cls-1" x1="0.47" y1="1282.23" x2="2377.43" y2="1282.23"/><line class="cls-1" x1="0.47" y1="1300.2" x2="2377.43" y2="1300.2"/><line class="cls-1" x1="0.47" y1="1318.18" x2="2377.43" y2="1318.17"/><line class="cls-1" x1="1" y1="1336.18" x2="2377.43" y2="1336.18"/><line class="cls-1" x1="0.47" y1="1354.12" x2="2377.43" y2="1354.12"/><line class="cls-1" x1="0.47" y1="1371.98" x2="2377.43" y2="1371.98"/><line class="cls-1" x1="0.47" y1="1390.36" x2="2377.43" y2="1390.36"/><line class="cls-1" x1="0.47" y1="1408.15" x2="2377.43" y2="1408.15"/><line class="cls-1" x1="0.47" y1="1426.09" x2="2377.43" y2="1426.09"/><line class="cls-1" x1="1423.4" y1="0.43" x2="1423.4" y2="1426.09"/><line class="cls-1" x1="1405.2" y1="0.43" x2="1405.2" y2="1426.09"/><line class="cls-1" x1="1387.48" y1="0.43" x2="1387.48" y2="1426.09"/><line class="cls-1" x1="1369.28" y1="0.43" x2="1369.28" y2="1426.09"/><line class="cls-1" x1="1351.51" x2="1351.51" y2="1425.66"/><line class="cls-1" x1="1333.78" x2="1333.78" y2="1425.66"/><line class="cls-1" x1="1315.45" x2="1315.45" y2="1425.66"/><line class="cls-1" x1="1297.13" x2="1297.13" y2="1425.66"/><line class="cls-1" x1="1279.38" x2="1279.38" y2="1425.66"/><line class="cls-1" x1="1261.4" x2="1261.4" y2="1425.66"/><line class="cls-1" x1="1243.31" x2="1243.31" y2="1425.66"/><line class="cls-1" x1="1225.34" x2="1225.34" y2="1425.66"/><line class="cls-1" x1="1207.36" x2="1207.36" y2="1425.66"/><line class="cls-1" x1="1189.39" x2="1189.39" y2="1425.66"/><line class="cls-1" x1="1171.38" y1="0.32" x2="1171.38" y2="1425.97"/><line class="cls-1" x1="1153.44" x2="1153.44" y2="1425.66"/><line class="cls-1" x1="1135.58" x2="1135.58" y2="1425.66"/><line class="cls-1" x1="1117.2" x2="1117.2" y2="1425.66"/><line class="cls-1" x1="1099.41" x2="1099.41" y2="1425.66"/><line class="cls-1" x1="1081.48" x2="1081.48" y2="1425.66"/><line class="cls-1" x1="1063.3" y1="0.43" x2="1063.3" y2="1426.09"/><line class="cls-1" x1="1045.09" y1="0.43" x2="1045.09" y2="1426.09"/><line class="cls-1" x1="1027.38" y1="0.43" x2="1027.38" y2="1426.09"/><line class="cls-1" x1="1009.17" y1="0.43" x2="1009.17" y2="1426.09"/><line class="cls-1" x1="991.41" x2="991.41" y2="1425.66"/><line class="cls-1" x1="973.67" x2="973.67" y2="1425.66"/><line class="cls-1" x1="955.34" x2="955.34" y2="1425.66"/><line class="cls-1" x1="937.03" x2="937.03" y2="1425.66"/><line class="cls-1" x1="919.27" x2="919.27" y2="1425.66"/><line class="cls-1" x1="901.3" x2="901.3" y2="1425.66"/><line class="cls-1" x1="883.21" x2="883.21" y2="1425.66"/><line class="cls-1" x1="865.23" x2="865.23" y2="1425.66"/><line class="cls-1" x1="847.26" x2="847.26" y2="1425.66"/><line class="cls-1" x1="829.28" x2="829.28" y2="1425.66"/><line class="cls-1" x1="811.28" y1="0.32" x2="811.28" y2="1425.97"/><line class="cls-1" x1="793.33" x2="793.33" y2="1425.66"/><line class="cls-1" x1="775.48" x2="775.48" y2="1425.66"/><line class="cls-1" x1="757.1" x2="757.1" y2="1425.66"/><line class="cls-1" x1="739.31" x2="739.31" y2="1425.66"/><line class="cls-1" x1="721.37" x2="721.37" y2="1425.66"/><line class="cls-1" x1="703.22" y1="0.43" x2="703.22" y2="1426.09"/><line class="cls-1" x1="685.01" y1="0.43" x2="685.01" y2="1426.09"/><line class="cls-1" x1="667.3" y1="0.43" x2="667.3" y2="1426.09"/><line class="cls-1" x1="649.09" y1="0.43" x2="649.09" y2="1426.09"/><line class="cls-1" x1="631.33" x2="631.33" y2="1425.66"/><line class="cls-1" x1="613.59" x2="613.59" y2="1425.66"/><line class="cls-1" x1="595.26" x2="595.26" y2="1425.66"/><line class="cls-1" x1="576.95" x2="576.95" y2="1425.66"/><line class="cls-1" x1="559.19" x2="559.19" y2="1425.66"/><line class="cls-1" x1="541.22" x2="541.22" y2="1425.66"/><line class="cls-1" x1="523.13" x2="523.13" y2="1425.66"/><line class="cls-1" x1="505.15" x2="505.15" y2="1425.66"/><line class="cls-1" x1="487.18" x2="487.18" y2="1425.66"/><line class="cls-1" x1="469.2" x2="469.2" y2="1425.66"/><line class="cls-1" x1="451.2" y1="0.32" x2="451.2" y2="1425.97"/><line class="cls-1" x1="433.25" x2="433.25" y2="1425.66"/><line class="cls-1" x1="415.4" x2="415.4" y2="1425.66"/><line class="cls-1" x1="397.02" x2="397.02" y2="1425.66"/><line class="cls-1" x1="379.23" x2="379.23" y2="1425.66"/><line class="cls-1" x1="361.29" x2="361.29" y2="1425.66"/><line class="cls-1" x1="343.11" y1="0.43" x2="343.11" y2="1426.09"/><line class="cls-1" x1="324.91" y1="0.43" x2="324.91" y2="1426.09"/><line class="cls-1" x1="307.19" y1="0.43" x2="307.19" y2="1426.09"/><line class="cls-1" x1="288.99" y1="0.43" x2="288.99" y2="1426.09"/><line class="cls-1" x1="271.22" x2="271.22" y2="1425.66"/><line class="cls-1" x1="253.49" x2="253.49" y2="1425.66"/><line class="cls-1" x1="235.16" x2="235.16" y2="1425.66"/><line class="cls-1" x1="216.84" x2="216.84" y2="1425.66"/><line class="cls-1" x1="199.09" x2="199.09" y2="1425.66"/><line class="cls-1" x1="181.11" x2="181.11" y2="1425.66"/><line class="cls-1" x1="163.02" x2="163.02" y2="1425.66"/><line class="cls-1" x1="145.05" x2="145.05" y2="1425.66"/><line class="cls-1" x1="127.07" x2="127.07" y2="1425.66"/><line class="cls-1" x1="109.1" x2="109.1" y2="1425.66"/><line class="cls-1" x1="91.09" y1="0.32" x2="91.09" y2="1425.97"/><line class="cls-1" x1="73.15" x2="73.15" y2="1425.66"/><line class="cls-1" x1="55.29" x2="55.29" y2="1425.66"/><line class="cls-1" x1="36.91" x2="36.91" y2="1425.66"/><line class="cls-1" x1="19.12" x2="19.12" y2="1425.66"/><line class="cls-2" x1="1.19" x2="1.19" y2="1425.66"/><line class="cls-1" x1="2358.12" y1="0.43" x2="2358.12" y2="1426.09"/><line class="cls-1" x1="2340.14" y1="0.43" x2="2340.14" y2="1426.09"/><line class="cls-1" x1="2322.05" y1="0.43" x2="2322.05" y2="1426.09"/><line class="cls-1" x1="2304.07" y1="0.43" x2="2304.07" y2="1426.09"/><line class="cls-1" x1="2286.1" y1="0.43" x2="2286.1" y2="1426.09"/><line class="cls-1" x1="2268.13" y1="0.43" x2="2268.13" y2="1426.09"/><line class="cls-1" x1="2250.12" y1="0.74" x2="2250.12" y2="1426.4"/><line class="cls-1" x1="2232.18" y1="0.43" x2="2232.18" y2="1426.09"/><line class="cls-1" x1="2214.32" y1="0.43" x2="2214.32" y2="1426.09"/><line class="cls-1" x1="2195.94" y1="0.43" x2="2195.94" y2="1426.09"/><line class="cls-1" x1="2178.15" y1="0.43" x2="2178.15" y2="1426.09"/><line class="cls-1" x1="2160.22" y1="0.43" x2="2160.22" y2="1426.09"/><line class="cls-1" x1="2142.06" y1="0.86" x2="2142.06" y2="1426.51"/><line class="cls-1" x1="2123.85" y1="0.86" x2="2123.85" y2="1426.51"/><line class="cls-1" x1="2106.14" y1="0.86" x2="2106.14" y2="1426.51"/><line class="cls-1" x1="2087.94" y1="0.86" x2="2087.94" y2="1426.51"/><line class="cls-1" x1="2070.17" y1="0.43" x2="2070.17" y2="1426.09"/><line class="cls-1" x1="2052.44" y1="0.43" x2="2052.44" y2="1426.09"/><line class="cls-1" x1="2034.11" y1="0.43" x2="2034.11" y2="1426.09"/><line class="cls-1" x1="2015.79" y1="0.43" x2="2015.79" y2="1426.09"/><line class="cls-1" x1="1998.04" y1="0.43" x2="1998.04" y2="1426.09"/><line class="cls-1" x1="1980.06" y1="0.43" x2="1980.06" y2="1426.09"/><line class="cls-1" x1="1961.97" y1="0.43" x2="1961.97" y2="1426.09"/><line class="cls-1" x1="1944" y1="0.43" x2="1944" y2="1426.09"/><line class="cls-1" x1="1926.02" y1="0.43" x2="1926.02" y2="1426.09"/><line class="cls-1" x1="1908.05" y1="0.43" x2="1908.05" y2="1426.09"/><line class="cls-1" x1="1890.04" y1="0.74" x2="1890.04" y2="1426.4"/><line class="cls-1" x1="1872.1" y1="0.43" x2="1872.1" y2="1426.09"/><line class="cls-1" x1="1854.24" y1="0.43" x2="1854.24" y2="1426.09"/><line class="cls-1" x1="1835.86" y1="0.43" x2="1835.86" y2="1426.09"/><line class="cls-1" x1="1818.07" y1="0.43" x2="1818.07" y2="1426.09"/><line class="cls-1" x1="1800.14" y1="0.43" x2="1800.14" y2="1426.09"/><line class="cls-1" x1="1781.95" y1="0.86" x2="1781.95" y2="1426.51"/><line class="cls-1" x1="1763.75" y1="0.86" x2="1763.75" y2="1426.51"/><line class="cls-1" x1="1746.04" y1="0.86" x2="1746.04" y2="1426.51"/><line class="cls-1" x1="1727.83" y1="0.86" x2="1727.83" y2="1426.51"/><line class="cls-1" x1="1710.07" y1="0.43" x2="1710.07" y2="1426.09"/><line class="cls-1" x1="1692.33" y1="0.43" x2="1692.33" y2="1426.09"/><line class="cls-1" x1="1674" y1="0.43" x2="1674" y2="1426.09"/><line class="cls-1" x1="1655.69" y1="0.43" x2="1655.69" y2="1426.09"/><line class="cls-1" x1="1637.93" y1="0.43" x2="1637.93" y2="1426.09"/><line class="cls-1" x1="1619.96" y1="0.43" x2="1619.96" y2="1426.09"/><line class="cls-1" x1="1601.86" y1="0.43" x2="1601.86" y2="1426.09"/><line class="cls-1" x1="1583.89" y1="0.43" x2="1583.89" y2="1426.09"/><line class="cls-1" x1="1565.92" y1="0.43" x2="1565.92" y2="1426.09"/><line class="cls-1" x1="1547.94" y1="0.43" x2="1547.94" y2="1426.09"/><line class="cls-1" x1="1529.93" y1="0.74" x2="1529.93" y2="1426.4"/><line class="cls-1" x1="1511.99" y1="0.43" x2="1511.99" y2="1426.09"/><line class="cls-1" x1="1494.14" y1="0.43" x2="1494.14" y2="1426.09"/><line class="cls-1" x1="1475.76" y1="0.43" x2="1475.76" y2="1426.09"/><line class="cls-1" x1="1457.97" y1="0.43" x2="1457.97" y2="1426.09"/><line class="cls-1" x1="1440.03" y1="0.43" x2="1440.03" y2="1426.09"/><line class="cls-2" x1="0.49" x2="2377.43" y2="0.43"/></g></g></svg>