<svg xmlns="http://www.w3.org/2000/svg" viewBox="0 0 4761.47 2846.3"><defs><style>.cls-1{fill:none;stroke:#000;stroke-miterlimit:10;stroke-width:2px;}</style></defs><title>Asset 82</title><g id="Layer_2" data-name="Layer 2"><g id="Layer_1-2" data-name="Layer 1"><line class="cls-1" x1="2380.7" y1="1" x2="4761.47" y2="1"/><line class="cls-1" x1="2380.7" y1="19.21" x2="4761.47" y2="19.21"/><line class="cls-1" x1="2380.7" y1="36.92" x2="4761.47" y2="36.92"/><line class="cls-1" x1="2380.7" y1="55.12" x2="4761.47" y2="55.12"/><line class="cls-1" x1="2379.98" y1="72.89" x2="4760.75" y2="72.89"/><line class="cls-1" x1="2379.98" y1="90.62" x2="4760.75" y2="90.62"/><line class="cls-1" x1="2379.98" y1="108.95" x2="4760.75" y2="108.95"/><line class="cls-1" x1="2379.98" y1="127.27" x2="4760.75" y2="127.27"/><line class="cls-1" x1="2379.98" y1="145.02" x2="4760.75" y2="145.02"/><line class="cls-1" x1="2379.98" y1="163" x2="4760.75" y2="163"/><line class="cls-1" x1="2379.98" y1="181.09" x2="4760.75" y2="181.09"/><line class="cls-1" x1="2379.98" y1="199.06" x2="4760.75" y2="199.06"/><line class="cls-1" x1="2379.98" y1="217.04" x2="4760.75" y2="217.04"/><line class="cls-1" x1="2379.98" y1="235.01" x2="4760.75" y2="235.01"/><line class="cls-1" x1="2380.51" y1="253.02" x2="4761.28" y2="253.02"/><line class="cls-1" x1="2379.98" y1="270.96" x2="4760.75" y2="270.96"/><line class="cls-1" x1="2379.98" y1="288.82" x2="4760.75" y2="288.82"/><line class="cls-1" x1="2379.98" y1="307.2" x2="4760.75" y2="307.2"/><line class="cls-1" x1="2379.98" y1="324.99" x2="4760.75" y2="324.99"/><line class="cls-1" x1="2379.98" y1="342.92" x2="4760.75" y2="342.92"/><line class="cls-1" x1="2380.7" y1="361.11" x2="4761.47" y2="361.11"/><line class="cls-1" x1="2380.7" y1="379.31" x2="4761.47" y2="379.31"/><line class="cls-1" x1="2380.7" y1="397.02" x2="4761.47" y2="397.02"/><line class="cls-1" x1="2380.7" y1="415.23" x2="4761.47" y2="415.23"/><line class="cls-1" x1="2379.98" y1="432.99" x2="4760.75" y2="432.99"/><line class="cls-1" x1="2379.98" y1="450.73" x2="4760.75" y2="450.73"/><line class="cls-1" x1="2379.98" y1="469.06" x2="4760.75" y2="469.06"/><line class="cls-1" x1="2379.98" y1="487.37" x2="4760.75" y2="487.37"/><line class="cls-1" x1="2379.98" y1="505.13" x2="4760.75" y2="505.13"/><line class="cls-1" x1="2379.98" y1="523.1" x2="4760.75" y2="523.1"/><line class="cls-1" x1="2379.98" y1="541.19" x2="4760.75" y2="541.19"/><line class="cls-1" x1="2379.98" y1="559.17" x2="4760.75" y2="559.17"/><line class="cls-1" x1="2379.98" y1="577.14" x2="4760.75" y2="577.14"/><line class="cls-1" x1="2379.98" y1="595.12" x2="4760.75" y2="595.12"/><line class="cls-1" x1="2380.51" y1="613.12" x2="4761.28" y2="613.12"/><line class="cls-1" x1="2379.98" y1="631.07" x2="4760.75" y2="631.07"/><line class="cls-1" x1="2379.98" y1="648.92" x2="4760.75" y2="648.92"/><line class="cls-1" x1="2379.98" y1="667.3" x2="4760.75" y2="667.3"/><line class="cls-1" x1="2379.98" y1="685.09" x2="4760.75" y2="685.09"/><line class="cls-1" x1="2379.98" y1="703.03" x2="4760.75" y2="703.03"/><line class="cls-1" x1="2380.7" y1="721.19" x2="4761.47" y2="721.19"/><line class="cls-1" x1="2380.7" y1="739.39" x2="4761.47" y2="739.39"/><line class="cls-1" x1="2380.7" y1="757.1" x2="4761.47" y2="757.1"/><line class="cls-1" x1="2380.7" y1="775.31" x2="4761.47" y2="775.31"/><line class="cls-1" x1="2379.98" y1="793.07" x2="4760.75" y2="793.07"/><line class="cls-1" x1="2379.98" y1="810.81" x2="4760.75" y2="810.81"/><line class="cls-1" x1="2379.98" y1="829.14" x2="4760.75" y2="829.14"/><line class="cls-1" x1="2379.98" y1="847.45" x2="4760.75" y2="847.45"/><line class="cls-1" x1="2379.98" y1="865.21" x2="4760.75" y2="865.21"/><line class="cls-1" x1="2379.98" y1="883.18" x2="4760.75" y2="883.18"/><line class="cls-1" x1="2379.98" y1="901.27" x2="4760.75" y2="901.27"/><line class="cls-1" x1="2379.98" y1="919.25" x2="4760.75" y2="919.25"/><line class="cls-1" x1="2379.98" y1="937.22" x2="4760.75" y2="937.22"/><line class="cls-1" x1="2379.98" y1="955.2" x2="4760.75" y2="955.2"/><line class="cls-1" x1="2380.51" y1="973.2" x2="4761.28" y2="973.2"/><line class="cls-1" x1="2379.98" y1="991.15" x2="4760.75" y2="991.15"/><line class="cls-1" x1="2379.98" y1="1009" x2="4760.75" y2="1009"/><line class="cls-1" x1="2379.98" y1="1027.38" x2="4760.75" y2="1027.38"/><line class="cls-1" x1="2379.98" y1="1045.17" x2="4760.75" y2="1045.17"/><line class="cls-1" x1="2379.98" y1="1063.11" x2="4760.75" y2="1063.11"/><line class="cls-1" x1="2380.7" y1="1081.29" x2="4761.47" y2="1081.29"/><line class="cls-1" x1="2380.7" y1="1099.5" x2="4761.47" y2="1099.5"/><line class="cls-1" x1="2380.7" y1="1117.21" x2="4761.47" y2="1117.21"/><line class="cls-1" x1="2380.7" y1="1135.41" x2="4761.47" y2="1135.41"/><line class="cls-1" x1="2379.98" y1="1153.18" x2="4760.75" y2="1153.18"/><line class="cls-1" x1="2379.98" y1="1170.91" x2="4760.75" y2="1170.91"/><line class="cls-1" x1="2379.98" y1="1189.24" x2="4760.75" y2="1189.24"/><line class="cls-1" x1="2379.98" y1="1207.56" x2="4760.75" y2="1207.56"/><line class="cls-1" x1="2379.98" y1="1225.31" x2="4760.75" y2="1225.31"/><line class="cls-1" x1="2379.98" y1="1243.29" x2="4760.75" y2="1243.29"/><line class="cls-1" x1="2379.98" y1="1261.38" x2="4760.75" y2="1261.38"/><line class="cls-1" x1="2379.98" y1="1279.35" x2="4760.75" y2="1279.35"/><line class="cls-1" x1="2379.98" y1="1297.33" x2="4760.75" y2="1297.33"/><line class="cls-1" x1="2379.98" y1="1315.3" x2="4760.75" y2="1315.3"/><line class="cls-1" x1="2380.51" y1="1333.31" x2="4761.28" y2="1333.31"/><line class="cls-1" x1="2379.98" y1="1351.25" x2="4760.75" y2="1351.25"/><line class="cls-1" x1="2379.98" y1="1369.11" x2="4760.75" y2="1369.11"/><line class="cls-1" x1="2379.98" y1="1387.49" x2="4760.75" y2="1387.49"/><line class="cls-1" x1="2379.98" y1="1405.28" x2="4760.75" y2="1405.28"/><line class="cls-1" x1="2379.98" y1="1423.21" x2="4760.75" y2="1423.21"/><line class="cls-1" x1="3802.91" y1="1.43" x2="3802.91" y2="1423.21"/><line class="cls-1" x1="3784.71" y1="1.43" x2="3784.71" y2="1423.21"/><line class="cls-1" x1="3766.99" y1="1.43" x2="3766.99" y2="1423.21"/><line class="cls-1" x1="3748.79" y1="1.43" x2="3748.79" y2="1423.21"/><line class="cls-1" x1="3731.03" y1="1" x2="3731.03" y2="1422.79"/><line class="cls-1" x1="3713.29" y1="1" x2="3713.29" y2="1422.79"/><line class="cls-1" x1="3694.96" y1="1" x2="3694.96" y2="1422.79"/><line class="cls-1" x1="3676.65" y1="1" x2="3676.65" y2="1422.79"/><line class="cls-1" x1="3658.89" y1="1" x2="3658.89" y2="1422.79"/><line class="cls-1" x1="3640.92" y1="1" x2="3640.92" y2="1422.79"/><line class="cls-1" x1="3622.82" y1="1" x2="3622.82" y2="1422.79"/><line class="cls-1" x1="3604.85" y1="1" x2="3604.85" y2="1422.79"/><line class="cls-1" x1="3586.87" y1="1" x2="3586.87" y2="1422.79"/><line class="cls-1" x1="3568.9" y1="1" x2="3568.9" y2="1422.79"/><line class="cls-1" x1="3550.89" y1="1.32" x2="3550.89" y2="1423.1"/><line class="cls-1" x1="3532.95" y1="1" x2="3532.95" y2="1422.79"/><line class="cls-1" x1="3515.09" y1="1" x2="3515.09" y2="1422.79"/><line class="cls-1" x1="3496.71" y1="1" x2="3496.71" y2="1422.79"/><line class="cls-1" x1="3478.92" y1="1" x2="3478.92" y2="1422.79"/><line class="cls-1" x1="3460.99" y1="1" x2="3460.99" y2="1422.79"/><line class="cls-1" x1="3442.81" y1="1.43" x2="3442.81" y2="1423.21"/><line class="cls-1" x1="3424.6" y1="1.43" x2="3424.6" y2="1423.21"/><line class="cls-1" x1="3406.89" y1="1.43" x2="3406.89" y2="1423.21"/><line class="cls-1" x1="3388.68" y1="1.43" x2="3388.68" y2="1423.21"/><line class="cls-1" x1="3370.92" y1="1" x2="3370.92" y2="1422.79"/><line class="cls-1" x1="3353.18" y1="1" x2="3353.18" y2="1422.79"/><line class="cls-1" x1="3334.85" y1="1" x2="3334.85" y2="1422.79"/><line class="cls-1" x1="3316.54" y1="1" x2="3316.54" y2="1422.79"/><line class="cls-1" x1="3298.78" y1="1" x2="3298.78" y2="1422.79"/><line class="cls-1" x1="3280.81" y1="1" x2="3280.81" y2="1422.79"/><line class="cls-1" x1="3262.72" y1="1" x2="3262.72" y2="1422.79"/><line class="cls-1" x1="3244.74" y1="1" x2="3244.74" y2="1422.79"/><line class="cls-1" x1="3226.77" y1="1" x2="3226.77" y2="1422.79"/><line class="cls-1" x1="3208.79" y1="1" x2="3208.79" y2="1422.79"/><line class="cls-1" x1="3190.79" y1="1.32" x2="3190.79" y2="1423.1"/><line class="cls-1" x1="3172.85" y1="1" x2="3172.85" y2="1422.79"/><line class="cls-1" x1="3154.99" y1="1" x2="3154.99" y2="1422.79"/><line class="cls-1" x1="3136.61" y1="1" x2="3136.61" y2="1422.79"/><line class="cls-1" x1="3118.82" y1="1" x2="3118.82" y2="1422.79"/><line class="cls-1" x1="3100.88" y1="1" x2="3100.88" y2="1422.79"/><line class="cls-1" x1="3082.73" y1="1.43" x2="3082.73" y2="1423.21"/><line class="cls-1" x1="3064.52" y1="1.43" x2="3064.52" y2="1423.21"/><line class="cls-1" x1="3046.81" y1="1.43" x2="3046.81" y2="1423.21"/><line class="cls-1" x1="3028.6" y1="1.43" x2="3028.6" y2="1423.21"/><line class="cls-1" x1="3010.84" y1="1" x2="3010.84" y2="1422.79"/><line class="cls-1" x1="2993.1" y1="1" x2="2993.1" y2="1422.79"/><line class="cls-1" x1="2974.77" y1="1" x2="2974.77" y2="1422.79"/><line class="cls-1" x1="2956.46" y1="1" x2="2956.46" y2="1422.79"/><line class="cls-1" x1="2938.7" y1="1" x2="2938.7" y2="1422.79"/><line class="cls-1" x1="2920.73" y1="1" x2="2920.73" y2="1422.79"/><line class="cls-1" x1="2902.64" y1="1" x2="2902.64" y2="1422.79"/><line class="cls-1" x1="2884.66" y1="1" x2="2884.66" y2="1422.79"/><line class="cls-1" x1="2866.69" y1="1" x2="2866.69" y2="1422.79"/><line class="cls-1" x1="2848.71" y1="1" x2="2848.71" y2="1422.79"/><line class="cls-1" x1="2830.71" y1="1.32" x2="2830.71" y2="1423.1"/><line class="cls-1" x1="2812.77" y1="1" x2="2812.77" y2="1422.79"/><line class="cls-1" x1="2794.91" y1="1" x2="2794.91" y2="1422.79"/><line class="cls-1" x1="2776.53" y1="1" x2="2776.53" y2="1422.79"/><line class="cls-1" x1="2758.74" y1="1" x2="2758.74" y2="1422.79"/><line class="cls-1" x1="2740.8" y1="1" x2="2740.8" y2="1422.79"/><line class="cls-1" x1="2722.62" y1="1.43" x2="2722.62" y2="1423.21"/><line class="cls-1" x1="2704.42" y1="1.43" x2="2704.42" y2="1423.21"/><line class="cls-1" x1="2686.7" y1="1.43" x2="2686.7" y2="1423.21"/><line class="cls-1" x1="2668.5" y1="1.43" x2="2668.5" y2="1423.21"/><line class="cls-1" x1="2650.74" y1="1" x2="2650.74" y2="1422.79"/><line class="cls-1" x1="2633" y1="1" x2="2633" y2="1422.79"/><line class="cls-1" x1="2614.67" y1="1" x2="2614.67" y2="1422.79"/><line class="cls-1" x1="2596.36" y1="1" x2="2596.36" y2="1422.79"/><line class="cls-1" x1="2578.6" y1="1" x2="2578.6" y2="1422.79"/><line class="cls-1" x1="2560.63" y1="1" x2="2560.63" y2="1422.79"/><line class="cls-1" x1="2542.53" y1="1" x2="2542.53" y2="1422.79"/><line class="cls-1" x1="2524.56" y1="1" x2="2524.56" y2="1422.79"/><line class="cls-1" x1="2506.58" y1="1" x2="2506.58" y2="1422.79"/><line class="cls-1" x1="2488.61" y1="1" x2="2488.61" y2="1422.79"/><line class="cls-1" x1="2470.6" y1="1.32" x2="2470.6" y2="1423.1"/><line class="cls-1" x1="2452.66" y1="1" x2="2452.66" y2="1422.79"/><line class="cls-1" x1="2434.8" y1="1" x2="2434.8" y2="1422.79"/><line class="cls-1" x1="2416.42" y1="1" x2="2416.42" y2="1422.79"/><line class="cls-1" x1="2398.63" y1="1" x2="2398.63" y2="1422.79"/><line class="cls-1" x1="2380.7" y1="1" x2="2380.7" y2="1422.79"/><line class="cls-1" x1="4755.38" y1="1.43" x2="4755.38" y2="1423.21"/><line class="cls-1" x1="4737.63" y1="1.43" x2="4737.63" y2="1423.21"/><line class="cls-1" x1="4719.65" y1="1.43" x2="4719.65" y2="1423.21"/><line class="cls-1" x1="4701.56" y1="1.43" x2="4701.56" y2="1423.21"/><line class="cls-1" x1="4683.59" y1="1.43" x2="4683.59" y2="1423.21"/><line class="cls-1" x1="4665.61" y1="1.43" x2="4665.61" y2="1423.21"/><line class="cls-1" x1="4647.64" y1="1.43" x2="4647.64" y2="1423.21"/><line class="cls-1" x1="4629.63" y1="1.74" x2="4629.63" y2="1423.53"/><line class="cls-1" x1="4611.69" y1="1.43" x2="4611.69" y2="1423.21"/><line class="cls-1" x1="4593.83" y1="1.43" x2="4593.83" y2="1423.21"/><line class="cls-1" x1="4575.45" y1="1.43" x2="4575.45" y2="1423.21"/><line class="cls-1" x1="4557.66" y1="1.43" x2="4557.66" y2="1423.21"/><line class="cls-1" x1="4539.73" y1="1.43" x2="4539.73" y2="1423.21"/><line class="cls-1" x1="4521.57" y1="1.85" x2="4521.57" y2="1423.64"/><line class="cls-1" x1="4503.36" y1="1.85" x2="4503.36" y2="1423.64"/><line class="cls-1" x1="4485.65" y1="1.85" x2="4485.65" y2="1423.64"/><line class="cls-1" x1="4467.45" y1="1.85" x2="4467.45" y2="1423.64"/><line class="cls-1" x1="4449.68" y1="1.43" x2="4449.68" y2="1423.21"/><line class="cls-1" x1="4431.95" y1="1.43" x2="4431.95" y2="1423.21"/><line class="cls-1" x1="4413.62" y1="1.43" x2="4413.62" y2="1423.21"/><line class="cls-1" x1="4395.3" y1="1.43" x2="4395.3" y2="1423.21"/><line class="cls-1" x1="4377.55" y1="1.43" x2="4377.55" y2="1423.21"/><line class="cls-1" x1="4359.57" y1="1.43" x2="4359.57" y2="1423.21"/><line class="cls-1" x1="4341.48" y1="1.43" x2="4341.48" y2="1423.21"/><line class="cls-1" x1="4323.51" y1="1.43" x2="4323.51" y2="1423.21"/><line class="cls-1" x1="4305.53" y1="1.43" x2="4305.53" y2="1423.21"/><line class="cls-1" x1="4287.56" y1="1.43" x2="4287.56" y2="1423.21"/><line class="cls-1" x1="4269.55" y1="1.74" x2="4269.55" y2="1423.53"/><line class="cls-1" x1="4251.61" y1="1.43" x2="4251.61" y2="1423.21"/><line class="cls-1" x1="4233.75" y1="1.43" x2="4233.75" y2="1423.21"/><line class="cls-1" x1="4215.37" y1="1.43" x2="4215.37" y2="1423.21"/><line class="cls-1" x1="4197.58" y1="1.43" x2="4197.58" y2="1423.21"/><line class="cls-1" x1="4179.65" y1="1.43" x2="4179.65" y2="1423.21"/><line class="cls-1" x1="4161.46" y1="1.85" x2="4161.46" y2="1423.64"/><line class="cls-1" x1="4143.26" y1="1.85" x2="4143.26" y2="1423.64"/><line class="cls-1" x1="4125.55" y1="1.85" x2="4125.55" y2="1423.64"/><line class="cls-1" x1="4107.34" y1="1.85" x2="4107.34" y2="1423.64"/><line class="cls-1" x1="4089.58" y1="1.43" x2="4089.58" y2="1423.21"/><line class="cls-1" x1="4071.84" y1="1.43" x2="4071.84" y2="1423.21"/><line class="cls-1" x1="4053.51" y1="1.43" x2="4053.51" y2="1423.21"/><line class="cls-1" x1="4035.2" y1="1.43" x2="4035.2" y2="1423.21"/><line class="cls-1" x1="4017.44" y1="1.43" x2="4017.44" y2="1423.21"/><line class="cls-1" x1="3999.47" y1="1.43" x2="3999.47" y2="1423.21"/><line class="cls-1" x1="3981.38" y1="1.43" x2="3981.38" y2="1423.21"/><line class="cls-1" x1="3963.4" y1="1.43" x2="3963.4" y2="1423.21"/><line class="cls-1" x1="3945.43" y1="1.43" x2="3945.43" y2="1423.21"/><line class="cls-1" x1="3927.45" y1="1.43" x2="3927.45" y2="1423.21"/><line class="cls-1" x1="3909.45" y1="1.74" x2="3909.45" y2="1423.53"/><line class="cls-1" x1="3891.5" y1="1.43" x2="3891.5" y2="1423.21"/><line class="cls-1" x1="3873.65" y1="1.43" x2="3873.65" y2="1423.21"/><line class="cls-1" x1="3855.27" y1="1.43" x2="3855.27" y2="1423.21"/><line class="cls-1" x1="3837.48" y1="1.43" x2="3837.48" y2="1423.21"/><line class="cls-1" x1="3819.54" y1="1.43" x2="3819.54" y2="1423.21"/><line class="cls-1" x1="2380.69" y1="1423.09" x2="4761.46" y2="1423.09"/><line class="cls-1" x1="2380.69" y1="1441.29" x2="4761.46" y2="1441.29"/><line class="cls-1" x1="2380.69" y1="1459" x2="4761.46" y2="1459"/><line class="cls-1" x1="2380.69" y1="1477.21" x2="4761.46" y2="1477.21"/><line class="cls-1" x1="2379.98" y1="1494.97" x2="4760.75" y2="1494.97"/><line class="cls-1" x1="2379.98" y1="1512.71" x2="4760.75" y2="1512.71"/><line class="cls-1" x1="2379.98" y1="1531.04" x2="4760.75" y2="1531.04"/><line class="cls-1" x1="2379.98" y1="1549.35" x2="4760.75" y2="1549.35"/><line class="cls-1" x1="2379.98" y1="1567.11" x2="4760.75" y2="1567.11"/><line class="cls-1" x1="2379.98" y1="1585.08" x2="4760.75" y2="1585.08"/><line class="cls-1" x1="2379.98" y1="1603.18" x2="4760.75" y2="1603.18"/><line class="cls-1" x1="2379.98" y1="1621.15" x2="4760.75" y2="1621.15"/><line class="cls-1" x1="2379.98" y1="1639.12" x2="4760.75" y2="1639.12"/><line class="cls-1" x1="2379.98" y1="1657.1" x2="4760.75" y2="1657.1"/><line class="cls-1" x1="2380.51" y1="1675.11" x2="4761.28" y2="1675.11"/><line class="cls-1" x1="2379.98" y1="1693.05" x2="4760.75" y2="1693.05"/><line class="cls-1" x1="2379.98" y1="1710.9" x2="4760.75" y2="1710.9"/><line class="cls-1" x1="2379.98" y1="1729.28" x2="4760.75" y2="1729.28"/><line class="cls-1" x1="2379.98" y1="1747.07" x2="4760.75" y2="1747.07"/><line class="cls-1" x1="2379.98" y1="1765.01" x2="4760.75" y2="1765.01"/><line class="cls-1" x1="2380.69" y1="1783.19" x2="4761.46" y2="1783.19"/><line class="cls-1" x1="2380.69" y1="1801.4" x2="4761.46" y2="1801.4"/><line class="cls-1" x1="2380.69" y1="1819.11" x2="4761.46" y2="1819.11"/><line class="cls-1" x1="2380.69" y1="1837.31" x2="4761.46" y2="1837.31"/><line class="cls-1" x1="2379.98" y1="1855.08" x2="4760.75" y2="1855.08"/><line class="cls-1" x1="2379.98" y1="1872.81" x2="4760.75" y2="1872.81"/><line class="cls-1" x1="2379.98" y1="1891.15" x2="4760.75" y2="1891.15"/><line class="cls-1" x1="2379.98" y1="1909.46" x2="4760.75" y2="1909.46"/><line class="cls-1" x1="2379.98" y1="1927.21" x2="4760.75" y2="1927.21"/><line class="cls-1" x1="2379.98" y1="1945.19" x2="4760.75" y2="1945.19"/><line class="cls-1" x1="2379.98" y1="1963.28" x2="4760.75" y2="1963.28"/><line class="cls-1" x1="2379.98" y1="1981.26" x2="4760.75" y2="1981.26"/><line class="cls-1" x1="2379.98" y1="1999.23" x2="4760.75" y2="1999.23"/><line class="cls-1" x1="2379.98" y1="2017.2" x2="4760.75" y2="2017.2"/><line class="cls-1" x1="2380.51" y1="2035.21" x2="4761.28" y2="2035.21"/><line class="cls-1" x1="2379.98" y1="2053.15" x2="4760.75" y2="2053.15"/><line class="cls-1" x1="2379.98" y1="2071.01" x2="4760.75" y2="2071.01"/><line class="cls-1" x1="2379.98" y1="2089.39" x2="4760.75" y2="2089.39"/><line class="cls-1" x1="2379.98" y1="2107.18" x2="4760.75" y2="2107.18"/><line class="cls-1" x1="2379.98" y1="2125.11" x2="4760.75" y2="2125.11"/><line class="cls-1" x1="2380.69" y1="2143.27" x2="4761.46" y2="2143.27"/><line class="cls-1" x1="2380.69" y1="2161.48" x2="4761.46" y2="2161.48"/><line class="cls-1" x1="2380.69" y1="2179.19" x2="4761.46" y2="2179.19"/><line class="cls-1" x1="2380.69" y1="2197.39" x2="4761.46" y2="2197.39"/><line class="cls-1" x1="2379.98" y1="2215.16" x2="4760.75" y2="2215.16"/><line class="cls-1" x1="2379.98" y1="2232.89" x2="4760.75" y2="2232.89"/><line class="cls-1" x1="2379.98" y1="2251.23" x2="4760.75" y2="2251.23"/><line class="cls-1" x1="2379.98" y1="2269.54" x2="4760.75" y2="2269.54"/><line class="cls-1" x1="2379.98" y1="2287.29" x2="4760.75" y2="2287.29"/><line class="cls-1" x1="2379.98" y1="2305.27" x2="4760.75" y2="2305.27"/><line class="cls-1" x1="2379.98" y1="2323.36" x2="4760.75" y2="2323.36"/><line class="cls-1" x1="2379.98" y1="2341.33" x2="4760.75" y2="2341.33"/><line class="cls-1" x1="2379.98" y1="2359.31" x2="4760.75" y2="2359.31"/><line class="cls-1" x1="2379.98" y1="2377.28" x2="4760.75" y2="2377.28"/><line class="cls-1" x1="2380.51" y1="2395.29" x2="4761.28" y2="2395.29"/><line class="cls-1" x1="2379.98" y1="2413.23" x2="4760.75" y2="2413.23"/><line class="cls-1" x1="2379.98" y1="2431.09" x2="4760.75" y2="2431.09"/><line class="cls-1" x1="2379.98" y1="2449.47" x2="4760.75" y2="2449.47"/><line class="cls-1" x1="2379.98" y1="2467.26" x2="4760.75" y2="2467.26"/><line class="cls-1" x1="2379.98" y1="2485.19" x2="4760.75" y2="2485.19"/><line class="cls-1" x1="2380.69" y1="2503.38" x2="4761.46" y2="2503.38"/><line class="cls-1" x1="2380.69" y1="2521.58" x2="4761.46" y2="2521.58"/><line class="cls-1" x1="2380.69" y1="2539.29" x2="4761.46" y2="2539.29"/><line class="cls-1" x1="2380.69" y1="2557.5" x2="4761.46" y2="2557.5"/><line class="cls-1" x1="2379.98" y1="2575.26" x2="4760.75" y2="2575.26"/><line class="cls-1" x1="2379.98" y1="2593" x2="4760.75" y2="2593"/><line class="cls-1" x1="2379.98" y1="2611.33" x2="4760.75" y2="2611.33"/><line class="cls-1" x1="2379.98" y1="2629.64" x2="4760.75" y2="2629.64"/><line class="cls-1" x1="2379.98" y1="2647.4" x2="4760.75" y2="2647.4"/><line class="cls-1" x1="2379.98" y1="2665.37" x2="4760.75" y2="2665.37"/><line class="cls-1" x1="2379.98" y1="2683.47" x2="4760.75" y2="2683.47"/><line class="cls-1" x1="2379.98" y1="2701.44" x2="4760.75" y2="2701.44"/><line class="cls-1" x1="2379.98" y1="2719.41" x2="4760.75" y2="2719.41"/><line class="cls-1" x1="2379.98" y1="2737.39" x2="4760.75" y2="2737.39"/><line class="cls-1" x1="2380.51" y1="2755.4" x2="4761.28" y2="2755.4"/><line class="cls-1" x1="2379.98" y1="2773.34" x2="4760.75" y2="2773.34"/><line class="cls-1" x1="2379.98" y1="2791.19" x2="4760.75" y2="2791.19"/><line class="cls-1" x1="2379.98" y1="2809.57" x2="4760.75" y2="2809.57"/><line class="cls-1" x1="2379.98" y1="2827.36" x2="4760.75" y2="2827.36"/><line class="cls-1" x1="2379.98" y1="2845.3" x2="4760.75" y2="2845.3"/><line class="cls-1" x1="3802.91" y1="1423.51" x2="3802.91" y2="2845.3"/><line class="cls-1" x1="3784.7" y1="1423.51" x2="3784.7" y2="2845.3"/><line class="cls-1" x1="3766.99" y1="1423.51" x2="3766.99" y2="2845.3"/><line class="cls-1" x1="3748.78" y1="1423.51" x2="3748.78" y2="2845.3"/><line class="cls-1" x1="3731.02" y1="1423.09" x2="3731.02" y2="2844.87"/><line class="cls-1" x1="3713.28" y1="1423.09" x2="3713.28" y2="2844.87"/><line class="cls-1" x1="3694.95" y1="1423.09" x2="3694.95" y2="2844.87"/><line class="cls-1" x1="3676.64" y1="1423.09" x2="3676.64" y2="2844.87"/><line class="cls-1" x1="3658.88" y1="1423.09" x2="3658.88" y2="2844.87"/><line class="cls-1" x1="3640.91" y1="1423.09" x2="3640.91" y2="2844.87"/><line class="cls-1" x1="3622.82" y1="1423.09" x2="3622.82" y2="2844.87"/><line class="cls-1" x1="3604.84" y1="1423.09" x2="3604.84" y2="2844.87"/><line class="cls-1" x1="3586.87" y1="1423.09" x2="3586.87" y2="2844.87"/><line class="cls-1" x1="3568.89" y1="1423.09" x2="3568.89" y2="2844.87"/><line class="cls-1" x1="3550.89" y1="1423.4" x2="3550.89" y2="2845.19"/><line class="cls-1" x1="3532.95" y1="1423.09" x2="3532.95" y2="2844.87"/><line class="cls-1" x1="3515.09" y1="1423.09" x2="3515.09" y2="2844.87"/><line class="cls-1" x1="3496.71" y1="1423.09" x2="3496.71" y2="2844.87"/><line class="cls-1" x1="3478.92" y1="1423.09" x2="3478.92" y2="2844.87"/><line class="cls-1" x1="3460.98" y1="1423.09" x2="3460.98" y2="2844.87"/><line class="cls-1" x1="3442.8" y1="1423.51" x2="3442.8" y2="2845.3"/><line class="cls-1" x1="3424.6" y1="1423.51" x2="3424.6" y2="2845.3"/><line class="cls-1" x1="3406.88" y1="1423.51" x2="3406.88" y2="2845.3"/><line class="cls-1" x1="3388.68" y1="1423.51" x2="3388.68" y2="2845.3"/><line class="cls-1" x1="3370.92" y1="1423.09" x2="3370.92" y2="2844.87"/><line class="cls-1" x1="3353.18" y1="1423.09" x2="3353.18" y2="2844.87"/><line class="cls-1" x1="3334.85" y1="1423.09" x2="3334.85" y2="2844.87"/><line class="cls-1" x1="3316.54" y1="1423.09" x2="3316.54" y2="2844.87"/><line class="cls-1" x1="3298.78" y1="1423.09" x2="3298.78" y2="2844.87"/><line class="cls-1" x1="3280.81" y1="1423.09" x2="3280.81" y2="2844.87"/><line class="cls-1" x1="3262.71" y1="1423.09" x2="3262.71" y2="2844.87"/><line class="cls-1" x1="3244.74" y1="1423.09" x2="3244.74" y2="2844.87"/><line class="cls-1" x1="3226.76" y1="1423.09" x2="3226.76" y2="2844.87"/><line class="cls-1" x1="3208.79" y1="1423.09" x2="3208.79" y2="2844.87"/><line class="cls-1" x1="3190.78" y1="1423.4" x2="3190.78" y2="2845.19"/><line class="cls-1" x1="3172.84" y1="1423.09" x2="3172.84" y2="2844.87"/><line class="cls-1" x1="3154.98" y1="1423.09" x2="3154.98" y2="2844.87"/><line class="cls-1" x1="3136.6" y1="1423.09" x2="3136.6" y2="2844.87"/><line class="cls-1" x1="3118.81" y1="1423.09" x2="3118.81" y2="2844.87"/><line class="cls-1" x1="3100.88" y1="1423.09" x2="3100.88" y2="2844.87"/><line class="cls-1" x1="3082.72" y1="1423.51" x2="3082.72" y2="2845.3"/><line class="cls-1" x1="3064.52" y1="1423.51" x2="3064.52" y2="2845.3"/><line class="cls-1" x1="3046.8" y1="1423.51" x2="3046.8" y2="2845.3"/><line class="cls-1" x1="3028.6" y1="1423.51" x2="3028.6" y2="2845.3"/><line class="cls-1" x1="3010.84" y1="1423.09" x2="3010.84" y2="2844.87"/><line class="cls-1" x1="2993.1" y1="1423.09" x2="2993.1" y2="2844.87"/><line class="cls-1" x1="2974.77" y1="1423.09" x2="2974.77" y2="2844.87"/><line class="cls-1" x1="2956.46" y1="1423.09" x2="2956.46" y2="2844.87"/><line class="cls-1" x1="2938.7" y1="1423.09" x2="2938.7" y2="2844.87"/><line class="cls-1" x1="2920.73" y1="1423.09" x2="2920.73" y2="2844.87"/><line class="cls-1" x1="2902.63" y1="1423.09" x2="2902.63" y2="2844.87"/><line class="cls-1" x1="2884.66" y1="1423.09" x2="2884.66" y2="2844.87"/><line class="cls-1" x1="2866.68" y1="1423.09" x2="2866.68" y2="2844.87"/><line class="cls-1" x1="2848.71" y1="1423.09" x2="2848.71" y2="2844.87"/><line class="cls-1" x1="2830.7" y1="1423.4" x2="2830.7" y2="2845.19"/><line class="cls-1" x1="2812.76" y1="1423.09" x2="2812.76" y2="2844.87"/><line class="cls-1" x1="2794.9" y1="1423.09" x2="2794.9" y2="2844.87"/><line class="cls-1" x1="2776.52" y1="1423.09" x2="2776.52" y2="2844.87"/><line class="cls-1" x1="2758.73" y1="1423.09" x2="2758.73" y2="2844.87"/><line class="cls-1" x1="2740.8" y1="1423.09" x2="2740.8" y2="2844.87"/><line class="cls-1" x1="2722.62" y1="1423.51" x2="2722.62" y2="2845.3"/><line class="cls-1" x1="2704.41" y1="1423.51" x2="2704.41" y2="2845.3"/><line class="cls-1" x1="2686.7" y1="1423.51" x2="2686.7" y2="2845.3"/><line class="cls-1" x1="2668.49" y1="1423.51" x2="2668.49" y2="2845.3"/><line class="cls-1" x1="2650.73" y1="1423.09" x2="2650.73" y2="2844.87"/><line class="cls-1" x1="2632.99" y1="1423.09" x2="2632.99" y2="2844.87"/><line class="cls-1" x1="2614.66" y1="1423.09" x2="2614.66" y2="2844.87"/><line class="cls-1" x1="2596.35" y1="1423.09" x2="2596.35" y2="2844.87"/><line class="cls-1" x1="2578.59" y1="1423.09" x2="2578.59" y2="2844.87"/><line class="cls-1" x1="2560.62" y1="1423.09" x2="2560.62" y2="2844.87"/><line class="cls-1" x1="2542.53" y1="1423.09" x2="2542.53" y2="2844.87"/><line class="cls-1" x1="2524.55" y1="1423.09" x2="2524.55" y2="2844.87"/><line class="cls-1" x1="2506.58" y1="1423.09" x2="2506.58" y2="2844.87"/><line class="cls-1" x1="2488.6" y1="1423.09" x2="2488.6" y2="2844.87"/><line class="cls-1" x1="2470.6" y1="1423.4" x2="2470.6" y2="2845.19"/><line class="cls-1" x1="2452.66" y1="1423.09" x2="2452.66" y2="2844.87"/><line class="cls-1" x1="2434.8" y1="1423.09" x2="2434.8" y2="2844.87"/><line class="cls-1" x1="2416.42" y1="1423.09" x2="2416.42" y2="2844.87"/><line class="cls-1" x1="2398.63" y1="1423.09" x2="2398.63" y2="2844.87"/><line class="cls-1" x1="2380.69" y1="1423.09" x2="2380.69" y2="2844.87"/><line class="cls-1" x1="4755.38" y1="1423.51" x2="4755.38" y2="2845.3"/><line class="cls-1" x1="4737.62" y1="1423.51" x2="4737.62" y2="2845.3"/><line class="cls-1" x1="4719.65" y1="1423.51" x2="4719.65" y2="2845.3"/><line class="cls-1" x1="4701.56" y1="1423.51" x2="4701.56" y2="2845.3"/><line class="cls-1" x1="4683.58" y1="1423.51" x2="4683.58" y2="2845.3"/><line class="cls-1" x1="4665.61" y1="1423.51" x2="4665.61" y2="2845.3"/><line class="cls-1" x1="4647.63" y1="1423.51" x2="4647.63" y2="2845.3"/><line class="cls-1" x1="4629.63" y1="1423.83" x2="4629.63" y2="2845.61"/><line class="cls-1" x1="4611.68" y1="1423.51" x2="4611.68" y2="2845.3"/><line class="cls-1" x1="4593.83" y1="1423.51" x2="4593.83" y2="2845.3"/><line class="cls-1" x1="4575.45" y1="1423.51" x2="4575.45" y2="2845.3"/><line class="cls-1" x1="4557.66" y1="1423.51" x2="4557.66" y2="2845.3"/><line class="cls-1" x1="4539.72" y1="1423.51" x2="4539.72" y2="2845.3"/><line class="cls-1" x1="4521.56" y1="1423.94" x2="4521.56" y2="2845.73"/><line class="cls-1" x1="4503.36" y1="1423.94" x2="4503.36" y2="2845.73"/><line class="cls-1" x1="4485.65" y1="1423.94" x2="4485.65" y2="2845.73"/><line class="cls-1" x1="4467.44" y1="1423.94" x2="4467.44" y2="2845.73"/><line class="cls-1" x1="4449.68" y1="1423.51" x2="4449.68" y2="2845.3"/><line class="cls-1" x1="4431.94" y1="1423.51" x2="4431.94" y2="2845.3"/><line class="cls-1" x1="4413.61" y1="1423.51" x2="4413.61" y2="2845.3"/><line class="cls-1" x1="4395.3" y1="1423.51" x2="4395.3" y2="2845.3"/><line class="cls-1" x1="4377.54" y1="1423.51" x2="4377.54" y2="2845.3"/><line class="cls-1" x1="4359.57" y1="1423.51" x2="4359.57" y2="2845.3"/><line class="cls-1" x1="4341.48" y1="1423.51" x2="4341.48" y2="2845.3"/><line class="cls-1" x1="4323.5" y1="1423.51" x2="4323.5" y2="2845.3"/><line class="cls-1" x1="4305.53" y1="1423.51" x2="4305.53" y2="2845.3"/><line class="cls-1" x1="4287.55" y1="1423.51" x2="4287.55" y2="2845.3"/><line class="cls-1" x1="4269.55" y1="1423.83" x2="4269.55" y2="2845.61"/><line class="cls-1" x1="4251.6" y1="1423.51" x2="4251.6" y2="2845.3"/><line class="cls-1" x1="4233.75" y1="1423.51" x2="4233.75" y2="2845.3"/><line class="cls-1" x1="4215.37" y1="1423.51" x2="4215.37" y2="2845.3"/><line class="cls-1" x1="4197.58" y1="1423.51" x2="4197.58" y2="2845.3"/><line class="cls-1" x1="4179.64" y1="1423.51" x2="4179.64" y2="2845.3"/><line class="cls-1" x1="4161.46" y1="1423.94" x2="4161.46" y2="2845.73"/><line class="cls-1" x1="4143.25" y1="1423.94" x2="4143.25" y2="2845.73"/><line class="cls-1" x1="4125.54" y1="1423.94" x2="4125.54" y2="2845.73"/><line class="cls-1" x1="4107.34" y1="1423.94" x2="4107.34" y2="2845.73"/><line class="cls-1" x1="4089.57" y1="1423.51" x2="4089.57" y2="2845.3"/><line class="cls-1" x1="4071.84" y1="1423.51" x2="4071.84" y2="2845.3"/><line class="cls-1" x1="4053.51" y1="1423.51" x2="4053.51" y2="2845.3"/><line class="cls-1" x1="4035.19" y1="1423.51" x2="4035.19" y2="2845.3"/><line class="cls-1" x1="4017.44" y1="1423.51" x2="4017.44" y2="2845.3"/><line class="cls-1" x1="3999.46" y1="1423.51" x2="3999.46" y2="2845.3"/><line class="cls-1" x1="3981.37" y1="1423.51" x2="3981.37" y2="2845.3"/><line class="cls-1" x1="3963.4" y1="1423.51" x2="3963.4" y2="2845.3"/><line class="cls-1" x1="3945.42" y1="1423.51" x2="3945.42" y2="2845.3"/><line class="cls-1" x1="3927.45" y1="1423.51" x2="3927.45" y2="2845.3"/><line class="cls-1" x1="3909.44" y1="1423.83" x2="3909.44" y2="2845.61"/><line class="cls-1" x1="3891.5" y1="1423.51" x2="3891.5" y2="2845.3"/><line class="cls-1" x1="3873.64" y1="1423.51" x2="3873.64" y2="2845.3"/><line class="cls-1" x1="3855.26" y1="1423.51" x2="3855.26" y2="2845.3"/><line class="cls-1" x1="3837.47" y1="1423.51" x2="3837.47" y2="2845.3"/><line class="cls-1" x1="3819.54" y1="1423.51" x2="3819.54" y2="2845.3"/><line class="cls-1" x1="2380.77" y1="2845.3" y2="2845.3"/><line class="cls-1" x1="2380.77" y1="2827.09" y2="2827.09"/><line class="cls-1" x1="2380.77" y1="2809.38" y2="2809.38"/><line class="cls-1" x1="2380.77" y1="2791.18" y2="2791.18"/><line class="cls-1" x1="2381.48" y1="2773.41" x2="0.71" y2="2773.41"/><line class="cls-1" x1="2381.48" y1="2755.68" x2="0.71" y2="2755.68"/><line class="cls-1" x1="2381.48" y1="2737.35" x2="0.71" y2="2737.35"/><line class="cls-1" x1="2381.48" y1="2719.03" x2="0.71" y2="2719.03"/><line class="cls-1" x1="2381.48" y1="2701.28" x2="0.71" y2="2701.28"/><line class="cls-1" x1="2381.48" y1="2683.3" x2="0.71" y2="2683.3"/><line class="cls-1" x1="2381.48" y1="2665.21" x2="0.71" y2="2665.21"/><line class="cls-1" x1="2381.48" y1="2647.24" x2="0.71" y2="2647.24"/><line class="cls-1" x1="2381.48" y1="2629.26" x2="0.71" y2="2629.26"/><line class="cls-1" x1="2381.48" y1="2611.29" x2="0.71" y2="2611.29"/><line class="cls-1" x1="2380.96" y1="2593.28" x2="0.19" y2="2593.28"/><line class="cls-1" x1="2381.48" y1="2575.34" x2="0.71" y2="2575.34"/><line class="cls-1" x1="2381.48" y1="2557.48" x2="0.71" y2="2557.48"/><line class="cls-1" x1="2381.48" y1="2539.1" x2="0.71" y2="2539.1"/><line class="cls-1" x1="2381.48" y1="2521.31" x2="0.71" y2="2521.31"/><line class="cls-1" x1="2381.48" y1="2503.38" x2="0.71" y2="2503.38"/><line class="cls-1" x1="2380.77" y1="2485.19" y2="2485.19"/><line class="cls-1" x1="2380.77" y1="2466.99" y2="2466.99"/><line class="cls-1" x1="2380.77" y1="2449.28" y2="2449.28"/><line class="cls-1" x1="2380.77" y1="2431.07" y2="2431.07"/><line class="cls-1" x1="2381.48" y1="2413.31" x2="0.71" y2="2413.31"/><line class="cls-1" x1="2381.48" y1="2395.57" x2="0.71" y2="2395.57"/><line class="cls-1" x1="2381.48" y1="2377.24" x2="0.71" y2="2377.24"/><line class="cls-1" x1="2381.48" y1="2358.93" x2="0.71" y2="2358.93"/><line class="cls-1" x1="2381.48" y1="2341.17" x2="0.71" y2="2341.17"/><line class="cls-1" x1="2381.48" y1="2323.2" x2="0.71" y2="2323.2"/><line class="cls-1" x1="2381.48" y1="2305.11" x2="0.71" y2="2305.11"/><line class="cls-1" x1="2381.48" y1="2287.13" x2="0.71" y2="2287.13"/><line class="cls-1" x1="2381.48" y1="2269.16" x2="0.71" y2="2269.16"/><line class="cls-1" x1="2381.48" y1="2251.18" x2="0.71" y2="2251.18"/><line class="cls-1" x1="2380.96" y1="2233.18" x2="0.19" y2="2233.18"/><line class="cls-1" x1="2381.48" y1="2215.23" x2="0.71" y2="2215.23"/><line class="cls-1" x1="2381.48" y1="2197.38" x2="0.71" y2="2197.38"/><line class="cls-1" x1="2381.48" y1="2179" x2="0.71" y2="2179"/><line class="cls-1" x1="2381.48" y1="2161.21" x2="0.71" y2="2161.21"/><line class="cls-1" x1="2381.48" y1="2143.27" x2="0.71" y2="2143.27"/><line class="cls-1" x1="2380.77" y1="2125.11" y2="2125.11"/><line class="cls-1" x1="2380.77" y1="2106.91" y2="2106.91"/><line class="cls-1" x1="2380.77" y1="2089.2" y2="2089.2"/><line class="cls-1" x1="2380.77" y1="2070.99" y2="2070.99"/><line class="cls-1" x1="2381.48" y1="2053.23" x2="0.71" y2="2053.23"/><line class="cls-1" x1="2381.48" y1="2035.49" x2="0.71" y2="2035.49"/><line class="cls-1" x1="2381.48" y1="2017.16" x2="0.71" y2="2017.16"/><line class="cls-1" x1="2381.48" y1="1998.85" x2="0.71" y2="1998.85"/><line class="cls-1" x1="2381.48" y1="1981.09" x2="0.71" y2="1981.09"/><line class="cls-1" x1="2381.48" y1="1963.12" x2="0.71" y2="1963.12"/><line class="cls-1" x1="2381.48" y1="1945.03" x2="0.71" y2="1945.03"/><line class="cls-1" x1="2381.48" y1="1927.05" x2="0.71" y2="1927.05"/><line class="cls-1" x1="2381.48" y1="1909.08" x2="0.71" y2="1909.08"/><line class="cls-1" x1="2381.48" y1="1891.1" x2="0.71" y2="1891.1"/><line class="cls-1" x1="2380.96" y1="1873.1" x2="0.19" y2="1873.1"/><line class="cls-1" x1="2381.48" y1="1855.15" x2="0.71" y2="1855.15"/><line class="cls-1" x1="2381.48" y1="1837.3" x2="0.71" y2="1837.3"/><line class="cls-1" x1="2381.48" y1="1818.92" x2="0.71" y2="1818.92"/><line class="cls-1" x1="2381.48" y1="1801.13" x2="0.71" y2="1801.13"/><line class="cls-1" x1="2381.48" y1="1783.19" x2="0.71" y2="1783.19"/><line class="cls-1" x1="2380.77" y1="1765.01" y2="1765.01"/><line class="cls-1" x1="2380.77" y1="1746.8" y2="1746.8"/><line class="cls-1" x1="2380.77" y1="1729.09" y2="1729.09"/><line class="cls-1" x1="2380.77" y1="1710.89" y2="1710.89"/><line class="cls-1" x1="2381.48" y1="1693.12" x2="0.71" y2="1693.12"/><line class="cls-1" x1="2381.48" y1="1675.39" x2="0.71" y2="1675.39"/><line class="cls-1" x1="2381.48" y1="1657.06" x2="0.71" y2="1657.06"/><line class="cls-1" x1="2381.48" y1="1638.74" x2="0.71" y2="1638.74"/><line class="cls-1" x1="2381.48" y1="1620.99" x2="0.71" y2="1620.99"/><line class="cls-1" x1="2381.48" y1="1603.01" x2="0.71" y2="1603.01"/><line class="cls-1" x1="2381.48" y1="1584.92" x2="0.71" y2="1584.92"/><line class="cls-1" x1="2381.48" y1="1566.95" x2="0.71" y2="1566.95"/><line class="cls-1" x1="2381.48" y1="1548.97" x2="0.71" y2="1548.97"/><line class="cls-1" x1="2381.48" y1="1531" x2="0.71" y2="1531"/><line class="cls-1" x1="2380.96" y1="1512.99" x2="0.19" y2="1512.99"/><line class="cls-1" x1="2381.48" y1="1495.05" x2="0.71" y2="1495.05"/><line class="cls-1" x1="2381.48" y1="1477.19" x2="0.71" y2="1477.19"/><line class="cls-1" x1="2381.48" y1="1458.81" x2="0.71" y2="1458.81"/><line class="cls-1" x1="2381.48" y1="1441.02" x2="0.71" y2="1441.02"/><line class="cls-1" x1="2381.48" y1="1423.09" x2="0.71" y2="1423.09"/><line class="cls-1" x1="958.56" y1="2844.87" x2="958.56" y2="1423.09"/><line class="cls-1" x1="976.76" y1="2844.87" x2="976.76" y2="1423.09"/><line class="cls-1" x1="994.47" y1="2844.87" x2="994.47" y2="1423.09"/><line class="cls-1" x1="1012.68" y1="2844.87" x2="1012.68" y2="1423.09"/><line class="cls-1" x1="1030.44" y1="2845.3" x2="1030.44" y2="1423.51"/><line class="cls-1" x1="1048.18" y1="2845.3" x2="1048.18" y2="1423.51"/><line class="cls-1" x1="1066.51" y1="2845.3" x2="1066.51" y2="1423.51"/><line class="cls-1" x1="1084.82" y1="2845.3" x2="1084.82" y2="1423.51"/><line class="cls-1" x1="1102.58" y1="2845.3" x2="1102.58" y2="1423.51"/><line class="cls-1" x1="1120.55" y1="2845.3" x2="1120.55" y2="1423.51"/><line class="cls-1" x1="1138.65" y1="2845.3" x2="1138.65" y2="1423.51"/><line class="cls-1" x1="1156.62" y1="2845.3" x2="1156.62" y2="1423.51"/><line class="cls-1" x1="1174.59" y1="2845.3" x2="1174.59" y2="1423.51"/><line class="cls-1" x1="1192.57" y1="2845.3" x2="1192.57" y2="1423.51"/><line class="cls-1" x1="1210.58" y1="2844.98" x2="1210.58" y2="1423.2"/><line class="cls-1" x1="1228.52" y1="2845.3" x2="1228.52" y2="1423.51"/><line class="cls-1" x1="1246.37" y1="2845.3" x2="1246.37" y2="1423.51"/><line class="cls-1" x1="1264.75" y1="2845.3" x2="1264.75" y2="1423.51"/><line class="cls-1" x1="1282.54" y1="2845.3" x2="1282.54" y2="1423.51"/><line class="cls-1" x1="1300.48" y1="2845.3" x2="1300.48" y2="1423.51"/><line class="cls-1" x1="1318.66" y1="2844.87" x2="1318.66" y2="1423.09"/><line class="cls-1" x1="1336.87" y1="2844.87" x2="1336.87" y2="1423.09"/><line class="cls-1" x1="1354.58" y1="2844.87" x2="1354.58" y2="1423.09"/><line class="cls-1" x1="1372.78" y1="2844.87" x2="1372.78" y2="1423.09"/><line class="cls-1" x1="1390.55" y1="2845.3" x2="1390.55" y2="1423.51"/><line class="cls-1" x1="1408.28" y1="2845.3" x2="1408.28" y2="1423.51"/><line class="cls-1" x1="1426.62" y1="2845.3" x2="1426.62" y2="1423.51"/><line class="cls-1" x1="1444.93" y1="2845.3" x2="1444.93" y2="1423.51"/><line class="cls-1" x1="1462.68" y1="2845.3" x2="1462.68" y2="1423.51"/><line class="cls-1" x1="1480.66" y1="2845.3" x2="1480.66" y2="1423.51"/><line class="cls-1" x1="1498.75" y1="2845.3" x2="1498.75" y2="1423.51"/><line class="cls-1" x1="1516.73" y1="2845.3" x2="1516.73" y2="1423.51"/><line class="cls-1" x1="1534.7" y1="2845.3" x2="1534.7" y2="1423.51"/><line class="cls-1" x1="1552.67" y1="2845.3" x2="1552.67" y2="1423.51"/><line class="cls-1" x1="1570.68" y1="2844.98" x2="1570.68" y2="1423.2"/><line class="cls-1" x1="1588.62" y1="2845.3" x2="1588.62" y2="1423.51"/><line class="cls-1" x1="1606.48" y1="2845.3" x2="1606.48" y2="1423.51"/><line class="cls-1" x1="1624.86" y1="2845.3" x2="1624.86" y2="1423.51"/><line class="cls-1" x1="1642.65" y1="2845.3" x2="1642.65" y2="1423.51"/><line class="cls-1" x1="1660.59" y1="2845.3" x2="1660.59" y2="1423.51"/><line class="cls-1" x1="1678.74" y1="2844.87" x2="1678.74" y2="1423.09"/><line class="cls-1" x1="1696.95" y1="2844.87" x2="1696.95" y2="1423.09"/><line class="cls-1" x1="1714.66" y1="2844.87" x2="1714.66" y2="1423.09"/><line class="cls-1" x1="1732.86" y1="2844.87" x2="1732.86" y2="1423.09"/><line class="cls-1" x1="1750.63" y1="2845.3" x2="1750.63" y2="1423.51"/><line class="cls-1" x1="1768.36" y1="2845.3" x2="1768.36" y2="1423.51"/><line class="cls-1" x1="1786.7" y1="2845.3" x2="1786.7" y2="1423.51"/><line class="cls-1" x1="1805.01" y1="2845.3" x2="1805.01" y2="1423.51"/><line class="cls-1" x1="1822.76" y1="2845.3" x2="1822.76" y2="1423.51"/><line class="cls-1" x1="1840.74" y1="2845.3" x2="1840.74" y2="1423.51"/><line class="cls-1" x1="1858.83" y1="2845.3" x2="1858.83" y2="1423.51"/><line class="cls-1" x1="1876.81" y1="2845.3" x2="1876.81" y2="1423.51"/><line class="cls-1" x1="1894.78" y1="2845.3" x2="1894.78" y2="1423.51"/><line class="cls-1" x1="1912.75" y1="2845.3" x2="1912.75" y2="1423.51"/><line class="cls-1" x1="1930.76" y1="2844.98" x2="1930.76" y2="1423.2"/><line class="cls-1" x1="1948.7" y1="2845.3" x2="1948.7" y2="1423.51"/><line class="cls-1" x1="1966.56" y1="2845.3" x2="1966.56" y2="1423.51"/><line class="cls-1" x1="1984.94" y1="2845.3" x2="1984.94" y2="1423.51"/><line class="cls-1" x1="2002.73" y1="2845.3" x2="2002.73" y2="1423.51"/><line class="cls-1" x1="2020.67" y1="2845.3" x2="2020.67" y2="1423.51"/><line class="cls-1" x1="2038.85" y1="2844.87" x2="2038.85" y2="1423.09"/><line class="cls-1" x1="2057.05" y1="2844.87" x2="2057.05" y2="1423.09"/><line class="cls-1" x1="2074.76" y1="2844.87" x2="2074.76" y2="1423.09"/><line class="cls-1" x1="2092.97" y1="2844.87" x2="2092.97" y2="1423.09"/><line class="cls-1" x1="2110.73" y1="2845.3" x2="2110.73" y2="1423.51"/><line class="cls-1" x1="2128.47" y1="2845.3" x2="2128.47" y2="1423.51"/><line class="cls-1" x1="2146.8" y1="2845.3" x2="2146.8" y2="1423.51"/><line class="cls-1" x1="2165.11" y1="2845.3" x2="2165.11" y2="1423.51"/><line class="cls-1" x1="2182.87" y1="2845.3" x2="2182.87" y2="1423.51"/><line class="cls-1" x1="2200.84" y1="2845.3" x2="2200.84" y2="1423.51"/><line class="cls-1" x1="2218.94" y1="2845.3" x2="2218.94" y2="1423.51"/><line class="cls-1" x1="2236.91" y1="2845.3" x2="2236.91" y2="1423.51"/><line class="cls-1" x1="2254.88" y1="2845.3" x2="2254.88" y2="1423.51"/><line class="cls-1" x1="2272.86" y1="2845.3" x2="2272.86" y2="1423.51"/><line class="cls-1" x1="2290.87" y1="2844.98" x2="2290.87" y2="1423.2"/><line class="cls-1" x1="2308.81" y1="2845.3" x2="2308.81" y2="1423.51"/><line class="cls-1" x1="2326.66" y1="2845.3" x2="2326.66" y2="1423.51"/><line class="cls-1" x1="2345.04" y1="2845.3" x2="2345.04" y2="1423.51"/><line class="cls-1" x1="2362.83" y1="2845.3" x2="2362.83" y2="1423.51"/><line class="cls-1" x1="2380.77" y1="2845.3" x2="2380.77" y2="1423.51"/><line class="cls-1" x1="6.08" y1="2844.87" x2="6.08" y2="1423.09"/><line class="cls-1" x1="23.84" y1="2844.87" x2="23.84" y2="1423.09"/><line class="cls-1" x1="41.81" y1="2844.87" x2="41.81" y2="1423.09"/><line class="cls-1" x1="59.91" y1="2844.87" x2="59.91" y2="1423.09"/><line class="cls-1" x1="77.88" y1="2844.87" x2="77.88" y2="1423.09"/><line class="cls-1" x1="95.86" y1="2844.87" x2="95.86" y2="1423.09"/><line class="cls-1" x1="113.83" y1="2844.87" x2="113.83" y2="1423.09"/><line class="cls-1" x1="131.84" y1="2844.56" x2="131.84" y2="1422.77"/><line class="cls-1" x1="149.78" y1="2844.87" x2="149.78" y2="1423.09"/><line class="cls-1" x1="167.64" y1="2844.87" x2="167.64" y2="1423.09"/><line class="cls-1" x1="186.02" y1="2844.87" x2="186.02" y2="1423.09"/><line class="cls-1" x1="203.81" y1="2844.87" x2="203.81" y2="1423.09"/><line class="cls-1" x1="221.74" y1="2844.87" x2="221.74" y2="1423.09"/><line class="cls-1" x1="239.9" y1="2844.45" x2="239.9" y2="1422.66"/><line class="cls-1" x1="258.1" y1="2844.45" x2="258.1" y2="1422.66"/><line class="cls-1" x1="275.82" y1="2844.45" x2="275.82" y2="1422.66"/><line class="cls-1" x1="294.02" y1="2844.45" x2="294.02" y2="1422.66"/><line class="cls-1" x1="311.78" y1="2844.87" x2="311.78" y2="1423.09"/><line class="cls-1" x1="329.52" y1="2844.87" x2="329.52" y2="1423.09"/><line class="cls-1" x1="347.85" y1="2844.87" x2="347.85" y2="1423.09"/><line class="cls-1" x1="366.16" y1="2844.87" x2="366.16" y2="1423.09"/><line class="cls-1" x1="383.92" y1="2844.87" x2="383.92" y2="1423.09"/><line class="cls-1" x1="401.89" y1="2844.87" x2="401.89" y2="1423.09"/><line class="cls-1" x1="419.99" y1="2844.87" x2="419.99" y2="1423.09"/><line class="cls-1" x1="437.96" y1="2844.87" x2="437.96" y2="1423.09"/><line class="cls-1" x1="455.94" y1="2844.87" x2="455.94" y2="1423.09"/><line class="cls-1" x1="473.91" y1="2844.87" x2="473.91" y2="1423.09"/><line class="cls-1" x1="491.92" y1="2844.56" x2="491.92" y2="1422.77"/><line class="cls-1" x1="509.86" y1="2844.87" x2="509.86" y2="1423.09"/><line class="cls-1" x1="527.71" y1="2844.87" x2="527.71" y2="1423.09"/><line class="cls-1" x1="546.1" y1="2844.87" x2="546.1" y2="1423.09"/><line class="cls-1" x1="563.89" y1="2844.87" x2="563.89" y2="1423.09"/><line class="cls-1" x1="581.82" y1="2844.87" x2="581.82" y2="1423.09"/><line class="cls-1" x1="600" y1="2844.45" x2="600" y2="1422.66"/><line class="cls-1" x1="618.21" y1="2844.45" x2="618.21" y2="1422.66"/><line class="cls-1" x1="635.92" y1="2844.45" x2="635.92" y2="1422.66"/><line class="cls-1" x1="654.13" y1="2844.45" x2="654.13" y2="1422.66"/><line class="cls-1" x1="671.89" y1="2844.87" x2="671.89" y2="1423.09"/><line class="cls-1" x1="689.63" y1="2844.87" x2="689.63" y2="1423.09"/><line class="cls-1" x1="707.96" y1="2844.87" x2="707.96" y2="1423.09"/><line class="cls-1" x1="726.27" y1="2844.87" x2="726.27" y2="1423.09"/><line class="cls-1" x1="744.03" y1="2844.87" x2="744.03" y2="1423.09"/><line class="cls-1" x1="762" y1="2844.87" x2="762" y2="1423.09"/><line class="cls-1" x1="780.09" y1="2844.87" x2="780.09" y2="1423.09"/><line class="cls-1" x1="798.07" y1="2844.87" x2="798.07" y2="1423.09"/><line class="cls-1" x1="816.04" y1="2844.87" x2="816.04" y2="1423.09"/><line class="cls-1" x1="834.02" y1="2844.87" x2="834.02" y2="1423.09"/><line class="cls-1" x1="852.02" y1="2844.56" x2="852.02" y2="1422.77"/><line class="cls-1" x1="869.96" y1="2844.87" x2="869.96" y2="1423.09"/><line class="cls-1" x1="887.82" y1="2844.87" x2="887.82" y2="1423.09"/><line class="cls-1" x1="906.2" y1="2844.87" x2="906.2" y2="1423.09"/><line class="cls-1" x1="923.99" y1="2844.87" x2="923.99" y2="1423.09"/><line class="cls-1" x1="941.93" y1="2844.87" x2="941.93" y2="1423.09"/><line class="cls-1" x1="2380.77" y1="1423.21" y2="1423.21"/><line class="cls-1" x1="2380.77" y1="1405.01" y2="1405.01"/><line class="cls-1" x1="2380.77" y1="1387.3" y2="1387.3"/><line class="cls-1" x1="2380.77" y1="1369.09" y2="1369.09"/><line class="cls-1" x1="2381.49" y1="1351.33" x2="0.72" y2="1351.33"/><line class="cls-1" x1="2381.49" y1="1333.59" x2="0.72" y2="1333.59"/><line class="cls-1" x1="2381.49" y1="1315.26" x2="0.72" y2="1315.26"/><line class="cls-1" x1="2381.49" y1="1296.95" x2="0.72" y2="1296.95"/><line class="cls-1" x1="2381.49" y1="1279.19" x2="0.72" y2="1279.19"/><line class="cls-1" x1="2381.49" y1="1261.22" x2="0.72" y2="1261.22"/><line class="cls-1" x1="2381.49" y1="1243.12" x2="0.72" y2="1243.12"/><line class="cls-1" x1="2381.49" y1="1225.15" x2="0.72" y2="1225.15"/><line class="cls-1" x1="2381.49" y1="1207.18" x2="0.72" y2="1207.18"/><line class="cls-1" x1="2381.49" y1="1189.2" x2="0.72" y2="1189.2"/><line class="cls-1" x1="2380.96" y1="1171.19" x2="0.19" y2="1171.19"/><line class="cls-1" x1="2381.49" y1="1153.25" x2="0.72" y2="1153.25"/><line class="cls-1" x1="2381.49" y1="1135.4" x2="0.72" y2="1135.4"/><line class="cls-1" x1="2381.49" y1="1117.02" x2="0.72" y2="1117.02"/><line class="cls-1" x1="2381.49" y1="1099.23" x2="0.72" y2="1099.23"/><line class="cls-1" x1="2381.49" y1="1081.29" x2="0.72" y2="1081.29"/><line class="cls-1" x1="2380.77" y1="1063.11" y2="1063.11"/><line class="cls-1" x1="2380.77" y1="1044.9" y2="1044.9"/><line class="cls-1" x1="2380.77" y1="1027.19" y2="1027.19"/><line class="cls-1" x1="2380.77" y1="1008.99" y2="1008.99"/><line class="cls-1" x1="2381.49" y1="991.22" x2="0.72" y2="991.22"/><line class="cls-1" x1="2381.49" y1="973.49" x2="0.72" y2="973.49"/><line class="cls-1" x1="2381.49" y1="955.15" x2="0.72" y2="955.15"/><line class="cls-1" x1="2381.49" y1="936.84" x2="0.72" y2="936.84"/><line class="cls-1" x1="2381.49" y1="919.09" x2="0.72" y2="919.09"/><line class="cls-1" x1="2381.49" y1="901.11" x2="0.72" y2="901.11"/><line class="cls-1" x1="2381.49" y1="883.02" x2="0.72" y2="883.02"/><line class="cls-1" x1="2381.49" y1="865.04" x2="0.72" y2="865.04"/><line class="cls-1" x1="2381.49" y1="847.07" x2="0.72" y2="847.07"/><line class="cls-1" x1="2381.49" y1="829.1" x2="0.72" y2="829.1"/><line class="cls-1" x1="2380.96" y1="811.09" x2="0.19" y2="811.09"/><line class="cls-1" x1="2381.49" y1="793.15" x2="0.72" y2="793.15"/><line class="cls-1" x1="2381.49" y1="775.29" x2="0.72" y2="775.29"/><line class="cls-1" x1="2381.49" y1="756.91" x2="0.72" y2="756.91"/><line class="cls-1" x1="2381.49" y1="739.12" x2="0.72" y2="739.12"/><line class="cls-1" x1="2381.49" y1="721.18" x2="0.72" y2="721.18"/><line class="cls-1" x1="2380.77" y1="703.03" y2="703.03"/><line class="cls-1" x1="2380.77" y1="684.82" y2="684.82"/><line class="cls-1" x1="2380.77" y1="667.11" y2="667.11"/><line class="cls-1" x1="2380.77" y1="648.91" y2="648.91"/><line class="cls-1" x1="2381.49" y1="631.14" x2="0.72" y2="631.14"/><line class="cls-1" x1="2381.49" y1="613.41" x2="0.72" y2="613.41"/><line class="cls-1" x1="2381.49" y1="595.07" x2="0.72" y2="595.07"/><line class="cls-1" x1="2381.49" y1="576.76" x2="0.72" y2="576.76"/><line class="cls-1" x1="2381.49" y1="559.01" x2="0.72" y2="559.01"/><line class="cls-1" x1="2381.49" y1="541.03" x2="0.72" y2="541.03"/><line class="cls-1" x1="2381.49" y1="522.94" x2="0.72" y2="522.94"/><line class="cls-1" x1="2381.49" y1="504.96" x2="0.72" y2="504.96"/><line class="cls-1" x1="2381.49" y1="486.99" x2="0.72" y2="486.99"/><line class="cls-1" x1="2381.49" y1="469.02" x2="0.72" y2="469.02"/><line class="cls-1" x1="2380.96" y1="451.01" x2="0.19" y2="451.01"/><line class="cls-1" x1="2381.49" y1="433.07" x2="0.72" y2="433.07"/><line class="cls-1" x1="2381.49" y1="415.21" x2="0.72" y2="415.21"/><line class="cls-1" x1="2381.49" y1="396.83" x2="0.72" y2="396.83"/><line class="cls-1" x1="2381.49" y1="379.04" x2="0.72" y2="379.04"/><line class="cls-1" x1="2381.49" y1="361.11" x2="0.72" y2="361.11"/><line class="cls-1" x1="2380.77" y1="342.92" y2="342.92"/><line class="cls-1" x1="2380.77" y1="324.72" y2="324.72"/><line class="cls-1" x1="2380.77" y1="307.01" y2="307.01"/><line class="cls-1" x1="2380.77" y1="288.8" y2="288.8"/><line class="cls-1" x1="2381.49" y1="271.04" x2="0.72" y2="271.04"/><line class="cls-1" x1="2381.49" y1="253.3" x2="0.72" y2="253.3"/><line class="cls-1" x1="2381.49" y1="234.97" x2="0.72" y2="234.97"/><line class="cls-1" x1="2381.49" y1="216.66" x2="0.72" y2="216.66"/><line class="cls-1" x1="2381.49" y1="198.9" x2="0.72" y2="198.9"/><line class="cls-1" x1="2381.49" y1="180.93" x2="0.72" y2="180.93"/><line class="cls-1" x1="2381.49" y1="162.83" x2="0.72" y2="162.83"/><line class="cls-1" x1="2381.49" y1="144.86" x2="0.72" y2="144.86"/><line class="cls-1" x1="2381.49" y1="126.89" x2="0.72" y2="126.89"/><line class="cls-1" x1="2381.49" y1="108.91" x2="0.72" y2="108.91"/><line class="cls-1" x1="2380.96" y1="90.9" x2="0.19" y2="90.9"/><line class="cls-1" x1="2381.49" y1="72.96" x2="0.72" y2="72.96"/><line class="cls-1" x1="2381.49" y1="55.11" x2="0.72" y2="55.11"/><line class="cls-1" x1="2381.49" y1="36.73" x2="0.72" y2="36.73"/><line class="cls-1" x1="2381.49" y1="18.94" x2="0.72" y2="18.94"/><line class="cls-1" x1="2381.49" y1="1" x2="0.72" y2="1"/><line class="cls-1" x1="958.56" y1="1422.79" x2="958.56" y2="1"/><line class="cls-1" x1="976.77" y1="1422.79" x2="976.77" y2="1"/><line class="cls-1" x1="994.48" y1="1422.79" x2="994.48" y2="1"/><line class="cls-1" x1="1012.68" y1="1422.79" x2="1012.68" y2="1"/><line class="cls-1" x1="1030.45" y1="1423.21" x2="1030.45" y2="1.43"/><line class="cls-1" x1="1048.18" y1="1423.21" x2="1048.18" y2="1.43"/><line class="cls-1" x1="1066.52" y1="1423.21" x2="1066.52" y2="1.43"/><line class="cls-1" x1="1084.83" y1="1423.21" x2="1084.83" y2="1.43"/><line class="cls-1" x1="1102.58" y1="1423.21" x2="1102.58" y2="1.43"/><line class="cls-1" x1="1120.56" y1="1423.21" x2="1120.56" y2="1.43"/><line class="cls-1" x1="1138.65" y1="1423.21" x2="1138.65" y2="1.43"/><line class="cls-1" x1="1156.63" y1="1423.21" x2="1156.63" y2="1.43"/><line class="cls-1" x1="1174.6" y1="1423.21" x2="1174.6" y2="1.43"/><line class="cls-1" x1="1192.57" y1="1423.21" x2="1192.57" y2="1.43"/><line class="cls-1" x1="1210.58" y1="1422.9" x2="1210.58" y2="1.11"/><line class="cls-1" x1="1228.52" y1="1423.21" x2="1228.52" y2="1.43"/><line class="cls-1" x1="1246.38" y1="1423.21" x2="1246.38" y2="1.43"/><line class="cls-1" x1="1264.76" y1="1423.21" x2="1264.76" y2="1.43"/><line class="cls-1" x1="1282.55" y1="1423.21" x2="1282.55" y2="1.43"/><line class="cls-1" x1="1300.49" y1="1423.21" x2="1300.49" y2="1.43"/><line class="cls-1" x1="1318.67" y1="1422.79" x2="1318.67" y2="1"/><line class="cls-1" x1="1336.87" y1="1422.79" x2="1336.87" y2="1"/><line class="cls-1" x1="1354.58" y1="1422.79" x2="1354.58" y2="1"/><line class="cls-1" x1="1372.79" y1="1422.79" x2="1372.79" y2="1"/><line class="cls-1" x1="1390.55" y1="1423.21" x2="1390.55" y2="1.43"/><line class="cls-1" x1="1408.29" y1="1423.21" x2="1408.29" y2="1.43"/><line class="cls-1" x1="1426.62" y1="1423.21" x2="1426.62" y2="1.43"/><line class="cls-1" x1="1444.93" y1="1423.21" x2="1444.93" y2="1.43"/><line class="cls-1" x1="1462.69" y1="1423.21" x2="1462.69" y2="1.43"/><line class="cls-1" x1="1480.66" y1="1423.21" x2="1480.66" y2="1.43"/><line class="cls-1" x1="1498.76" y1="1423.21" x2="1498.76" y2="1.43"/><line class="cls-1" x1="1516.73" y1="1423.21" x2="1516.73" y2="1.43"/><line class="cls-1" x1="1534.7" y1="1423.21" x2="1534.7" y2="1.43"/><line class="cls-1" x1="1552.68" y1="1423.21" x2="1552.68" y2="1.43"/><line class="cls-1" x1="1570.69" y1="1422.9" x2="1570.69" y2="1.11"/><line class="cls-1" x1="1588.63" y1="1423.21" x2="1588.63" y2="1.43"/><line class="cls-1" x1="1606.48" y1="1423.21" x2="1606.48" y2="1.43"/><line class="cls-1" x1="1624.86" y1="1423.21" x2="1624.86" y2="1.43"/><line class="cls-1" x1="1642.65" y1="1423.21" x2="1642.65" y2="1.43"/><line class="cls-1" x1="1660.59" y1="1423.21" x2="1660.59" y2="1.43"/><line class="cls-1" x1="1678.75" y1="1422.79" x2="1678.75" y2="1"/><line class="cls-1" x1="1696.95" y1="1422.79" x2="1696.95" y2="1"/><line class="cls-1" x1="1714.66" y1="1422.79" x2="1714.66" y2="1"/><line class="cls-1" x1="1732.87" y1="1422.79" x2="1732.87" y2="1"/><line class="cls-1" x1="1750.63" y1="1423.21" x2="1750.63" y2="1.43"/><line class="cls-1" x1="1768.37" y1="1423.21" x2="1768.37" y2="1.43"/><line class="cls-1" x1="1786.7" y1="1423.21" x2="1786.7" y2="1.43"/><line class="cls-1" x1="1805.01" y1="1423.21" x2="1805.01" y2="1.43"/><line class="cls-1" x1="1822.77" y1="1423.21" x2="1822.77" y2="1.43"/><line class="cls-1" x1="1840.74" y1="1423.21" x2="1840.74" y2="1.43"/><line class="cls-1" x1="1858.84" y1="1423.21" x2="1858.84" y2="1.43"/><line class="cls-1" x1="1876.81" y1="1423.21" x2="1876.81" y2="1.43"/><line class="cls-1" x1="1894.78" y1="1423.21" x2="1894.78" y2="1.43"/><line class="cls-1" x1="1912.76" y1="1423.21" x2="1912.76" y2="1.43"/><line class="cls-1" x1="1930.77" y1="1422.9" x2="1930.77" y2="1.11"/><line class="cls-1" x1="1948.71" y1="1423.21" x2="1948.71" y2="1.43"/><line class="cls-1" x1="1966.56" y1="1423.21" x2="1966.56" y2="1.43"/><line class="cls-1" x1="1984.94" y1="1423.21" x2="1984.94" y2="1.43"/><line class="cls-1" x1="2002.73" y1="1423.21" x2="2002.73" y2="1.43"/><line class="cls-1" x1="2020.67" y1="1423.21" x2="2020.67" y2="1.43"/><line class="cls-1" x1="2038.85" y1="1422.79" x2="2038.85" y2="1"/><line class="cls-1" x1="2057.06" y1="1422.79" x2="2057.06" y2="1"/><line class="cls-1" x1="2074.77" y1="1422.79" x2="2074.77" y2="1"/><line class="cls-1" x1="2092.97" y1="1422.79" x2="2092.97" y2="1"/><line class="cls-1" x1="2110.74" y1="1423.21" x2="2110.74" y2="1.43"/><line class="cls-1" x1="2128.47" y1="1423.21" x2="2128.47" y2="1.43"/><line class="cls-1" x1="2146.81" y1="1423.21" x2="2146.81" y2="1.43"/><line class="cls-1" x1="2165.12" y1="1423.21" x2="2165.12" y2="1.43"/><line class="cls-1" x1="2182.87" y1="1423.21" x2="2182.87" y2="1.43"/><line class="cls-1" x1="2200.85" y1="1423.21" x2="2200.85" y2="1.43"/><line class="cls-1" x1="2218.94" y1="1423.21" x2="2218.94" y2="1.43"/><line class="cls-1" x1="2236.92" y1="1423.21" x2="2236.92" y2="1.43"/><line class="cls-1" x1="2254.89" y1="1423.21" x2="2254.89" y2="1.43"/><line class="cls-1" x1="2272.86" y1="1423.21" x2="2272.86" y2="1.43"/><line class="cls-1" x1="2290.87" y1="1422.9" x2="2290.87" y2="1.11"/><line class="cls-1" x1="2308.81" y1="1423.21" x2="2308.81" y2="1.43"/><line class="cls-1" x1="2326.67" y1="1423.21" x2="2326.67" y2="1.43"/><line class="cls-1" x1="2345.05" y1="1423.21" x2="2345.05" y2="1.43"/><line class="cls-1" x1="2362.84" y1="1423.21" x2="2362.84" y2="1.43"/><line class="cls-1" x1="2380.78" y1="1423.21" x2="2380.78" y2="1.43"/><line class="cls-1" x1="6.09" y1="1422.79" x2="6.09" y2="1"/><line class="cls-1" x1="23.85" y1="1422.79" x2="23.85" y2="1"/><line class="cls-1" x1="41.82" y1="1422.79" x2="41.82" y2="1"/><line class="cls-1" x1="59.91" y1="1422.79" x2="59.91" y2="1"/><line class="cls-1" x1="77.89" y1="1422.79" x2="77.89" y2="1"/><line class="cls-1" x1="95.86" y1="1422.79" x2="95.86" y2="1"/><line class="cls-1" x1="113.84" y1="1422.79" x2="113.84" y2="1"/><line class="cls-1" x1="131.84" y1="1422.47" x2="131.84" y2="0.69"/><line class="cls-1" x1="149.78" y1="1422.79" x2="149.78" y2="1"/><line class="cls-1" x1="167.64" y1="1422.79" x2="167.64" y2="1"/><line class="cls-1" x1="186.02" y1="1422.79" x2="186.02" y2="1"/><line class="cls-1" x1="203.81" y1="1422.79" x2="203.81" y2="1"/><line class="cls-1" x1="221.75" y1="1422.79" x2="221.75" y2="1"/><line class="cls-1" x1="239.9" y1="1422.36" x2="239.9" y2="0.57"/><line class="cls-1" x1="258.11" y1="1422.36" x2="258.11" y2="0.57"/><line class="cls-1" x1="275.82" y1="1422.36" x2="275.82" y2="0.57"/><line class="cls-1" x1="294.03" y1="1422.36" x2="294.03" y2="0.57"/><line class="cls-1" x1="311.79" y1="1422.79" x2="311.79" y2="1"/><line class="cls-1" x1="329.53" y1="1422.79" x2="329.53" y2="1"/><line class="cls-1" x1="347.86" y1="1422.79" x2="347.86" y2="1"/><line class="cls-1" x1="366.17" y1="1422.79" x2="366.17" y2="1"/><line class="cls-1" x1="383.93" y1="1422.79" x2="383.93" y2="1"/><line class="cls-1" x1="401.9" y1="1422.79" x2="401.9" y2="1"/><line class="cls-1" x1="419.99" y1="1422.79" x2="419.99" y2="1"/><line class="cls-1" x1="437.97" y1="1422.79" x2="437.97" y2="1"/><line class="cls-1" x1="455.94" y1="1422.79" x2="455.94" y2="1"/><line class="cls-1" x1="473.92" y1="1422.79" x2="473.92" y2="1"/><line class="cls-1" x1="491.92" y1="1422.47" x2="491.92" y2="0.69"/><line class="cls-1" x1="509.86" y1="1422.79" x2="509.86" y2="1"/><line class="cls-1" x1="527.72" y1="1422.79" x2="527.72" y2="1"/><line class="cls-1" x1="546.1" y1="1422.79" x2="546.1" y2="1"/><line class="cls-1" x1="563.89" y1="1422.79" x2="563.89" y2="1"/><line class="cls-1" x1="581.83" y1="1422.79" x2="581.83" y2="1"/><line class="cls-1" x1="600.01" y1="1422.36" x2="600.01" y2="0.57"/><line class="cls-1" x1="618.21" y1="1422.36" x2="618.21" y2="0.57"/><line class="cls-1" x1="635.93" y1="1422.36" x2="635.93" y2="0.57"/><line class="cls-1" x1="654.13" y1="1422.36" x2="654.13" y2="0.57"/><line class="cls-1" x1="671.89" y1="1422.79" x2="671.89" y2="1"/><line class="cls-1" x1="689.63" y1="1422.79" x2="689.63" y2="1"/><line class="cls-1" x1="707.96" y1="1422.79" x2="707.96" y2="1"/><line class="cls-1" x1="726.27" y1="1422.79" x2="726.27" y2="1"/><line class="cls-1" x1="744.03" y1="1422.79" x2="744.03" y2="1"/><line class="cls-1" x1="762" y1="1422.79" x2="762" y2="1"/><line class="cls-1" x1="780.1" y1="1422.79" x2="780.1" y2="1"/><line class="cls-1" x1="798.07" y1="1422.79" x2="798.07" y2="1"/><line class="cls-1" x1="816.05" y1="1422.79" x2="816.05" y2="1"/><line class="cls-1" x1="834.02" y1="1422.79" x2="834.02" y2="1"/><line class="cls-1" x1="852.03" y1="1422.47" x2="852.03" y2="0.69"/><line class="cls-1" x1="869.97" y1="1422.79" x2="869.97" y2="1"/><line class="cls-1" x1="887.83" y1="1422.79" x2="887.83" y2="1"/><line class="cls-1" x1="906.21" y1="1422.79" x2="906.21" y2="1"/><line class="cls-1" x1="924" y1="1422.79" x2="924" y2="1"/><line class="cls-1" x1="941.93" y1="1422.79" x2="941.93" y2="1"/></g></g></svg>