<svg xmlns="http://www.w3.org/2000/svg" viewBox="0 0 2376.94 1423.21"><defs><style>.cls-1,.cls-2{fill:none;}.cls-1{stroke:#000;stroke-miterlimit:10;stroke-width:2px;}</style></defs><title>Asset 84</title><g id="Layer_2" data-name="Layer 2"><g id="Layer_1-2" data-name="Layer 1"><line class="cls-1" x1="1" y1="1422.32" x2="1" y2="0.54"/><line class="cls-1" x1="1.19" y1="18.21" x2="2376.22" y2="18.21"/><line class="cls-1" x1="1.19" y1="35.92" x2="2376.22" y2="35.92"/><line class="cls-1" x1="1.19" y1="54.12" x2="2376.22" y2="54.12"/><line class="cls-1" x1="0.47" y1="71.89" x2="2375.89" y2="71.89"/><line class="cls-1" x1="0.47" y1="89.62" x2="2375.87" y2="89.62"/><line class="cls-1" x1="0.47" y1="107.95" x2="2375.87" y2="107.95"/><line class="cls-1" x1="0.47" y1="126.27" x2="2375.87" y2="126.27"/><line class="cls-1" x1="0.47" y1="144.02" x2="2375.87" y2="144.02"/><line class="cls-1" x1="0.47" y1="162" x2="2375.87" y2="162"/><line class="cls-1" x1="0.47" y1="180.09" x2="2375.87" y2="180.09"/><line class="cls-1" x1="0.47" y1="198.06" x2="2375.87" y2="198.06"/><line class="cls-1" x1="0.47" y1="216.04" x2="2375.87" y2="216.04"/><line class="cls-1" x1="0.47" y1="234.01" x2="2375.87" y2="234.01"/><line class="cls-1" x1="1" y1="252.02" x2="2375.87" y2="252.02"/><line class="cls-1" x1="0.47" y1="269.96" x2="2375.87" y2="269.96"/><line class="cls-1" x1="0.47" y1="287.82" x2="2375.87" y2="287.82"/><line class="cls-1" x1="0.47" y1="306.2" x2="2375.87" y2="306.2"/><line class="cls-1" x1="0.47" y1="323.99" x2="2375.87" y2="323.99"/><line class="cls-1" x1="0.47" y1="341.92" x2="2375.87" y2="341.92"/><line class="cls-1" x1="1.19" y1="360.11" x2="2375.87" y2="360.11"/><line class="cls-1" x1="1.19" y1="378.31" x2="2375.87" y2="378.31"/><line class="cls-1" x1="1.19" y1="396.02" x2="2375.87" y2="396.02"/><line class="cls-1" x1="1.19" y1="414.23" x2="2375.87" y2="414.23"/><line class="cls-1" x1="0.47" y1="431.99" x2="2375.87" y2="431.99"/><line class="cls-1" x1="0.47" y1="449.73" x2="2375.87" y2="449.73"/><line class="cls-1" x1="0.47" y1="468.06" x2="2375.87" y2="468.06"/><line class="cls-1" x1="0.47" y1="486.37" x2="2375.87" y2="486.37"/><line class="cls-1" x1="0.47" y1="504.13" x2="2375.87" y2="504.13"/><line class="cls-1" x1="0.47" y1="522.1" x2="2375.87" y2="522.1"/><line class="cls-1" x1="0.47" y1="540.19" x2="2375.87" y2="540.19"/><line class="cls-1" x1="0.47" y1="558.17" x2="2375.87" y2="558.17"/><line class="cls-1" x1="0.47" y1="576.14" x2="2375.87" y2="576.14"/><line class="cls-1" x1="0.47" y1="594.12" x2="2375.87" y2="594.12"/><line class="cls-1" x1="1" y1="612.12" x2="2375.87" y2="612.12"/><line class="cls-1" x1="0.47" y1="630.07" x2="2375.87" y2="630.07"/><line class="cls-1" x1="0.47" y1="647.92" x2="2375.87" y2="647.92"/><line class="cls-1" x1="0.47" y1="666.3" x2="2375.87" y2="666.3"/><line class="cls-1" x1="0.47" y1="684.09" x2="2375.87" y2="684.09"/><line class="cls-1" x1="0.47" y1="702.03" x2="2375.87" y2="702.03"/><line class="cls-1" x1="1.19" y1="720.19" x2="2375.87" y2="720.19"/><line class="cls-1" x1="1.19" y1="738.39" x2="2375.87" y2="738.39"/><line class="cls-1" x1="1.19" y1="756.1" x2="2375.87" y2="756.1"/><line class="cls-1" x1="1.19" y1="774.31" x2="2375.87" y2="774.31"/><line class="cls-1" x1="0.47" y1="792.07" x2="2375.87" y2="792.07"/><line class="cls-1" x1="0.47" y1="809.81" x2="2375.87" y2="809.81"/><line class="cls-1" x1="0.47" y1="828.14" x2="2375.87" y2="828.14"/><line class="cls-1" x1="0.47" y1="846.45" x2="2375.87" y2="846.45"/><line class="cls-1" x1="0.47" y1="864.21" x2="2375.87" y2="864.21"/><line class="cls-1" x1="0.47" y1="882.18" x2="2375.87" y2="882.18"/><line class="cls-1" x1="0.47" y1="900.27" x2="2375.87" y2="900.27"/><line class="cls-1" x1="0.47" y1="918.25" x2="2375.87" y2="918.25"/><line class="cls-1" x1="0.47" y1="936.22" x2="2375.87" y2="936.22"/><line class="cls-1" x1="0.47" y1="954.2" x2="2375.87" y2="954.2"/><line class="cls-1" x1="1" y1="972.2" x2="2375.87" y2="972.2"/><line class="cls-1" x1="0.47" y1="990.15" x2="2374.81" y2="990.15"/><line class="cls-1" x1="0.47" y1="1008" x2="2375.87" y2="1008"/><line class="cls-1" x1="0.47" y1="1026.38" x2="2375.87" y2="1026.38"/><line class="cls-1" x1="0.47" y1="1044.17" x2="2375.87" y2="1044.17"/><line class="cls-1" x1="0.47" y1="1062.11" x2="2375.87" y2="1062.11"/><line class="cls-1" x1="1.19" y1="1080.29" x2="2374.81" y2="1080.29"/><line class="cls-1" x1="1.19" y1="1098.5" x2="2375.87" y2="1098.5"/><line class="cls-1" x1="1.19" y1="1116.21" x2="2375.87" y2="1116.21"/><line class="cls-1" x1="1.19" y1="1134.41" x2="2375.87" y2="1134.41"/><line class="cls-1" x1="0.47" y1="1152.18" x2="2375.87" y2="1152.18"/><line class="cls-1" x1="0.47" y1="1169.91" x2="2375.87" y2="1169.91"/><line class="cls-1" x1="0.47" y1="1188.24" x2="2375.87" y2="1188.24"/><line class="cls-1" x1="0.47" y1="1206.56" x2="2376.94" y2="1206.56"/><line class="cls-1" x1="0.47" y1="1224.31" x2="2375.87" y2="1224.31"/><line class="cls-1" x1="0.47" y1="1242.29" x2="2375.87" y2="1242.29"/><line class="cls-1" x1="0.47" y1="1260.38" x2="2375.87" y2="1260.38"/><line class="cls-1" x1="0.47" y1="1278.35" x2="2375.87" y2="1278.35"/><line class="cls-1" x1="0.47" y1="1296.33" x2="2375.87" y2="1296.33"/><line class="cls-1" x1="0.47" y1="1314.3" x2="2375.87" y2="1314.3"/><line class="cls-1" x1="1" y1="1332.31" x2="2375.87" y2="1332.31"/><line class="cls-1" x1="0.47" y1="1350.25" x2="2375.87" y2="1350.25"/><line class="cls-1" x1="0.47" y1="1368.11" x2="2375.87" y2="1368.11"/><line class="cls-1" x1="0.47" y1="1386.49" x2="2375.87" y2="1386.49"/><line class="cls-1" x1="0.47" y1="1404.28" x2="2375.87" y2="1404.28"/><line class="cls-1" x1="0.47" y1="1422.21" x2="2375.87" y2="1422.21"/><line class="cls-1" x1="1423.4" y1="0.43" x2="1423.4" y2="1422.21"/><line class="cls-1" x1="1405.2" y1="0.43" x2="1405.2" y2="1422.21"/><line class="cls-1" x1="1387.48" y1="0.43" x2="1387.48" y2="1422.21"/><line class="cls-1" x1="1369.28" y1="0.43" x2="1369.28" y2="1422.21"/><line class="cls-1" x1="1351.51" x2="1351.51" y2="1421.79"/><line class="cls-1" x1="1333.78" x2="1333.78" y2="1421.79"/><line class="cls-1" x1="1315.45" x2="1315.45" y2="1421.79"/><line class="cls-1" x1="1297.13" x2="1297.13" y2="1421.79"/><line class="cls-1" x1="1279.38" x2="1279.38" y2="1421.79"/><line class="cls-1" x1="1261.4" x2="1261.4" y2="1421.79"/><line class="cls-1" x1="1243.31" x2="1243.31" y2="1421.79"/><line class="cls-1" x1="1225.34" x2="1225.34" y2="1421.79"/><line class="cls-1" x1="1207.36" x2="1207.36" y2="1421.79"/><line class="cls-1" x1="1189.39" x2="1189.39" y2="1421.79"/><line class="cls-1" x1="1171.38" y1="0.32" x2="1171.38" y2="1422.1"/><line class="cls-1" x1="1153.44" x2="1153.44" y2="1421.79"/><line class="cls-1" x1="1135.58" x2="1135.58" y2="1421.79"/><line class="cls-1" x1="1117.2" x2="1117.2" y2="1421.79"/><line class="cls-1" x1="1099.41" x2="1099.41" y2="1421.79"/><line class="cls-1" x1="1081.48" x2="1081.48" y2="1421.79"/><line class="cls-1" x1="1063.3" y1="0.43" x2="1063.3" y2="1422.21"/><line class="cls-1" x1="1045.09" y1="0.43" x2="1045.09" y2="1422.21"/><line class="cls-1" x1="1027.38" y1="0.43" x2="1027.38" y2="1422.21"/><line class="cls-1" x1="1009.17" y1="0.43" x2="1009.17" y2="1422.21"/><line class="cls-1" x1="991.41" x2="991.41" y2="1421.79"/><line class="cls-1" x1="973.67" x2="973.67" y2="1421.79"/><line class="cls-1" x1="955.34" x2="955.34" y2="1421.79"/><line class="cls-1" x1="937.03" x2="937.03" y2="1421.79"/><line class="cls-1" x1="919.27" x2="919.27" y2="1421.79"/><line class="cls-1" x1="901.3" x2="901.3" y2="1421.79"/><line class="cls-1" x1="883.21" x2="883.21" y2="1421.79"/><line class="cls-1" x1="865.23" x2="865.23" y2="1421.79"/><line class="cls-1" x1="847.26" x2="847.26" y2="1421.79"/><line class="cls-1" x1="829.28" x2="829.28" y2="1421.79"/><line class="cls-1" x1="811.28" y1="0.32" x2="811.28" y2="1422.1"/><line class="cls-1" x1="793.33" x2="793.33" y2="1421.79"/><line class="cls-1" x1="775.48" x2="775.48" y2="1421.79"/><line class="cls-1" x1="757.1" x2="757.1" y2="1421.79"/><line class="cls-1" x1="739.31" x2="739.31" y2="1421.79"/><line class="cls-1" x1="721.37" x2="721.37" y2="1421.79"/><line class="cls-1" x1="703.22" y1="0.43" x2="703.22" y2="1422.21"/><line class="cls-1" x1="685.01" y1="0.43" x2="685.01" y2="1422.21"/><line class="cls-1" x1="667.3" y1="0.43" x2="667.3" y2="1422.21"/><line class="cls-1" x1="649.09" y1="0.43" x2="649.09" y2="1422.21"/><line class="cls-1" x1="631.33" x2="631.33" y2="1421.79"/><line class="cls-1" x1="613.59" x2="613.59" y2="1421.79"/><line class="cls-1" x1="595.26" x2="595.26" y2="1421.79"/><line class="cls-1" x1="576.95" x2="576.95" y2="1421.79"/><line class="cls-1" x1="559.19" x2="559.19" y2="1421.79"/><line class="cls-1" x1="541.22" x2="541.22" y2="1421.79"/><line class="cls-1" x1="523.13" x2="523.13" y2="1421.79"/><line class="cls-1" x1="505.15" x2="505.15" y2="1421.79"/><line class="cls-1" x1="487.18" x2="487.18" y2="1421.79"/><line class="cls-1" x1="469.2" x2="469.2" y2="1421.79"/><line class="cls-1" x1="451.2" y1="0.32" x2="451.2" y2="1422.1"/><line class="cls-1" x1="433.25" x2="433.25" y2="1421.79"/><line class="cls-1" x1="415.4" x2="415.4" y2="1421.79"/><line class="cls-1" x1="397.02" x2="397.02" y2="1421.79"/><line class="cls-1" x1="379.23" x2="379.23" y2="1421.79"/><line class="cls-1" x1="361.29" x2="361.29" y2="1421.79"/><line class="cls-1" x1="343.11" y1="0.43" x2="343.11" y2="1422.21"/><line class="cls-1" x1="324.91" y1="0.43" x2="324.91" y2="1422.21"/><line class="cls-1" x1="307.19" y1="0.43" x2="307.19" y2="1422.21"/><line class="cls-1" x1="288.99" y1="0.43" x2="288.99" y2="1422.21"/><line class="cls-1" x1="271.22" x2="271.22" y2="1421.79"/><line class="cls-1" x1="253.49" x2="253.49" y2="1421.79"/><line class="cls-1" x1="235.16" x2="235.16" y2="1421.79"/><line class="cls-1" x1="216.84" x2="216.84" y2="1421.79"/><line class="cls-1" x1="199.09" x2="199.09" y2="1421.79"/><line class="cls-1" x1="181.11" x2="181.11" y2="1421.79"/><line class="cls-1" x1="163.02" x2="163.02" y2="1421.79"/><line class="cls-1" x1="145.05" x2="145.05" y2="1421.79"/><line class="cls-1" x1="127.07" x2="127.07" y2="1421.79"/><line class="cls-1" x1="109.1" x2="109.1" y2="1421.79"/><line class="cls-1" x1="91.09" y1="0.32" x2="91.09" y2="1422.1"/><line class="cls-1" x1="73.15" x2="73.15" y2="1421.79"/><line class="cls-1" x1="55.29" x2="55.29" y2="1421.79"/><line class="cls-1" x1="36.91" x2="36.91" y2="1421.79"/><line class="cls-1" x1="19.12" x2="19.12" y2="1421.79"/><line class="cls-2" x1="1.19" x2="1.19" y2="1421.79"/><line class="cls-1" x1="2358.12" y1="0.43" x2="2358.12" y2="1422.21"/><line class="cls-1" x1="2340.14" y1="0.43" x2="2340.14" y2="1422.21"/><line class="cls-1" x1="2322.05" y1="0.43" x2="2322.05" y2="1422.21"/><line class="cls-1" x1="2304.07" y1="0.43" x2="2304.07" y2="1422.21"/><line class="cls-1" x1="2286.1" y1="0.43" x2="2286.1" y2="1422.21"/><line class="cls-1" x1="2268.13" y1="0.43" x2="2268.13" y2="1422.21"/><line class="cls-1" x1="2250.12" y1="0.74" x2="2250.12" y2="1422.53"/><line class="cls-1" x1="2232.18" y1="0.43" x2="2232.18" y2="1422.21"/><line class="cls-1" x1="2214.32" y1="0.43" x2="2214.32" y2="1422.21"/><line class="cls-1" x1="2195.94" y1="0.43" x2="2195.94" y2="1422.21"/><line class="cls-1" x1="2178.15" y1="0.43" x2="2178.15" y2="1422.21"/><line class="cls-1" x1="2160.22" y1="0.43" x2="2160.22" y2="1422.21"/><line class="cls-1" x1="2142.06" y1="0.85" x2="2142.06" y2="1422.64"/><line class="cls-1" x1="2123.85" y1="0.85" x2="2123.85" y2="1422.64"/><line class="cls-1" x1="2106.14" y1="0.85" x2="2106.14" y2="1422.64"/><line class="cls-1" x1="2087.94" y1="0.85" x2="2087.94" y2="1422.64"/><line class="cls-1" x1="2070.17" y1="0.43" x2="2070.17" y2="1422.21"/><line class="cls-1" x1="2052.44" y1="0.43" x2="2052.44" y2="1422.21"/><line class="cls-1" x1="2034.11" y1="0.43" x2="2034.11" y2="1422.21"/><line class="cls-1" x1="2015.79" y1="0.43" x2="2015.79" y2="1422.21"/><line class="cls-1" x1="1998.04" y1="0.43" x2="1998.04" y2="1422.21"/><line class="cls-1" x1="1980.06" y1="0.43" x2="1980.06" y2="1422.21"/><line class="cls-1" x1="1961.97" y1="0.43" x2="1961.97" y2="1422.21"/><line class="cls-1" x1="1944" y1="0.43" x2="1944" y2="1422.21"/><line class="cls-1" x1="1926.02" y1="0.43" x2="1926.02" y2="1422.21"/><line class="cls-1" x1="1908.05" y1="0.43" x2="1908.05" y2="1422.21"/><line class="cls-1" x1="1890.04" y1="0.74" x2="1890.04" y2="1422.53"/><line class="cls-1" x1="1872.1" y1="0.43" x2="1872.1" y2="1422.21"/><line class="cls-1" x1="1854.24" y1="0.43" x2="1854.24" y2="1422.21"/><line class="cls-1" x1="1835.86" y1="0.43" x2="1835.86" y2="1422.21"/><line class="cls-1" x1="1818.07" y1="0.43" x2="1818.07" y2="1422.21"/><line class="cls-1" x1="1800.14" y1="0.43" x2="1800.14" y2="1422.21"/><line class="cls-1" x1="1781.95" y1="0.85" x2="1781.95" y2="1422.64"/><line class="cls-1" x1="1763.75" y1="0.85" x2="1763.75" y2="1422.64"/><line class="cls-1" x1="1746.04" y1="0.85" x2="1746.04" y2="1422.64"/><line class="cls-1" x1="1727.83" y1="0.85" x2="1727.83" y2="1422.64"/><line class="cls-1" x1="1710.07" y1="0.43" x2="1710.07" y2="1422.21"/><line class="cls-1" x1="1692.33" y1="0.43" x2="1692.33" y2="1422.21"/><line class="cls-1" x1="1674" y1="0.43" x2="1674" y2="1422.21"/><line class="cls-1" x1="1655.69" y1="0.43" x2="1655.69" y2="1422.21"/><line class="cls-1" x1="1637.93" y1="0.43" x2="1637.93" y2="1422.21"/><line class="cls-1" x1="1619.96" y1="0.43" x2="1619.96" y2="1422.21"/><line class="cls-1" x1="1601.86" y1="0.43" x2="1601.86" y2="1422.21"/><line class="cls-1" x1="1583.89" y1="0.43" x2="1583.89" y2="1422.21"/><line class="cls-1" x1="1565.92" y1="0.43" x2="1565.92" y2="1422.21"/><line class="cls-1" x1="1547.94" y1="0.43" x2="1547.94" y2="1422.21"/><line class="cls-1" x1="1529.93" y1="0.74" x2="1529.93" y2="1422.53"/><line class="cls-1" x1="1511.99" y1="0.43" x2="1511.99" y2="1422.21"/><line class="cls-1" x1="1494.14" y1="0.43" x2="1494.14" y2="1422.21"/><line class="cls-1" x1="1475.76" y1="0.43" x2="1475.76" y2="1422.21"/><line class="cls-1" x1="1457.97" y1="0.43" x2="1457.97" y2="1422.21"/><line class="cls-1" x1="1440.03" y1="0.43" x2="1440.03" y2="1422.21"/><line class="cls-2" x1="0.49" x2="2375.87" y2="0.43"/></g></g></svg>