<svg xmlns="http://www.w3.org/2000/svg" viewBox="0 0 2378.5 1425.46"><defs><style>.cls-1,.cls-2{fill:none;}.cls-1{stroke:#000;stroke-miterlimit:10;stroke-width:2px;}</style></defs><title>Asset 89</title><g id="Layer_2" data-name="Layer 2"><g id="Layer_1-2" data-name="Layer 1"><line class="cls-1" x1="1" y1="1424.56" x2="1" y2="0.54"/><line class="cls-1" x1="1.19" y1="20.45" x2="2377.78" y2="20.45"/><line class="cls-1" x1="1.19" y1="38.16" x2="2377.78" y2="38.16"/><line class="cls-1" x1="1.19" y1="56.36" x2="2377.78" y2="56.36"/><line class="cls-1" x1="0.47" y1="74.13" x2="2377.45" y2="74.13"/><line class="cls-1" x1="0.47" y1="91.86" x2="2377.43" y2="91.86"/><line class="cls-1" x1="0.47" y1="110.2" x2="2377.43" y2="110.2"/><line class="cls-1" x1="0.47" y1="128.51" x2="2377.43" y2="128.51"/><line class="cls-1" x1="0.47" y1="146.26" x2="2377.43" y2="146.26"/><line class="cls-1" x1="0.47" y1="164.24" x2="2377.43" y2="164.24"/><line class="cls-1" x1="0.47" y1="182.33" x2="2377.43" y2="182.33"/><line class="cls-1" x1="0.47" y1="200.31" x2="2377.43" y2="200.31"/><line class="cls-1" x1="0.47" y1="218.28" x2="2377.43" y2="218.28"/><line class="cls-1" x1="0.47" y1="236.25" x2="2377.43" y2="236.25"/><line class="cls-1" x1="1" y1="254.26" x2="2377.43" y2="254.26"/><line class="cls-1" x1="0.47" y1="272.2" x2="2377.43" y2="272.2"/><line class="cls-1" x1="0.47" y1="290.06" x2="2377.43" y2="290.06"/><line class="cls-1" x1="0.47" y1="308.44" x2="2377.43" y2="308.44"/><line class="cls-1" x1="0.47" y1="326.23" x2="2377.43" y2="326.23"/><line class="cls-1" x1="0.47" y1="344.17" x2="2377.43" y2="344.16"/><line class="cls-1" x1="1.19" y1="362.35" x2="2377.43" y2="362.35"/><line class="cls-1" x1="1.19" y1="380.55" x2="2377.43" y2="380.55"/><line class="cls-1" x1="1.19" y1="398.26" x2="2377.43" y2="398.26"/><line class="cls-1" x1="1.19" y1="416.47" x2="2377.43" y2="416.47"/><line class="cls-1" x1="0.47" y1="434.23" x2="2377.43" y2="434.23"/><line class="cls-1" x1="0.47" y1="451.97" x2="2377.43" y2="451.97"/><line class="cls-1" x1="0.47" y1="470.3" x2="2377.43" y2="470.3"/><line class="cls-1" x1="0.47" y1="488.61" x2="2377.43" y2="488.61"/><line class="cls-1" x1="0.47" y1="506.37" x2="2377.43" y2="506.37"/><line class="cls-1" x1="0.47" y1="524.34" x2="2377.43" y2="524.34"/><line class="cls-1" x1="0.47" y1="542.44" x2="2377.43" y2="542.44"/><line class="cls-1" x1="0.47" y1="560.41" x2="2377.43" y2="560.41"/><line class="cls-1" x1="0.47" y1="578.39" x2="2377.43" y2="578.38"/><line class="cls-1" x1="0.47" y1="596.36" x2="2377.43" y2="596.36"/><line class="cls-1" x1="1" y1="614.37" x2="2377.43" y2="614.37"/><line class="cls-1" x1="0.47" y1="632.31" x2="2377.43" y2="632.31"/><line class="cls-1" x1="0.47" y1="650.16" x2="2377.43" y2="650.16"/><line class="cls-1" x1="0.47" y1="668.54" x2="2377.43" y2="668.54"/><line class="cls-1" x1="0.47" y1="686.33" x2="2377.43" y2="686.33"/><line class="cls-1" x1="0.47" y1="704.27" x2="2377.43" y2="704.27"/><line class="cls-1" x1="1.19" y1="722.43" x2="2377.43" y2="722.43"/><line class="cls-1" x1="1.19" y1="740.63" x2="2377.43" y2="740.63"/><line class="cls-1" x1="1.19" y1="758.34" x2="2377.43" y2="758.34"/><line class="cls-1" x1="1.19" y1="776.55" x2="2377.43" y2="776.55"/><line class="cls-1" x1="0.47" y1="794.31" x2="2377.43" y2="794.31"/><line class="cls-1" x1="0.47" y1="812.05" x2="2377.43" y2="812.05"/><line class="cls-1" x1="0.47" y1="830.38" x2="2377.43" y2="830.38"/><line class="cls-1" x1="0.47" y1="848.69" x2="2377.43" y2="848.69"/><line class="cls-1" x1="0.47" y1="866.45" x2="2377.43" y2="866.45"/><line class="cls-1" x1="0.47" y1="884.42" x2="2377.43" y2="884.42"/><line class="cls-1" x1="0.47" y1="902.52" x2="2377.43" y2="902.52"/><line class="cls-1" x1="0.47" y1="920.49" x2="2377.43" y2="920.49"/><line class="cls-1" x1="0.47" y1="938.46" x2="2377.43" y2="938.46"/><line class="cls-1" x1="0.47" y1="956.44" x2="2377.43" y2="956.44"/><line class="cls-1" x1="1" y1="974.45" x2="2377.43" y2="974.45"/><line class="cls-1" x1="0.47" y1="992.39" x2="2376.37" y2="992.39"/><line class="cls-1" x1="0.47" y1="1010.24" x2="2377.43" y2="1010.24"/><line class="cls-1" x1="0.47" y1="1028.62" x2="2377.43" y2="1028.62"/><line class="cls-1" x1="0.47" y1="1046.41" x2="2377.43" y2="1046.41"/><line class="cls-1" x1="0.47" y1="1064.35" x2="2377.43" y2="1064.35"/><line class="cls-1" x1="1.19" y1="1082.53" x2="2376.37" y2="1082.53"/><line class="cls-1" x1="1.19" y1="1100.74" x2="2377.43" y2="1100.74"/><line class="cls-1" x1="1.19" y1="1118.45" x2="2377.43" y2="1118.45"/><line class="cls-1" x1="1.19" y1="1136.65" x2="2377.43" y2="1136.65"/><line class="cls-1" x1="0.47" y1="1154.42" x2="2377.43" y2="1154.42"/><line class="cls-1" x1="0.47" y1="1172.15" x2="2377.43" y2="1172.15"/><line class="cls-1" x1="0.47" y1="1190.49" x2="2377.43" y2="1190.49"/><line class="cls-1" x1="0.47" y1="1208.8" x2="2378.5" y2="1208.8"/><line class="cls-1" x1="0.47" y1="1226.55" x2="2377.43" y2="1226.55"/><line class="cls-1" x1="0.47" y1="1244.53" x2="2377.43" y2="1244.53"/><line class="cls-1" x1="0.47" y1="1262.62" x2="2377.43" y2="1262.62"/><line class="cls-1" x1="0.47" y1="1280.6" x2="2377.43" y2="1280.59"/><line class="cls-1" x1="0.47" y1="1298.57" x2="2377.43" y2="1298.57"/><line class="cls-1" x1="0.47" y1="1316.54" x2="2377.43" y2="1316.54"/><line class="cls-1" x1="1" y1="1334.55" x2="2377.43" y2="1334.55"/><line class="cls-1" x1="0.47" y1="1352.49" x2="2377.43" y2="1352.49"/><line class="cls-1" x1="0.47" y1="1370.35" x2="2377.43" y2="1370.35"/><line class="cls-1" x1="0.47" y1="1388.73" x2="2377.43" y2="1388.73"/><line class="cls-1" x1="0.47" y1="1406.52" x2="2377.43" y2="1406.52"/><line class="cls-1" x1="0.47" y1="1424.46" x2="2377.43" y2="1424.45"/><line class="cls-1" x1="1423.4" y1="0.43" x2="1423.4" y2="1424.45"/><line class="cls-1" x1="1405.2" y1="0.43" x2="1405.2" y2="1424.45"/><line class="cls-1" x1="1387.48" y1="0.43" x2="1387.48" y2="1424.45"/><line class="cls-1" x1="1369.28" y1="0.43" x2="1369.28" y2="1424.45"/><line class="cls-1" x1="1351.51" x2="1351.51" y2="1424.03"/><line class="cls-1" x1="1333.78" x2="1333.78" y2="1424.03"/><line class="cls-1" x1="1315.45" x2="1315.45" y2="1424.03"/><line class="cls-1" x1="1297.13" x2="1297.13" y2="1424.03"/><line class="cls-1" x1="1279.38" x2="1279.38" y2="1424.03"/><line class="cls-1" x1="1261.4" x2="1261.4" y2="1424.03"/><line class="cls-1" x1="1243.31" x2="1243.31" y2="1424.03"/><line class="cls-1" x1="1225.34" x2="1225.34" y2="1424.03"/><line class="cls-1" x1="1207.36" x2="1207.36" y2="1424.03"/><line class="cls-1" x1="1189.39" x2="1189.39" y2="1424.03"/><line class="cls-1" x1="1171.38" y1="0.32" x2="1171.38" y2="1424.34"/><line class="cls-1" x1="1153.44" x2="1153.44" y2="1424.03"/><line class="cls-1" x1="1135.58" x2="1135.58" y2="1424.03"/><line class="cls-1" x1="1117.2" x2="1117.2" y2="1424.03"/><line class="cls-1" x1="1099.41" x2="1099.41" y2="1424.03"/><line class="cls-1" x1="1081.48" x2="1081.48" y2="1424.03"/><line class="cls-1" x1="1063.3" y1="0.43" x2="1063.3" y2="1424.45"/><line class="cls-1" x1="1045.09" y1="0.43" x2="1045.09" y2="1424.45"/><line class="cls-1" x1="1027.38" y1="0.43" x2="1027.38" y2="1424.45"/><line class="cls-1" x1="1009.17" y1="0.43" x2="1009.17" y2="1424.45"/><line class="cls-1" x1="991.41" x2="991.41" y2="1424.03"/><line class="cls-1" x1="973.67" x2="973.67" y2="1424.03"/><line class="cls-1" x1="955.34" x2="955.34" y2="1424.03"/><line class="cls-1" x1="937.03" x2="937.03" y2="1424.03"/><line class="cls-1" x1="919.27" x2="919.27" y2="1424.03"/><line class="cls-1" x1="901.3" x2="901.3" y2="1424.03"/><line class="cls-1" x1="883.21" x2="883.21" y2="1424.03"/><line class="cls-1" x1="865.23" x2="865.23" y2="1424.03"/><line class="cls-1" x1="847.26" x2="847.26" y2="1424.03"/><line class="cls-1" x1="829.28" x2="829.28" y2="1424.03"/><line class="cls-1" x1="811.28" y1="0.32" x2="811.28" y2="1424.34"/><line class="cls-1" x1="793.33" x2="793.33" y2="1424.03"/><line class="cls-1" x1="775.48" x2="775.48" y2="1424.03"/><line class="cls-1" x1="757.1" x2="757.1" y2="1424.03"/><line class="cls-1" x1="739.31" x2="739.31" y2="1424.03"/><line class="cls-1" x1="721.37" x2="721.37" y2="1424.03"/><line class="cls-1" x1="703.22" y1="0.43" x2="703.22" y2="1424.45"/><line class="cls-1" x1="685.01" y1="0.43" x2="685.01" y2="1424.45"/><line class="cls-1" x1="667.3" y1="0.43" x2="667.3" y2="1424.45"/><line class="cls-1" x1="649.09" y1="0.43" x2="649.09" y2="1424.45"/><line class="cls-1" x1="631.33" x2="631.33" y2="1424.03"/><line class="cls-1" x1="613.59" x2="613.59" y2="1424.03"/><line class="cls-1" x1="595.26" x2="595.26" y2="1424.03"/><line class="cls-1" x1="576.95" x2="576.95" y2="1424.03"/><line class="cls-1" x1="559.19" x2="559.19" y2="1424.03"/><line class="cls-1" x1="541.22" x2="541.22" y2="1424.03"/><line class="cls-1" x1="523.13" x2="523.13" y2="1424.03"/><line class="cls-1" x1="505.15" x2="505.15" y2="1424.03"/><line class="cls-1" x1="487.18" x2="487.18" y2="1424.03"/><line class="cls-1" x1="469.2" x2="469.2" y2="1424.03"/><line class="cls-1" x1="451.2" y1="0.32" x2="451.2" y2="1424.34"/><line class="cls-1" x1="433.25" x2="433.25" y2="1424.03"/><line class="cls-1" x1="415.4" x2="415.4" y2="1424.03"/><line class="cls-1" x1="397.02" x2="397.02" y2="1424.03"/><line class="cls-1" x1="379.23" x2="379.23" y2="1424.03"/><line class="cls-1" x1="361.29" x2="361.29" y2="1424.03"/><line class="cls-1" x1="343.11" y1="0.43" x2="343.11" y2="1424.45"/><line class="cls-1" x1="324.91" y1="0.43" x2="324.91" y2="1424.45"/><line class="cls-1" x1="307.19" y1="0.43" x2="307.19" y2="1424.45"/><line class="cls-1" x1="288.99" y1="0.43" x2="288.99" y2="1424.45"/><line class="cls-1" x1="271.22" x2="271.22" y2="1424.03"/><line class="cls-1" x1="253.49" x2="253.49" y2="1424.03"/><line class="cls-1" x1="235.16" x2="235.16" y2="1424.03"/><line class="cls-1" x1="216.84" x2="216.84" y2="1424.03"/><line class="cls-1" x1="199.09" x2="199.09" y2="1424.03"/><line class="cls-1" x1="181.11" x2="181.11" y2="1424.03"/><line class="cls-1" x1="163.02" x2="163.02" y2="1424.03"/><line class="cls-1" x1="145.05" x2="145.05" y2="1424.03"/><line class="cls-1" x1="127.07" x2="127.07" y2="1424.03"/><line class="cls-1" x1="109.1" x2="109.1" y2="1424.03"/><line class="cls-1" x1="91.09" y1="0.32" x2="91.09" y2="1424.34"/><line class="cls-1" x1="73.15" x2="73.15" y2="1424.03"/><line class="cls-1" x1="55.29" x2="55.29" y2="1424.03"/><line class="cls-1" x1="36.91" x2="36.91" y2="1424.03"/><line class="cls-1" x1="19.12" x2="19.12" y2="1424.03"/><line class="cls-2" x1="1.19" x2="1.19" y2="1424.03"/><line class="cls-1" x1="2358.12" y1="0.43" x2="2358.12" y2="1424.45"/><line class="cls-1" x1="2340.14" y1="0.43" x2="2340.14" y2="1424.45"/><line class="cls-1" x1="2322.05" y1="0.43" x2="2322.05" y2="1424.45"/><line class="cls-1" x1="2304.07" y1="0.43" x2="2304.07" y2="1424.45"/><line class="cls-1" x1="2286.1" y1="0.43" x2="2286.1" y2="1424.45"/><line class="cls-1" x1="2268.13" y1="0.43" x2="2268.13" y2="1424.45"/><line class="cls-1" x1="2250.12" y1="0.74" x2="2250.12" y2="1424.77"/><line class="cls-1" x1="2232.18" y1="0.43" x2="2232.18" y2="1424.45"/><line class="cls-1" x1="2214.32" y1="0.43" x2="2214.32" y2="1424.45"/><line class="cls-1" x1="2195.94" y1="0.43" x2="2195.94" y2="1424.45"/><line class="cls-1" x1="2178.15" y1="0.43" x2="2178.15" y2="1424.45"/><line class="cls-1" x1="2160.22" y1="0.43" x2="2160.22" y2="1424.45"/><line class="cls-1" x1="2142.06" y1="0.85" x2="2142.06" y2="1424.88"/><line class="cls-1" x1="2123.85" y1="0.85" x2="2123.85" y2="1424.88"/><line class="cls-1" x1="2106.14" y1="0.85" x2="2106.14" y2="1424.88"/><line class="cls-1" x1="2087.94" y1="0.85" x2="2087.94" y2="1424.88"/><line class="cls-1" x1="2070.17" y1="0.43" x2="2070.17" y2="1424.45"/><line class="cls-1" x1="2052.44" y1="0.43" x2="2052.44" y2="1424.45"/><line class="cls-1" x1="2034.11" y1="0.43" x2="2034.11" y2="1424.45"/><line class="cls-1" x1="2015.79" y1="0.43" x2="2015.79" y2="1424.45"/><line class="cls-1" x1="1998.04" y1="0.43" x2="1998.04" y2="1424.45"/><line class="cls-1" x1="1980.06" y1="0.43" x2="1980.06" y2="1424.45"/><line class="cls-1" x1="1961.97" y1="0.43" x2="1961.97" y2="1424.45"/><line class="cls-1" x1="1944" y1="0.43" x2="1944" y2="1424.45"/><line class="cls-1" x1="1926.02" y1="0.43" x2="1926.02" y2="1424.45"/><line class="cls-1" x1="1908.05" y1="0.43" x2="1908.05" y2="1424.45"/><line class="cls-1" x1="1890.04" y1="0.74" x2="1890.04" y2="1424.77"/><line class="cls-1" x1="1872.1" y1="0.43" x2="1872.1" y2="1424.45"/><line class="cls-1" x1="1854.24" y1="0.43" x2="1854.24" y2="1424.45"/><line class="cls-1" x1="1835.86" y1="0.43" x2="1835.86" y2="1424.45"/><line class="cls-1" x1="1818.07" y1="0.43" x2="1818.07" y2="1424.45"/><line class="cls-1" x1="1800.14" y1="0.43" x2="1800.14" y2="1424.45"/><line class="cls-1" x1="1781.95" y1="0.85" x2="1781.95" y2="1424.88"/><line class="cls-1" x1="1763.75" y1="0.85" x2="1763.75" y2="1424.88"/><line class="cls-1" x1="1746.04" y1="0.85" x2="1746.04" y2="1424.88"/><line class="cls-1" x1="1727.83" y1="0.85" x2="1727.83" y2="1424.88"/><line class="cls-1" x1="1710.07" y1="0.43" x2="1710.07" y2="1424.45"/><line class="cls-1" x1="1692.33" y1="0.43" x2="1692.33" y2="1424.45"/><line class="cls-1" x1="1674" y1="0.43" x2="1674" y2="1424.45"/><line class="cls-1" x1="1655.69" y1="0.43" x2="1655.69" y2="1424.45"/><line class="cls-1" x1="1637.93" y1="0.43" x2="1637.93" y2="1424.45"/><line class="cls-1" x1="1619.96" y1="0.43" x2="1619.96" y2="1424.45"/><line class="cls-1" x1="1601.86" y1="0.43" x2="1601.86" y2="1424.45"/><line class="cls-1" x1="1583.89" y1="0.43" x2="1583.89" y2="1424.45"/><line class="cls-1" x1="1565.92" y1="0.43" x2="1565.92" y2="1424.45"/><line class="cls-1" x1="1547.94" y1="0.43" x2="1547.94" y2="1424.45"/><line class="cls-1" x1="1529.93" y1="0.74" x2="1529.93" y2="1424.77"/><line class="cls-1" x1="1511.99" y1="0.43" x2="1511.99" y2="1424.45"/><line class="cls-1" x1="1494.14" y1="0.43" x2="1494.14" y2="1424.45"/><line class="cls-1" x1="1475.76" y1="0.43" x2="1475.76" y2="1424.45"/><line class="cls-1" x1="1457.97" y1="0.43" x2="1457.97" y2="1424.45"/><line class="cls-1" x1="1440.03" y1="0.43" x2="1440.03" y2="1424.45"/><line class="cls-2" x1="0.49" x2="2377.43" y2="0.43"/></g></g></svg>