<svg xmlns="http://www.w3.org/2000/svg" viewBox="0 0 406.05 112.79"><defs><style>.cls-1{fill:none;stroke:#fff;stroke-miterlimit:10;stroke-width:0.25px;}</style></defs><title>Asset 35</title><g id="Layer_2" data-name="Layer 2"><g id="Layer_1-2" data-name="Layer 1"><path d="M2,74l8.08-1.37q5.57-.94,9.06,1.08a8.93,8.93,0,0,1,4.27,6.66A12.17,12.17,0,0,1,22.84,87a11.59,11.59,0,0,1-4.15,5.17A17.08,17.08,0,0,1,11.49,95l-8,1.35-.38,16-2,.33ZM3.58,94.4l7.79-1.32a12.72,12.72,0,0,0,8.1-4.26,9.66,9.66,0,0,0,1.93-8.08q-1.34-7.89-11.1-6.23L4,75.57Z"/><path d="M62.19,103.13a18.74,18.74,0,0,1-9.2-.6,15.7,15.7,0,0,1-7.2-4.94A17.75,17.75,0,0,1,42,89a23.61,23.61,0,0,1,.74-11.21,21.65,21.65,0,0,1,5.8-9.32,18.24,18.24,0,0,1,9.75-4.85,18.63,18.63,0,0,1,9.16.6,15.66,15.66,0,0,1,7.21,5,17.89,17.89,0,0,1,3.79,8.61A23.62,23.62,0,0,1,77.7,89a21.46,21.46,0,0,1-5.8,9.3A18.27,18.27,0,0,1,62.19,103.13ZM62,101.19a16.29,16.29,0,0,0,8.22-4,19.56,19.56,0,0,0,5.42-8.25,20.65,20.65,0,0,0,.85-10.54,16.8,16.8,0,0,0-3.22-7.62,13.82,13.82,0,0,0-6.3-4.59,16.35,16.35,0,0,0-8.47-.62,16.17,16.17,0,0,0-6.32,2.52,18.34,18.34,0,0,0-5,5,20.29,20.29,0,0,0-3,7A21.18,21.18,0,0,0,44,88.42,16.63,16.63,0,0,0,47.19,96a13.85,13.85,0,0,0,6.3,4.56A16.35,16.35,0,0,0,62,101.19Z"/><path d="M100.78,57.24l7.69-1.3q5.37-.91,8.87,1.16a9,9,0,0,1,4.26,6.61,10.91,10.91,0,0,1-1.28,7.54,12.73,12.73,0,0,1-6.14,5.22l10.45,15.27-2.32.39-10-15a17.4,17.4,0,0,1-2.29.54L102.23,79l-.38,16.6-2,.33Zm1.48,19.83L110,75.76a13.35,13.35,0,0,0,5.47-2.14,9.81,9.81,0,0,0,3.42-4.05,9,9,0,0,0,.61-5.35,7.42,7.42,0,0,0-3.45-5.53q-2.79-1.63-7.42-.85l-6,1Z"/><path d="M154.73,50l-13.56,2.3,0-1.88,29.09-4.93,0,1.88-13.56,2.3-.86,36.81-2,.33Z"/><path d="M190.42,42.06l19.77-3.35,0,1.88-17.8,3-.42,17L207.26,58v1.82l-15.33,2.6-.45,18-2,.33Z"/><path d="M248,71.65a18.74,18.74,0,0,1-9.2-.6,15.7,15.7,0,0,1-7.2-4.94,17.75,17.75,0,0,1-3.79-8.59,23.61,23.61,0,0,1,.74-11.21,21.64,21.64,0,0,1,5.8-9.32,18.24,18.24,0,0,1,9.75-4.85,18.63,18.63,0,0,1,9.16.6,15.67,15.67,0,0,1,7.21,5,17.89,17.89,0,0,1,3.79,8.61,23.62,23.62,0,0,1-.74,11.21,21.46,21.46,0,0,1-5.8,9.3A18.27,18.27,0,0,1,248,71.65Zm-.23-1.94a16.29,16.29,0,0,0,8.22-4,19.56,19.56,0,0,0,5.42-8.25,20.65,20.65,0,0,0,.85-10.54,16.8,16.8,0,0,0-3.22-7.62,13.83,13.83,0,0,0-6.3-4.59,16.36,16.36,0,0,0-8.47-.62A16.17,16.17,0,0,0,238,36.61a18.34,18.34,0,0,0-5,5,20.29,20.29,0,0,0-3,7,21.18,21.18,0,0,0-.17,8.27A16.63,16.63,0,0,0,233,64.53a13.85,13.85,0,0,0,6.3,4.56A16.35,16.35,0,0,0,247.82,69.71Z"/><path d="M286.63,25.76l2-.33-.86,36.81,18-3,0,1.88-20,3.38Z"/><path d="M326.81,19l2-.33-.9,38.69-2,.33Z"/><path d="M370.29,50.94a18.74,18.74,0,0,1-9.2-.6,15.7,15.7,0,0,1-7.2-4.94,17.75,17.75,0,0,1-3.79-8.59,23.61,23.61,0,0,1,.74-11.21,21.64,21.64,0,0,1,5.8-9.32,18.24,18.24,0,0,1,9.75-4.85,18.63,18.63,0,0,1,9.16.6,15.67,15.67,0,0,1,7.21,5,17.89,17.89,0,0,1,3.79,8.61,23.62,23.62,0,0,1-.74,11.21,21.46,21.46,0,0,1-5.8,9.3A18.27,18.27,0,0,1,370.29,50.94ZM370.06,49a16.29,16.29,0,0,0,8.22-4,19.56,19.56,0,0,0,5.42-8.25,20.65,20.65,0,0,0,.85-10.54,16.8,16.8,0,0,0-3.22-7.62A13.83,13.83,0,0,0,375,14a16.36,16.36,0,0,0-8.47-.62,16.17,16.17,0,0,0-6.32,2.52,18.34,18.34,0,0,0-5,5,20.29,20.29,0,0,0-3,7,21.18,21.18,0,0,0-.17,8.27,16.63,16.63,0,0,0,3.21,7.59,13.85,13.85,0,0,0,6.3,4.56A16.35,16.35,0,0,0,370.06,49Z"/><rect class="cls-1" x="0.13" y="0.13" width="405.8" height="112.54"/></g></g></svg>