<svg xmlns="http://www.w3.org/2000/svg" viewBox="0 0 605.35 56.56"><defs><style>.cls-1{fill:none;}</style></defs><title>Asset 106</title><g id="Layer_2" data-name="Layer 2"><g id="Layer_1-2" data-name="Layer 1"><path d="M113.29,2.24h14.07q7.77,0,12.39,4.06a13.72,13.72,0,0,1,4.62,10.85,15.08,15.08,0,0,1-2.73,9.13,14.89,14.89,0,0,1-7.91,5.36l15.61,23.8h-3.43L131,32.27a35.89,35.89,0,0,1-4.62.35H116.09V55.44h-2.8ZM116.09,30H126q7.49,0,11.48-3.25t4-9.34q0-5.95-3.75-9.21T127.15,4.9H116.09Z"/><path d="M177.69,2.24H207V4.83H180.49v22h23.66v2.45H180.49V52.85H208v2.59H177.69Z"/><path d="M250.7,56.56A32.44,32.44,0,0,1,242,55.41a23.42,23.42,0,0,1-7.1-3.18l.49-2.66a24.18,24.18,0,0,0,7,3.29A28.85,28.85,0,0,0,250.63,54q7,0,11-3.08a10.08,10.08,0,0,0,4-8.47,10.24,10.24,0,0,0-1.47-5.77,12.8,12.8,0,0,0-4.94-4,78.1,78.1,0,0,0-10-4q-6.86-2.31-10-5.74A12.06,12.06,0,0,1,236,14.42a12,12,0,0,1,4.3-9.7q4.31-3.6,11.66-3.61A31.19,31.19,0,0,1,266.1,4.41l-.63,2.45A30.13,30.13,0,0,0,252,3.64q-6.16,0-9.7,2.8a9.36,9.36,0,0,0-3.54,7.77A10.2,10.2,0,0,0,240,19.53a11,11,0,0,0,4,3.71,41.37,41.37,0,0,0,7.42,3.22A53.48,53.48,0,0,1,261.83,31a14.35,14.35,0,0,1,5.14,4.9,12.75,12.75,0,0,1,1.5,6.37,12.67,12.67,0,0,1-4.79,10.43Q258.89,56.56,250.7,56.56Z"/><path d="M319.79,56.56q-10.22,0-15.71-5.63t-5.5-16.21V2.24h2.8V34.16q0,19.67,18.41,19.67T338.2,34.16V2.24H341V34.72q0,10.57-5.5,16.21T319.79,56.56Z"/><path d="M374.25,2.24h3.22l23.1,40.88L424.09,2.24h3v53.2h-2.8V7L401.55,46.41h-2.17L377,7.07V55.44h-2.8Z"/><path d="M461.74,2.24H491V4.83H464.54v22H488.2v2.45H464.54V52.85h27.51v2.59H461.74Z"/><rect class="cls-1" width="605.35" height="55.44"/></g></g></svg>