<svg xmlns="http://www.w3.org/2000/svg" viewBox="0 0 406.05 112.79"><defs><style>.cls-1{fill:none;stroke:#fff;stroke-miterlimit:10;stroke-width:0.25px;}</style></defs><title>Asset 37</title><g id="Layer_2" data-name="Layer 2"><g id="Layer_1-2" data-name="Layer 1"><path d="M.13,75.92l2.07-.35,9.63,33.77L23.13,72.53l1.92-.33,9.82,33.13L46.17,68.12l2.17-.37L35.9,108.4l-1.87.32-10-33.1L12.73,112.33l-2,.33Z"/><path d="M67.94,64.43l7.69-1.3q5.37-.91,8.87,1.16a9,9,0,0,1,4.26,6.61,10.91,10.91,0,0,1-1.28,7.54,12.73,12.73,0,0,1-6.14,5.22L91.78,98.94l-2.32.39-10-15a17.42,17.42,0,0,1-2.29.54L69.39,86.2,69,102.79l-2,.33Zm1.48,19.83L77.16,83a13.36,13.36,0,0,0,5.47-2.14A9.82,9.82,0,0,0,86,76.76a9,9,0,0,0,.61-5.35,7.42,7.42,0,0,0-3.45-5.53Q80.43,64.25,75.8,65l-6,1Z"/><path d="M112.42,56.9l2-.33-.9,38.69-2,.33Z"/><path d="M148,52.75,134.46,55l0-1.88,29.09-4.93,0,1.88L150,52.41l-.86,36.81-2,.33Z"/><path d="M183.67,44.83l2-.33-.9,38.69-2,.33Z"/><path d="M209.8,40.4l2-.33,25.54,31.32.83-35.79,1.92-.33L239.17,74l-1.92.33L211.66,43l-.83,35.79-1.92.33Z"/><path d="M281.56,67.35a19.18,19.18,0,0,1-9.27-.53A15.06,15.06,0,0,1,265.21,62a17.8,17.8,0,0,1-3.7-8.53,23.11,23.11,0,0,1,.78-11.29,20.74,20.74,0,0,1,16.54-14,22.09,22.09,0,0,1,6.65-.11,19.67,19.67,0,0,1,6.17,1.84l-.17,2A20.17,20.17,0,0,0,279,30.11a18.47,18.47,0,0,0-8.9,4,18.88,18.88,0,0,0-5.65,8.11,20.13,20.13,0,0,0-.88,10.54,16.94,16.94,0,0,0,3.17,7.65,13.08,13.08,0,0,0,6.15,4.43,16.71,16.71,0,0,0,8.43.52,25.8,25.8,0,0,0,10-3.82l.34-13.85L281,49.54l0-1.93,12.57-2.13-.37,17A25.39,25.39,0,0,1,281.56,67.35Z"/><rect class="cls-1" x="0.13" y="0.13" width="405.8" height="112.54"/></g></g></svg>