<svg xmlns="http://www.w3.org/2000/svg" viewBox="0 0 406.05 112.79"><defs><style>.cls-1{fill:none;stroke:#fff;stroke-miterlimit:10;stroke-width:0.25px;}</style></defs><title>Asset 38</title><g id="Layer_2" data-name="Layer 2"><g id="Layer_1-2" data-name="Layer 1"><path d="M17.11,69.85l2.17-.37,14.28,36.12-2.07.35L26.82,94,8.44,97.08,3.19,110.75l-2.12.36Zm9,22.41L18.19,71.75l-9,23.39Z"/><path d="M53.64,63.66,63.55,62q4.93-.83,7.93.86a7.56,7.56,0,0,1,3.68,5.69,9.67,9.67,0,0,1-1,6.44,10.11,10.11,0,0,1-5,4.42,7.83,7.83,0,0,1,5.29,2,8.87,8.87,0,0,1,2.69,5.25,10.72,10.72,0,0,1-.61,6,11.28,11.28,0,0,1-3.85,4.81,15,15,0,0,1-6.55,2.66l-13.36,2.26Zm1.1,36.43,11.09-1.88a11.64,11.64,0,0,0,7.44-3.95,8.89,8.89,0,0,0,1.79-7.4Q73.83,79.56,65,81.07l-9.81,1.66Zm.43-19.29,9.56-1.62a10.8,10.8,0,0,0,6.81-3.51A7.91,7.91,0,0,0,73.16,69q-1.1-6.51-9.29-5.12l-8.33,1.41Z"/><path d="M116.93,92.29a18.74,18.74,0,0,1-9.2-.6,15.7,15.7,0,0,1-7.2-4.94,17.75,17.75,0,0,1-3.79-8.59A23.62,23.62,0,0,1,97.48,67a21.65,21.65,0,0,1,5.8-9.32A18.24,18.24,0,0,1,113,52.79a18.62,18.62,0,0,1,9.15.6,15.66,15.66,0,0,1,7.21,5A17.89,17.89,0,0,1,133.18,67a23.62,23.62,0,0,1-.74,11.21,21.46,21.46,0,0,1-5.8,9.3A18.27,18.27,0,0,1,116.93,92.29Zm-.23-1.94a16.29,16.29,0,0,0,8.22-4,19.56,19.56,0,0,0,5.42-8.25,20.66,20.66,0,0,0,.85-10.54A16.8,16.8,0,0,0,128,59.94a13.82,13.82,0,0,0-6.3-4.59,16.36,16.36,0,0,0-8.47-.62,16.17,16.17,0,0,0-6.32,2.52,18.33,18.33,0,0,0-5,5,20.29,20.29,0,0,0-3,7,21.18,21.18,0,0,0-.17,8.27,16.63,16.63,0,0,0,3.21,7.59,13.84,13.84,0,0,0,6.3,4.56A16.35,16.35,0,0,0,116.71,90.36Z"/><path d="M169.35,83.41a15.12,15.12,0,0,1-7-.33A11.22,11.22,0,0,1,157,79.6a12.6,12.6,0,0,1-2.78-6.25A16.58,16.58,0,0,1,154,70l.55-23.42,2-.33-.51,23a17.78,17.78,0,0,0,.26,3.61q.84,5,4.27,7.24t8.7,1.37a13.14,13.14,0,0,0,8.8-5.09q3-4.11,3.2-11.19L181.75,42l2-.33-.56,23.63q-.18,7.89-3.67,12.46A15.39,15.39,0,0,1,169.35,83.41Z"/><path d="M216.39,38l-13.56,2.3,0-1.88L232,33.46l0,1.88-13.56,2.3-.86,36.81-2,.33Z"/><rect class="cls-1" x="0.13" y="0.13" width="405.8" height="112.54"/></g></g></svg>