<svg xmlns="http://www.w3.org/2000/svg" viewBox="0 0 932.77 932.77"><defs><style>.cls-1{fill:#ed4b3a;}.cls-2{fill:#fff;}.cls-3{fill:none;stroke:#ed4b3a;stroke-miterlimit:10;stroke-width:9px;}</style></defs><title>Asset 73</title><g id="Layer_2" data-name="Layer 2"><g id="Layer_1-2" data-name="Layer 1"><rect class="cls-1" width="932.77" height="932.77"/><rect class="cls-2" x="49.01" y="49.01" width="620.16" height="620.16"/><path class="cls-1" d="M846.15,804.85h-.08c-.07-.36-.15-.72-.23-1.07l.16,0A6,6,0,0,0,846.15,804.85Z"/><path class="cls-1" d="M846.07,804.84s0,0,0,.07a6.11,6.11,0,0,0-1-.06c0-.06,0-.12,0-.18Z"/><path class="cls-1" d="M845.84,803.77c.08.35.16.71.23,1.07l-1.06-.17-.24-1.06Z"/><path class="cls-1" d="M845.84,803.77l-1.07-.16C840.25,784,830.83,771,821.63,758.33c-10.4-14.3-21.08-29-24.76-53.18l1-.26c3.63,24,14.25,38.63,24.59,52.85C831.76,770.58,841.32,783.73,845.84,803.77Z"/><path class="cls-1" d="M844.77,803.61l.24,1.06a120.55,120.55,0,0,0-19.07-1.44c-35.61,0-53.73,13.17-71.25,25.9-2.59,1.88-5.2,3.78-7.88,5.63,0-.41,0-.82.05-1.24,2.45-1.72,4.85-3.46,7.24-5.2,17.65-12.83,35.9-26.09,71.84-26.09A123.22,123.22,0,0,1,844.77,803.61Z"/><path class="cls-1" d="M828.31,193.61C839,209,848.53,226.8,848.53,257.24c0,15.47-2.46,27.67-6.29,37.95l-1-.13c3.85-10.24,6.32-22.39,6.32-37.82,0-30.52-9.67-48.19-20.45-63.66Z"/><path class="cls-1" d="M842.24,295.19h.11a5.56,5.56,0,0,0-.36,1h-.11Z"/><path class="cls-1" d="M841.21,295.06l1,.13-.36,1-1-.13C841,295.7,841.09,295.38,841.21,295.06Z"/><path class="cls-1" d="M840.84,296l1,.13c-5.05,13.11-12.31,23.11-19.44,32.92-12.62,17.36-25.67,35.31-25.9,70.28l-1,.27c.17-35.47,13.35-53.6,26.1-71.14C828.67,318.79,835.84,308.93,840.84,296Z"/><path class="cls-1" d="M841.21,295.06c-.12.32-.24.64-.37,1a127.71,127.71,0,0,0-14.9-.86c-35.61,0-53.73,13.17-71.25,25.91-12.44,9-25.18,18.3-44.2,23,.25-.42.51-.83.77-1.23,18.3-4.72,30.71-13.74,42.84-22.55,17.65-12.83,35.9-26.1,71.84-26.1A126.91,126.91,0,0,1,841.21,295.06Z"/><path class="cls-1" d="M839.6,499.1c5.3,11.56,8.93,25.52,8.93,44.31,0,25.45-6.66,42-15.1,55.81l-1.14-.06c8.5-13.75,15.24-30.28,15.24-55.75,0-18.89-3.71-32.86-9.09-44.43Z"/><path class="cls-1" d="M839.89,499.13l-.29,0c-.16-.35-.32-.7-.49-1.05l.43,0A5.3,5.3,0,0,0,839.89,499.13Z"/><path class="cls-1" d="M840.84,296c-5,12.91-12.17,22.77-19.21,32.46-12.75,17.54-25.93,35.67-26.1,71.14-17.5,4.86-29.6,13.65-41.43,22.25-13.55,9.85-27.46,20-49.54,24-5.68-11.79-9.64-26.06-9.64-45.59,0-25.8,6.91-42.42,15.57-56.28,19-4.67,31.76-13.93,44.2-23,17.52-12.74,35.64-25.91,71.25-25.91A127.71,127.71,0,0,1,840.84,296Z"/><path class="cls-1" d="M838.44,499c5.38,11.57,9.09,25.54,9.09,44.43,0,25.47-6.74,42-15.24,55.75-2.06-.1-4.16-.16-6.35-.16-35.94,0-54.19,13.27-71.84,26.1-14.3,10.39-29,21.07-53.26,24.64,5-13.91,12.58-24.3,20-34.49,12.83-17.66,26.1-35.91,26.1-71.84a128.49,128.49,0,0,0-.64-13.11c2.86-2,5.64-4,8.41-6,17.52-12.73,35.64-25.9,71.25-25.9C830.37,498.39,834.52,498.6,838.44,499Z"/><path class="cls-1" d="M839.6,499.1l-1.16-.12c-.16-.35-.33-.7-.5-1.05l1.17.12C839.28,498.4,839.44,498.75,839.6,499.1Z"/><path class="cls-1" d="M839.11,498l-1.17-.12c-4.68-9.76-10.54-17.83-16.31-25.77-12.79-17.59-26-35.78-26.1-71.49.33-.09.66-.19,1-.27,0,35.56,13.18,53.66,25.91,71.17C828.35,479.72,834.36,488,839.11,498Z"/><path class="cls-1" d="M837.94,497.93c.17.35.34.7.5,1.05-3.92-.38-8.07-.59-12.5-.59-35.61,0-53.73,13.17-71.25,25.9-2.77,2-5.55,4-8.41,6l-.12-1.13c2.7-1.87,5.33-3.78,7.94-5.68,17.65-12.83,35.9-26.1,71.84-26.1C830.18,497.39,834.16,497.58,837.94,497.93Z"/><path class="cls-1" d="M821.63,758.33c9.2,12.66,18.62,25.64,23.14,45.28a123.22,123.22,0,0,0-18.83-1.38c-35.94,0-54.19,13.26-71.84,26.09-2.39,1.74-4.79,3.48-7.24,5.2,0-1.29.06-2.6.06-3.94,0-35.94-13.27-54.19-26.1-71.84-2-2.77-4-5.55-6-8.41,16.68-5,28.41-13.47,39.88-21.81,12-8.71,24.25-17.61,42.18-22.37C800.55,729.33,811.23,744,821.63,758.33Z"/><path class="cls-1" d="M833.43,599.22h0a5,5,0,0,0-.52,1h-.11Z"/><path class="cls-1" d="M832.29,599.16l1.14.06-.59,1-1.16-.05C831.89,599.81,832.1,599.49,832.29,599.16Z"/><path class="cls-1" d="M831.68,600.13l1.16.05c-3.31,5.31-6.87,10.21-10.4,15.07-12.74,17.52-25.91,35.64-25.91,71.24a122.67,122.67,0,0,0,1.17,17.4l-1,.26a123.1,123.1,0,0,1-1.2-17.66c0-35.93,13.27-54.18,26.1-71.83C825,610,828.48,605.23,831.68,600.13Z"/><path class="cls-1" d="M832.29,599.16c-.19.33-.4.65-.61,1-1.86-.08-3.77-.13-5.74-.13-35.61,0-53.73,13.17-71.25,25.91-14.5,10.54-29.42,21.38-54.22,24.9.12-.36.25-.72.37-1.07,24.27-3.57,39-14.25,53.26-24.64C771.75,612.27,790,599,825.94,599,828.13,599,830.23,599.06,832.29,599.16Z"/><path class="cls-1" d="M828.39,193.61h-.08l-.36-.53a3,3,0,0,0,.34.38S828.35,193.56,828.39,193.61Z"/><path class="cls-1" d="M827.95,193.08l.36.53-1.23,0-.71-1,1.23,0a3.09,3.09,0,0,0,.26.37l.06.08Z"/><path class="cls-1" d="M827.6,192.59a3.09,3.09,0,0,0,.26.37A3.09,3.09,0,0,1,827.6,192.59Z"/><path class="cls-1" d="M827.58,192.56l0,0-1.23,0c-1.57-2.22-3.16-4.41-4.74-6.58-12.83-17.65-26.1-35.9-26.1-71.84a122.68,122.68,0,0,1,1.36-18.68l.87-.23a1.77,1.77,0,0,0-.12-.17,5.07,5.07,0,0,1-.34-.75l-.24.07s0-.06,0-.09.25,0,.37-.08.21,0,.31-.08.25-.06.38-.09a120.44,120.44,0,0,0-1.6,20.1c0,35.61,13.17,53.73,25.91,71.26C824.15,187.76,825.88,190.13,827.58,192.56Z"/><path class="cls-1" d="M827.08,193.58c-.78,0-1.56,0-2.37,0-35.61,0-53.73,13.17-71.25,25.9-3.4,2.47-6.82,5-10.39,7.36-.09-.34-.19-.67-.28-1,3.46-2.35,6.78-4.76,10.08-7.16,17.65-12.83,35.91-26.1,71.84-26.1h1.66Z"/><path class="cls-1" d="M826.37,192.56h-1.66c-35.93,0-54.19,13.27-71.84,26.1-3.3,2.4-6.62,4.81-10.08,7.16-4.92-17-13.54-28.81-22-40.41-8.74-12-17.67-24.34-22.41-42.37,26-3.21,41.38-14.36,56.28-25.19,12-8.71,24.25-17.61,42.2-22.38a122.68,122.68,0,0,0-1.36,18.68c0,35.94,13.27,54.19,26.1,71.84C823.21,188.15,824.8,190.34,826.37,192.56Z"/><path class="cls-1" d="M798,704.85l-.15,0c-.06-.33-.1-.66-.15-1l.08,0A5.55,5.55,0,0,0,798,704.85Z"/><path class="cls-1" d="M797.85,704.89l-1,.26c-.05-.33-.1-.66-.14-1l1-.26C797.75,704.23,797.79,704.56,797.85,704.89Z"/><path class="cls-1" d="M797.76,95.23l-.87.23c0-.36.11-.72.17-1.08l.24-.07a5.07,5.07,0,0,0,.34.75A1.77,1.77,0,0,1,797.76,95.23Z"/><path class="cls-1" d="M797.06,94.38c-.06.36-.12.72-.17,1.08-18,4.77-30.21,13.67-42.2,22.38-14.9,10.83-30.24,22-56.28,25.19-.09-.32-.18-.65-.26-1,25.89-3.16,41.13-14.25,55.95-25C766.27,108.19,778.72,99.14,797.06,94.38Z"/><path class="cls-1" d="M796.73,704.15c0,.34.09.67.14,1-17.93,4.76-30.2,13.66-42.18,22.37-11.47,8.34-23.2,16.86-39.88,21.81l-.6-.88c16.71-4.88,28.43-13.4,39.89-21.74C766.19,717.92,778.57,708.94,796.73,704.15Z"/><path class="cls-1" d="M796.73,400.34l-.2.06v-.08c0-.33,0-.65,0-1l.17-.05A5.18,5.18,0,0,0,796.73,400.34Z"/><path class="cls-1" d="M796.54,399.35c0,.32,0,.64,0,1v.08c-.34.08-.67.18-1,.27v-1.05Z"/><path class="cls-1" d="M795.53,399.62v1.05c-17.21,4.85-29.16,13.53-40.84,22-13.6,9.88-27.56,20-49.68,24.17l-.45-.94c22.08-4.08,36-14.19,49.54-24C765.93,413.27,778,404.48,795.53,399.62Z"/><path class="cls-1" d="M746.92,829.58c0,1.34,0,2.65-.06,3.94l-1,.71c.05-1.51.08-3.06.08-4.65,0-35.61-13.17-53.73-25.91-71.25-2.08-2.86-4.17-5.74-6.21-8.71l1-.29c2,2.86,4,5.64,6,8.41C733.65,775.39,746.92,793.64,746.92,829.58Z"/><path class="cls-1" d="M746.86,833.52c0,.42,0,.83-.05,1.24-.34.25-.68.49-1,.71l.06-1.24Z"/><path class="cls-1" d="M746.81,834.76v.1a4.75,4.75,0,0,0-1,.72v-.11C746.13,835.25,746.47,835,746.81,834.76Z"/><path class="cls-1" d="M746.28,530.3a128.49,128.49,0,0,1,.64,13.11c0,35.93-13.27,54.18-26.1,71.84-7.4,10.19-14.95,20.58-20,34.49-.37.06-.74.12-1.12.16,5.05-14.27,12.75-24.86,20.29-35.24,12.74-17.52,25.91-35.64,25.91-71.25,0-4.42-.2-8.56-.58-12.47Z"/><path class="cls-1" d="M746.28,530.3l-.94.64c0-.38-.08-.75-.11-1.12l.93-.65Z"/><path class="cls-1" d="M745.84,834.23l-.06,1.24c-15.28,10.53-33,19.76-62.93,19.76-16,0-28.46-2.63-38.95-6.67q.09-.51.15-1c10.44,4.06,22.87,6.69,38.8,6.69C712.94,854.23,730.54,844.83,745.84,834.23Z"/><path class="cls-1" d="M746.16,529.17l-.93.65C742.35,502.89,731,487.3,720,472.16c-5.65-7.77-11.38-15.66-16-25.13l1-.18c4.6,9.29,10.25,17.06,15.81,24.72C731.83,486.72,743.17,502.32,746.16,529.17Z"/><path class="cls-1" d="M745.23,529.82c0,.37.07.74.11,1.12-15.18,10.39-32.81,19.45-62.49,19.45-15.27,0-27.35-2.4-37.55-6.14,0-.28,0-.56,0-.84v-.23c10.18,3.78,22.24,6.21,37.54,6.21C712.54,549.39,730.07,540.24,745.23,529.82Z"/><path class="cls-1" d="M743.07,226.81a112.4,112.4,0,0,1,3.85,30.43c0,35.93-13.27,54.18-26.1,71.83-3.23,4.45-6.49,8.93-9.56,13.74l-1.4.35c3.24-5.16,6.71-9.94,10.15-14.68,12.74-17.52,25.91-35.64,25.91-71.24a111.6,111.6,0,0,0-3.73-29.84C742.49,227.21,742.78,227,743.07,226.81Z"/><path class="cls-1" d="M742.79,225.81c.09.33.19.66.28,1-.29.2-.58.4-.88.59-.09-.34-.18-.67-.28-1Z"/><path class="cls-1" d="M742.79,225.81l-.88.59c-4.87-17-13.48-28.83-21.9-40.42-8.82-12.14-17.84-24.57-22.62-42.83l1-.12c4.74,18,13.67,30.35,22.41,42.37C729.25,197,737.87,208.85,742.79,225.81Z"/><path class="cls-1" d="M741.91,226.4c.1.33.19.66.28,1-14.75,9.83-32.12,18.15-60.57,18.15-15.26,0-27.33-2.4-37.53-6.14,0-.38-.11-.76-.17-1.13,10.21,3.82,22.33,6.27,37.7,6.27C709.95,244.55,727.22,236.21,741.91,226.4Z"/><path class="cls-1" d="M714.21,748.45l.6.88-1,.29-.6-.87C713.54,748.65,713.88,748.56,714.21,748.45Z"/><path class="cls-1" d="M714.21,748.45c-.33.11-.67.2-1,.3-10.31-15.12-19.28-32.71-19.28-62.26,0-14.28,2.1-25.77,5.43-35.53.38,0,.75-.09,1.12-.15-3.41,9.78-5.55,21.31-5.55,35.68C694.92,715.9,703.91,733.39,714.21,748.45Z"/><path class="cls-1" d="M713.2,748.75l.6.87a111.85,111.85,0,0,1-31,4c-35.94,0-54.19-13.27-71.84-26.1-4.36-3.17-8.76-6.37-13.46-9.38-.14-.48-.28-1-.41-1.45,5.07,3.2,9.79,6.63,14.46,10,17.52,12.74,35.64,25.91,71.25,25.91A111.28,111.28,0,0,0,713.2,748.75Z"/><path class="cls-1" d="M711.26,342.81c-.26.4-.52.81-.77,1.23l-1.39.34c.25-.41.5-.82.76-1.22Z"/><path class="cls-1" d="M709.86,343.16c-.26.4-.51.81-.76,1.22a116.59,116.59,0,0,1-26.25,2.78c-29.77,0-47.41-9.1-62.61-19.52l.59-.81c15.08,10.32,32.57,19.33,62,19.33A114,114,0,0,0,709.86,343.16Z"/><path class="cls-1" d="M709.1,344.38l1.39-.34c-8.66,13.86-15.57,30.48-15.57,56.28,0,19.53,4,33.8,9.64,45.59-.34.06-.68.13-1,.18-5.67-11.84-9.61-26.18-9.61-45.77C693.92,374.79,700.62,358.19,709.1,344.38Z"/><path class="cls-1" d="M704.56,445.91l.45.94-1,.18c-.16-.31-.31-.62-.46-.94C703.88,446,704.22,446,704.56,445.91Z"/><path class="cls-1" d="M703.53,446.09c.15.32.3.63.46.94a120.82,120.82,0,0,1-21.14,1.75c-35.94,0-54.19-13.27-71.84-26.1-5.52-4-11.11-8.07-17.28-11.75,0-.41-.07-.81-.09-1.22,6.44,3.79,12.24,8,18,12.16,17.52,12.74,35.64,25.91,71.25,25.91A120.16,120.16,0,0,0,703.53,446.09Z"/><path class="cls-1" d="M700.84,649.74c-.12.35-.25.71-.37,1.07-.37.06-.74.11-1.12.15.12-.36.24-.71.37-1.06C700.1,649.86,700.47,649.8,700.84,649.74Z"/><path class="cls-1" d="M699.72,649.9c-.13.35-.25.7-.37,1.06a125.57,125.57,0,0,1-16.5,1c-35.64,0-53.89-13-71.4-25.77.18-.28.37-.56.56-.83C629.4,638,647.52,651,682.85,651A123.62,123.62,0,0,0,699.72,649.9Z"/><path class="cls-1" d="M698.15,142c.08.33.17.66.26,1l-1,.12c-.08-.32-.17-.65-.25-1Z"/><path class="cls-1" d="M698.14,142v0l-1,.12,0-.08h.08A5.67,5.67,0,0,0,698.14,142Z"/><path class="cls-1" d="M697.14,142.17c.08.33.17.66.25,1a129.24,129.24,0,0,1-14.54.79c-35.94,0-54.19-13.27-71.84-26.1-5.57-4-11.21-8.14-17.45-11.84,0-.38,0-.76.07-1.14,6.45,3.79,12.24,8,18,12.17,17.52,12.74,35.64,25.91,71.25,25.91A127.48,127.48,0,0,0,697.14,142.17Z"/><path class="cls-1" d="M645.31,543.18v.23c0,.28,0,.56,0,.84l-1-.37V542.8Z"/><path class="cls-1" d="M645.31,543.18l-1-.38c-.15-35.21-13.24-53.22-25.91-70.64-11.58-15.93-23.52-32.36-25.72-61.84l1.05.61c2.33,28.78,14.07,44.95,25.48,60.64C632,489.18,645.25,507.39,645.31,543.18Z"/><path class="cls-1" d="M644.31,543.88l1,.37c-.2,35.38-13.36,53.48-26.09,71-2.42,3.32-4.85,6.67-7.2,10.15l-.41-.3-.41-.3c2.36-3.48,4.79-6.82,7.21-10.14C631.08,597.22,644.19,579.18,644.31,543.88Z"/><path class="cls-1" d="M644.31,542.8v1.08c-13.3-5-23.39-12.39-33.3-19.59-17.52-12.73-35.64-25.9-71.25-25.9-1.8,0-3.56,0-5.27.1-.15-.33-.3-.66-.47-1,1.86-.08,3.77-.12,5.74-.12,35.93,0,54.19,13.27,71.84,26.1C621.35,530.57,631.28,537.79,644.31,542.8Z"/><path class="cls-1" d="M645.31,829.58a122.33,122.33,0,0,1-1.26,18l-1-.38a121.71,121.71,0,0,0,1.22-17.58c0-35.61-13.17-53.73-25.91-71.25-8.53-11.73-17.25-23.73-22.13-41l1.28.82c4.91,16.55,13.37,28.2,21.66,39.6C632,775.39,645.31,793.64,645.31,829.58Z"/><path class="cls-1" d="M644.09,239.41a123.67,123.67,0,0,1,1.22,17.83c0,34.41-12.17,52.61-24.48,69.59l-.82-.56c12.21-16.86,24.3-34.92,24.3-69A122.75,122.75,0,0,0,643,239Z"/><path class="cls-1" d="M644,847.54q-.06.51-.15,1l-.13-.05a1.39,1.39,0,0,0-.28-.12h0l-.28-.11-.26-.11c.06-.33.11-.67.15-1Z"/><path class="cls-1" d="M643.92,238.28c.06.37.12.75.17,1.13L643,239c-.05-.38-.11-.77-.18-1.15Z"/><path class="cls-1" d="M643.9,848.56v0l-.41-.19a1.39,1.39,0,0,1,.28.12Z"/><path class="cls-1" d="M643.92,238.28l-1.08-.41C639.07,214.42,628.6,200,618.4,186c-12.83-17.65-26.09-35.9-26.09-71.84,0-3,.09-5.93.28-8.71.32.18.65.37,1,.57q-.25,3.91-.25,8.14c0,35.61,13.16,53.73,25.9,71.26C629.56,199.64,640.2,214.27,643.92,238.28Z"/><path class="cls-1" d="M643.2,848.28l.28.11-.46-.16s-.05,0-.08,0v0Z"/><path class="cls-1" d="M644.31,829.58a121.71,121.71,0,0,1-1.22,17.58c-12.43-5-22-12-31.49-18.84-17.51-12.73-35.62-25.88-71-26.08-4.65-19.17-13.94-32-23-44.5-9.39-12.92-19-26.16-23.43-46.49,11.79-5.67,26.06-9.63,45.59-9.63,25.94,0,42.61,7,56.51,15.7,4.88,17.28,13.6,29.28,22.13,41C631.14,775.85,644.31,794,644.31,829.58Z"/><path class="cls-1" d="M643.09,847.16c0,.34-.09.68-.15,1-12.64-5-22.38-12.09-31.93-19-17.33-12.6-35.27-25.62-70.14-25.89-.08-.34-.16-.67-.25-1,35.36.2,53.47,13.35,71,26.08C621,835.19,630.66,842.18,643.09,847.16Z"/><path class="cls-1" d="M642.84,237.87c.07.38.13.77.18,1.15-13.27-5.06-23.35-12.38-33.24-19.57-17.52-12.73-35.64-25.9-71.24-25.9a126.88,126.88,0,0,0-14.55.8l-.64-.93a128.14,128.14,0,0,1,15.19-.87c35.93,0,54.18,13.27,71.83,26.1C620.06,225.69,629.93,232.86,642.84,237.87Z"/><path class="cls-2" d="M611,524.29c9.91,7.2,20,14.54,33.3,19.59-.12,35.3-13.23,53.34-25.91,70.78-2.42,3.32-4.85,6.66-7.21,10.14-17.52-12.73-35.78-25.8-71.43-25.8-4,0-7.74.16-11.31.47,8.51-13.83,15.24-30.46,15.24-56.06,0-19.12-3.75-33.24-9.2-44.92,1.71-.07,3.47-.1,5.27-.1C575.37,498.39,593.49,511.56,611,524.29Z"/><path class="cls-2" d="M642.84,237.87c-12.91-5-22.78-12.18-32.47-19.22-17.65-12.83-35.9-26.1-71.83-26.1a128.14,128.14,0,0,0-15.19.87c-1.9-2.73-3.83-5.38-5.75-8-12.74-17.53-25.91-35.65-25.91-71.26,0-4.09.19-7.94.52-11.59,12.17-6.19,26.93-10.61,47.55-10.61,23.7,0,39.65,5.83,52.83,13.49-.19,2.78-.28,5.69-.28,8.71,0,35.94,13.26,54.19,26.09,71.84C628.6,200,639.07,214.42,642.84,237.87Z"/><path class="cls-1" d="M620,326.27l.82.56-.59.81-.82-.56Z"/><path class="cls-1" d="M620.24,327.64l-1,1.43c-12.74,17.52-25.9,35.64-25.9,71.25q0,4.9.33,9.39l-1.05-.61c-.18-2.81-.28-5.73-.28-8.78,0-35.93,13.26-54.18,26.09-71.84l1-1.4Z"/><path class="cls-1" d="M620,326.27l-.59.81c-2.86-2-5.64-4-8.41-6-17.52-12.74-35.64-25.91-71.25-25.91l-2.35,0c.13-.33.25-.67.37-1,.65,0,1.31,0,2,0,35.93,0,54.19,13.27,71.84,26.1C614.37,322.27,617.15,324.29,620,326.27Z"/><path class="cls-2" d="M619.42,327.08l-1,1.4c-12.83,17.66-26.09,35.91-26.09,71.84,0,3,.1,6,.28,8.78-13.2-7.58-29.19-13.32-52.83-13.32-20.79,0-35.67,4.44-47.93,10.67-.09-2-.14-4-.14-6.13,0-35.61,13.17-53.73,25.91-71.25,7.31-10.05,14.75-20.3,19.81-33.89l2.35,0c35.61,0,53.73,13.17,71.25,25.91C613.78,323.08,616.56,325.1,619.42,327.08Z"/><path class="cls-1" d="M611.6,625.1l.41.3c-.19.27-.38.55-.56.83l-.44-.32-.37-.27.55-.84Z"/><path class="cls-1" d="M611,625.91l.44.32c-9.82,14.69-18.14,32-18.14,60.26a111.23,111.23,0,0,0,3.83,30.2c-.42-.27-.84-.54-1.27-.79a113.48,113.48,0,0,1-3.56-29.41c0-28.63,8.42-46,18.33-60.85Z"/><path class="cls-1" d="M611.19,624.8l-.55.84C593.23,613,575.12,600,539.76,600c-4.23,0-8.21.19-12,.53.23-.35.45-.7.67-1.06,3.57-.31,7.33-.47,11.31-.47C575.41,599,593.67,612.07,611.19,624.8Z"/><path class="cls-1" d="M597.55,718.14l-1.28-.82c-.14-.47-.27-.94-.4-1.42.43.25.85.52,1.27.79C597.27,717.18,597.41,717.66,597.55,718.14Z"/><path class="cls-1" d="M595.87,715.9c.13.48.26,1,.4,1.42-13.9-8.71-30.57-15.7-56.51-15.7-19.53,0-33.8,4-45.59,9.63l-.21-1c11.85-5.67,26.2-9.62,45.8-9.62C565.39,700.62,582,707.37,595.87,715.9Z"/><path class="cls-1" d="M593.73,410.93l-1.05-.61c0-.4-.07-.81-.09-1.22l1.05.61C593.66,410.12,593.69,410.52,593.73,410.93Z"/><path class="cls-1" d="M593.64,104.68c0,.06,0,.12,0,.18l-1-.56h0A4.27,4.27,0,0,0,593.64,104.68Z"/><path class="cls-1" d="M593.63,104.86c0,.38-.06.76-.07,1.14-.32-.2-.65-.39-1-.57,0-.38,0-.76.07-1.13Z"/><path class="cls-1" d="M592.66,104.3c0,.37,0,.75-.07,1.13-13.18-7.66-29.13-13.49-52.83-13.49-20.62,0-35.38,4.42-47.55,10.61,0-.4.07-.79.11-1.18,12.17-6.11,26.92-10.43,47.44-10.43C563.44,90.94,579.45,96.7,592.66,104.3Z"/><path class="cls-1" d="M592.59,409.1c0,.41.05.82.09,1.22-13.2-7.68-29.17-13.54-52.92-13.54-20.81,0-35.65,4.5-47.88,10.78,0-.37,0-.74,0-1.11,12.26-6.23,27.14-10.67,47.93-10.67C563.4,395.78,579.39,401.52,592.59,409.1Z"/><path class="cls-1" d="M540.87,803.24v0a2.2,2.2,0,0,0-.36,0l.26,0Z"/><path class="cls-1" d="M540.87,803.24h-.1l-.26,0-.38,0-.29,0-.24-1h1C540.71,802.57,540.79,802.9,540.87,803.24Z"/><path class="cls-1" d="M540.62,802.24h-1c-4.64-18.88-13.83-31.54-22.81-43.9-9.42-13-19.08-26.25-23.55-46.63l.93-.45c4.41,20.33,14,33.57,23.43,46.49C526.68,770.24,536,783.07,540.62,802.24Z"/><path class="cls-1" d="M540.51,803.22a2.42,2.42,0,0,0-.38,0Z"/><path class="cls-1" d="M539.6,802.23l.24,1a1.29,1.29,0,0,0-.28,0c-35.47,0-53.56,13.19-71,25.9-8.35,6.07-16.84,12.24-27.27,17.06l-.23.09c0-.38.1-.77.14-1.16,10.21-4.76,18.56-10.83,26.77-16.8C485.54,815.51,503.78,802.27,539.6,802.23Z"/><path class="cls-1" d="M543.69,257.24c0,15-2.3,26.87-5.91,36.94l-1.09,0c3.66-10.06,6-22,6-37,0-29.92-9.3-47.5-19.82-62.75l1.12-.14C534.48,209.62,543.69,227.29,543.69,257.24Z"/><path class="cls-1" d="M536.69,294.2l1.09,0c-.12.33-.24.67-.37,1l-1.09,0C536.44,294.87,536.57,294.54,536.69,294.2Z"/><path class="cls-1" d="M536.69,294.2c-.12.34-.25.67-.37,1-33.35.82-50.86,13.55-67.81,25.87C452.08,333,435.13,345.33,403.87,347c.2-.35.41-.69.61-1,30.54-1.77,47.25-13.92,63.44-25.68C485.06,307.8,502.78,294.93,536.69,294.2Z"/><path class="cls-1" d="M536.32,295.2l1.09,0c-5.06,13.59-12.5,23.84-19.81,33.89-12.74,17.52-25.91,35.64-25.91,71.25,0,2.1.05,4.15.14,6.13l-1,.5q-.17-3.21-.16-6.63c0-35.93,13.27-54.18,26.1-71.84C524,318.59,531.3,308.51,536.32,295.2Z"/><path class="cls-1" d="M534.49,498.49c5.45,11.68,9.2,25.8,9.2,44.92,0,25.6-6.73,42.23-15.24,56.06l-1.26.12c8.62-13.84,15.5-30.44,15.5-56.18,0-19.13-3.8-33.22-9.3-44.87Z"/><path class="cls-2" d="M536.32,295.2c-5,13.31-12.34,23.39-19.53,33.28-12.83,17.66-26.1,35.91-26.1,71.84q0,3.42.16,6.63c-8.5,4.43-15.77,9.72-22.93,14.92-16.86,12.26-34.28,24.92-67.3,25.85-6.16-12.14-10.54-26.86-10.54-47.4,0-24,6-40.07,13.79-53.35,31.26-1.64,48.21-14,64.64-25.9C485.46,308.75,503,296,536.32,295.2Z"/><path class="cls-1" d="M534,497.51c.17.32.32.65.47,1l-1.1.05c-.15-.33-.31-.66-.47-1Z"/><path class="cls-1" d="M532.92,497.56c.16.32.32.65.47,1-31.46,1.47-48.44,13.8-64.88,25.75-8.14,5.91-16.39,11.92-26.45,16.67,0-.37,0-.74,0-1.1,9.82-4.69,17.92-10.57,25.89-16.37C484.41,511.5,501.44,499.13,532.92,497.56Z"/><path class="cls-1" d="M534,497.51l-1.1,0c-4.65-9.6-10.43-17.56-16.13-25.4-11.87-16.34-24.13-33.19-25.88-64.1l1-.5c1.66,30.91,13.87,47.72,25.72,64C523.42,479.57,529.31,487.68,534,497.51Z"/><path class="cls-1" d="M527.19,599.59l1.26-.12c-.22.36-.44.71-.67,1.06l-1.27.13C526.74,600.31,527,599.95,527.19,599.59Z"/><path class="cls-1" d="M527.19,599.59c-.22.36-.45.72-.68,1.07-27.14,2.82-42.8,14.2-58,25.25C450.86,638.74,432.61,652,396.67,652h-1.44c.11-.34.22-.67.34-1h1.1c35.61,0,53.73-13.17,71.25-25.9C483.38,613.86,499.32,602.28,527.19,599.59Z"/><path class="cls-1" d="M526.51,600.66l1.27-.13c-3.24,5.17-6.72,10-10.18,14.72-12.74,17.52-25.91,35.64-25.91,71.24A117.2,117.2,0,0,0,494,710.24c-.32.14-.63.3-.94.45a118.34,118.34,0,0,1-2.33-24.2c0-35.93,13.27-54.18,26.1-71.83C520.08,610.13,523.4,605.56,526.51,600.66Z"/><path class="cls-1" d="M523.35,193.42l.64.93-1.12.14-.65-.93Z"/><path class="cls-1" d="M523.35,193.42l-1.13.14c-1.79-2.57-3.61-5.08-5.43-7.58-12.83-17.65-26.1-35.9-26.1-71.84,0-3.89.17-7.56.46-11.05l1.06-.54c-.33,3.65-.52,7.5-.52,11.59,0,35.61,13.17,53.73,25.91,71.26C519.52,188,521.45,190.69,523.35,193.42Z"/><path class="cls-1" d="M522.22,193.56l.65.93c-25.67,3.22-40.84,14.25-55.58,25-8.26,6-16.65,12.1-26.91,16.89-.06-.34-.13-.69-.19-1,10.1-4.73,18.37-10.74,26.51-16.66C481.46,207.92,496.63,196.89,522.22,193.56Z"/><path class="cls-1" d="M494,710.24l.21,1-.93.45c-.07-.34-.14-.67-.22-1C493.33,710.54,493.64,710.38,494,710.24Z"/><path class="cls-1" d="M493,710.69c.08.34.15.67.22,1-9.3,4.6-17.07,10.25-24.73,15.82-14.88,10.82-30.19,22-56.17,25.17l-.66-.92c26.07-3.12,41.37-14.25,56.24-25.06C475.68,721.07,483.57,715.34,493,710.69Z"/><path class="cls-1" d="M492.32,101.34v0c-.36.17-.71.34-1.06.53,0,0,0-.07,0-.1A8,8,0,0,0,492.32,101.34Z"/><path class="cls-1" d="M492.32,101.37c0,.39-.08.78-.11,1.18l-1.06.54c0-.4.07-.8.11-1.19C491.61,101.71,492,101.54,492.32,101.37Z"/><path class="cls-1" d="M491.83,406.45c0,.37,0,.74,0,1.11l-1,.5q0-.56-.06-1.11Z"/><path class="cls-1" d="M491.26,101.9c0,.39-.07.79-.11,1.19-8.39,4.39-15.56,9.61-22.64,14.75-17.65,12.83-35.9,26.1-71.84,26.1-1,0-1.92,0-2.86,0-.1-.33-.19-.67-.28-1,1,0,2.08,0,3.14,0,35.61,0,53.73-13.17,71.25-25.91C475.19,111.74,482.58,106.38,491.26,101.9Z"/><path class="cls-1" d="M490.85,406.95q0,.56.06,1.11c-8.28,4.36-15.39,9.53-22.4,14.62-16.91,12.29-34.36,25-67.39,26-.17-.33-.34-.66-.5-1,33-.93,50.44-13.59,67.3-25.85C475.08,416.67,482.35,411.38,490.85,406.95Z"/><path class="cls-1" d="M442.06,541c0,.81,0,1.62,0,2.45,0,35.93-13.27,54.18-26.1,71.84-7.62,10.49-15.4,21.2-20.41,35.74H394.5c5.05-14.82,13-25.68,20.68-36.32,12.73-17.52,25.9-35.64,25.9-71.25,0-.67,0-1.33,0-2Z"/><path class="cls-1" d="M442,539.86c0,.36,0,.73,0,1.1l-1,.46c0-.36,0-.73,0-1.09Z"/><path class="cls-1" d="M442.08,829.58a125,125,0,0,1-.93,15.54l-1.07.48a124.11,124.11,0,0,0,1-16c0-35.61-13.17-53.73-25.9-71.25-1.32-1.82-2.65-3.65-4-5.5l1.13-.14c1.21,1.7,2.43,3.38,3.64,5C428.81,775.39,442.08,793.64,442.08,829.58Z"/><path class="cls-1" d="M441.15,845.12c0,.39-.09.78-.14,1.16l-.67.28-.14.09-.27.12c.05-.39.11-.77.15-1.17Z"/><path class="cls-1" d="M442,539.86l-1,.47c-.73-33.59-13.5-51.16-25.86-68.17-5.31-7.3-10.69-14.7-15.17-23.42l1.11,0c4.41,8.48,9.68,15.72,14.86,22.86C428.38,488.63,441.19,506.25,442,539.86Z"/><path class="cls-2" d="M441.06,541.42c0,.66,0,1.32,0,2,0,35.61-13.17,53.73-25.9,71.25-7.73,10.64-15.63,21.5-20.68,36.32-34.18-.52-51.91-13.41-69.08-25.88-3.93-2.86-7.88-5.74-12.06-8.47l1-1.38c12.83-17.66,26.1-35.91,26.1-71.84q0-4.44-.27-8.53c13.91,8.64,30.61,15.51,56.47,15.51C415.5,550.39,429.48,546.75,441.06,541.42Z"/><path class="cls-1" d="M441,540.33c0,.36,0,.73,0,1.09-11.58,5.33-25.56,9-44.39,9-25.86,0-42.56-6.87-56.47-15.51,0-.41-.05-.82-.08-1.23,13.92,8.74,30.58,15.74,56.55,15.74C415.53,549.39,429.48,545.7,441,540.33Z"/><path class="cls-1" d="M440.38,236.34a121.51,121.51,0,0,1,1.7,20.9c0,35.93-13.27,54.18-26.1,71.83-3.92,5.4-7.89,10.86-11.5,16.87l-1.2.06c3.72-6.26,7.83-11.92,11.9-17.52,12.73-17.52,25.9-35.64,25.9-71.24a120,120,0,0,0-1.65-20.47Z"/><path class="cls-1" d="M440.19,235.31c.06.34.13.69.19,1l-.95.43-.18-1Z"/><path class="cls-1" d="M439.93,846.77l.27-.12-.28.2S439.93,846.8,439.93,846.77Z"/><path class="cls-1" d="M441.08,829.58a124.11,124.11,0,0,1-1,16c-11.37,5.14-25.07,8.63-43.41,8.63-25.95,0-42.61-7-56.52-15.72.2-2.86.32-5.81.32-8.93,0-35.94-13.27-54.19-26.1-71.84C304.42,744,294.2,730,290.21,707.49c14,5,24.41,12.6,34.63,20,17.65,12.83,35.9,26.1,71.83,26.1a129.24,129.24,0,0,0,14.54-.79c1.32,1.85,2.65,3.68,4,5.5C427.91,775.85,441.08,794,441.08,829.58Z"/><path class="cls-1" d="M440.08,845.6c0,.4-.1.78-.15,1.17-11.36,5-25,8.46-43.26,8.46-25.8,0-42.48-6.84-56.38-15.45l-.21-.19c0-.36,0-.72.07-1.08,13.91,8.73,30.57,15.72,56.52,15.72C415,854.23,428.71,850.74,440.08,845.6Z"/><path class="cls-1" d="M440.19,235.31l-.94.44c-4-22.21-14.19-36.17-24.07-49.77-8.7-12-17.6-24.24-22.42-42.1.35,0,.7,0,1,0,4.8,17.55,13.58,29.67,22.17,41.49C425.9,199,436.08,213,440.19,235.31Z"/><path class="cls-1" d="M439.43,236.77c-11.5,5.22-25.36,8.78-44,8.78-27,0-44-7.48-58.27-16.64-.12-.48-.25-1-.37-1.43,14.34,9.34,31.36,17.07,58.64,17.07,18.55,0,32.36-3.57,43.8-8.8Z"/><path class="cls-2" d="M439.25,235.75c-11.44,5.23-25.25,8.8-43.8,8.8-27.28,0-44.3-7.73-58.64-17.07-4.83-17.86-13.74-30.11-22.44-42.08-12.73-17.53-25.9-35.65-25.9-71.26a122.87,122.87,0,0,1,1.06-16.56c14.33,5,24.92,12.71,35.31,20.26,17,12.36,34.55,25.12,67.92,26,4.82,17.86,13.72,30.13,22.42,42.1C425.06,199.58,435.2,213.54,439.25,235.75Z"/><path class="cls-1" d="M411.68,751.77l.66.92-1.13.14-.66-.93Z"/><path class="cls-1" d="M410.55,751.9l.66.93a129.24,129.24,0,0,1-14.54.79c-35.93,0-54.18-13.27-71.83-26.1-10.22-7.43-20.65-15-34.63-20-.07-.38-.13-.75-.19-1.13,14.35,5,25,12.78,35.4,20.35,17.53,12.74,35.64,25.91,71.25,25.91A128.23,128.23,0,0,0,410.55,751.9Z"/><path class="cls-1" d="M411.68,751.77l-1.13.13c-11.2-15.87-21.47-33.8-21.47-65.41A109.2,109.2,0,0,1,394.17,652l1.06,0c-3.17,9.53-5.15,20.7-5.15,34.5C390.08,718.09,400.45,735.92,411.68,751.77Z"/><path class="cls-1" d="M403.28,346l1.2-.06c-.2.34-.41.68-.61,1-.39,0-.79,0-1.19.06Z"/><path class="cls-1" d="M403.28,346l-.6,1q-2.92.13-6,.13c-35.93,0-54.18-13.26-71.83-26.09l-3.17-2.3.56-.83,3.19,2.32c17.53,12.73,35.64,25.9,71.25,25.9Q400.07,346.16,403.28,346Z"/><path class="cls-1" d="M402.68,347c.4,0,.8,0,1.19-.06-7.8,13.28-13.79,29.34-13.79,53.35,0,20.54,4.38,35.26,10.54,47.4l-1.11,0c-6.11-12.16-10.43-26.91-10.43-47.43C389.08,376.4,395,360.32,402.68,347Z"/><path class="cls-1" d="M400.62,447.72c.16.33.33.66.5,1l-1.11,0c-.17-.33-.34-.66-.5-1Z"/><path class="cls-1" d="M399.51,447.75c.16.33.33.66.5,1-1.1,0-2.21,0-3.34,0-35.93,0-54.18-13.27-71.83-26.1-10.64-7.73-21.5-15.62-36.36-20.62,0-.36,0-.72,0-1.08,15.14,5,26.16,13.05,36.95,20.89,17.53,12.74,35.64,25.91,71.25,25.91C397.63,447.78,398.58,447.77,399.51,447.75Z"/><path class="cls-2" d="M396.67,347.16q3.09,0,6-.13c-7.72,13.29-13.6,29.37-13.6,53.29,0,20.52,4.32,35.27,10.43,47.43-.93,0-1.88,0-2.84,0-35.61,0-53.72-13.17-71.25-25.91C314.63,414,303.61,406,288.47,401v-.66c0-35.61,13.17-53.73,25.9-71.25,2.45-3.37,4.91-6.76,7.3-10.3l3.17,2.3C342.49,333.9,360.74,347.16,396.67,347.16Z"/><path class="cls-1" d="M395.57,651c-.12.33-.23.66-.34,1l-1.06,0,.33-1Z"/><path class="cls-1" d="M394.5,651l-.33,1c-34.29-.59-52.09-13.53-69.33-26.06-3.93-2.85-7.88-5.73-12.06-8.47l.58-.81c4.18,2.73,8.13,5.61,12.06,8.47C342.59,637.57,360.32,650.46,394.5,651Z"/><path class="cls-1" d="M393.53,142.9c.09.34.18.68.28,1-.35,0-.7,0-1,0-.1-.33-.19-.67-.27-1C392.84,142.89,393.18,142.9,393.53,142.9Z"/><path class="cls-1" d="M393.52,142.85s0,0,0,.05c-.35,0-.69,0-1,0v0a4.93,4.93,0,0,0,.55,0A3.91,3.91,0,0,0,393.52,142.85Z"/><path class="cls-1" d="M392.49,142.87c.08.34.17.68.27,1-33.37-.92-50.92-13.68-67.92-26-10.39-7.55-21-15.25-35.31-20.26,0-.32.09-.63.13-.94l0-.08c14.52,5.05,25.23,12.84,35.73,20.47C342.25,129.26,359.62,141.89,392.49,142.87Z"/><path class="cls-1" d="M340.47,829.58c0,3.12-.12,6.07-.32,8.93l-1-.61c.18-2.67.28-5.43.28-8.32,0-35.61-13.17-53.73-25.91-71.25-10.11-13.91-20.5-28.2-24.44-51.23l1.09.39c4,22.49,14.21,36.55,24.16,50.25C327.2,775.39,340.47,793.64,340.47,829.58Z"/><path class="cls-1" d="M340.2,534.88q.27,4.1.27,8.53c0,35.93-13.27,54.18-26.1,71.84l-1,1.38-.83-.55c.34-.48.69-1,1-1.42,12.74-17.52,25.91-35.64,25.91-71.25,0-3.2-.11-6.26-.31-9.19Z"/><path class="cls-1" d="M340.2,534.88l-1-.66-.09-1.23c.35.22.7.45,1,.66C340.15,534.06,340.18,534.47,340.2,534.88Z"/><path class="cls-1" d="M340.15,838.51c0,.36,0,.72-.07,1.08a4.6,4.6,0,0,0-.52-.38,2.08,2.08,0,0,0-.36-.2l-.08,0c0-.35.05-.71.07-1.07Z"/><path class="cls-1" d="M340.12,533.65c-.35-.21-.7-.44-1-.66-2.3-28.9-14.08-45.11-25.51-60.83-12.66-17.42-25.74-35.42-26.08-70.44l1,.34c.42,34.46,13.37,52.28,25.89,69.51C326,487.55,338,504,340.12,533.65Z"/><path class="cls-1" d="M339.56,839.21a3.07,3.07,0,0,0-.36-.2A2.08,2.08,0,0,1,339.56,839.21Z"/><path class="cls-1" d="M339.19,837.9c0,.36,0,.72-.07,1.07l-.35-.15c-4.87-3.1-9.42-6.41-13.93-9.69-17.52-12.73-35.64-25.9-71.25-25.9a123.87,123.87,0,0,0-17.38,1.17H236c-.08-.33-.15-.65-.23-1a125,125,0,0,1,17.8-1.21c35.93,0,54.18,13.26,71.83,26.09C329.88,831.56,334.38,834.83,339.19,837.9Z"/><path class="cls-1" d="M339.07,533l.09,1.23c-5-3.17-9.69-6.57-14.32-9.93-17.52-12.73-35.64-25.9-71.25-25.9a116.91,116.91,0,0,0-23.53,2.23c-.14-.32-.28-.63-.43-.95a118.53,118.53,0,0,1,24-2.28c35.93,0,54.18,13.27,71.83,26.1C329.84,526.7,334.3,529.94,339.07,533Z"/><path class="cls-1" d="M337.18,228.91a114.44,114.44,0,0,1,3.29,28.33c0,28.53-8.37,45.92-18.24,60.7l-.82-.58c9.78-14.66,18.06-31.9,18.06-60.12a112.07,112.07,0,0,0-3.54-29.14Z"/><path class="cls-1" d="M337.18,228.91l-1.25-.81c-.13-.49-.26-1-.4-1.46l1.28.84C336.93,227.95,337.06,228.43,337.18,228.91Z"/><path class="cls-1" d="M336.81,227.48l-1.28-.84c-4.86-17.12-13.51-29-22-40.66-12.83-17.65-26.09-35.9-26.09-71.84a125.89,125.89,0,0,1,1.09-16.9l1,.34a122.87,122.87,0,0,0-1.06,16.56c0,35.61,13.17,53.73,25.9,71.26C323.07,197.37,332,209.62,336.81,227.48Z"/><path class="cls-1" d="M335.53,226.64c.14.48.27,1,.4,1.46-4.27-2.8-8.31-5.74-12.32-8.65-17.52-12.73-35.64-25.9-71.25-25.9a110,110,0,0,0-31.7,4.26c-.19-.29-.38-.58-.58-.87a110.88,110.88,0,0,1,32.28-4.39c35.94,0,54.19,13.27,71.84,26.1C327.9,221.34,331.62,224,335.53,226.64Z"/><path class="cls-1" d="M322.23,317.94l-.56.83-.81-.58.55-.83Z"/><path class="cls-1" d="M320.86,318.19l.81.58c-2.39,3.54-4.85,6.93-7.3,10.3-12.73,17.52-25.9,35.64-25.9,71.25V401l-1-.32v-.34c0-35.93,13.26-54.18,26.09-71.84C316,325.11,318.47,321.72,320.86,318.19Z"/><path class="cls-1" d="M321.41,317.36l-.55.83c-16.37-11.77-34.34-23-67.27-23a119.49,119.49,0,0,0-21.21,1.78l.4-1.09a121.65,121.65,0,0,1,20.81-1.69C286.81,294.16,304.92,305.5,321.41,317.36Z"/><path class="cls-1" d="M312.53,616.08l.83.55-.58.81-.84-.55Z"/><path class="cls-1" d="M311.94,616.89l.84.55c-12.21,16.87-24.31,34.93-24.31,69A120.27,120.27,0,0,0,290,706.36l-1.09-.38a123.38,123.38,0,0,1-1.46-19.49C287.47,652.07,299.64,633.87,311.94,616.89Z"/><path class="cls-1" d="M312.53,616.08l-.59.81C297.66,607.63,280.69,600,253.59,600a109.45,109.45,0,0,0-32.39,4.47c.28-.43.57-.86.84-1.3A111.52,111.52,0,0,1,253.59,599C281,599,298.12,606.72,312.53,616.08Z"/><path class="cls-1" d="M290,706.36c.06.38.12.75.19,1.13l-1.09-.39c-.06-.37-.12-.75-.19-1.12Z"/><path class="cls-1" d="M289.69,96.56l0,.08a4.73,4.73,0,0,1-1-.22c0,.27-.08.55-.11.82-9.63-3.26-20.94-5.3-35-5.3-32.57,0-50.5,11-66.73,22.64,0-.42,0-.84,0-1.25,16.19-11.56,34.23-22.39,66.71-22.39C268.15,90.94,279.8,93.12,289.69,96.56Z"/><path class="cls-1" d="M289.66,96.64c0,.31-.09.62-.13.94l-1-.34c0-.27.07-.55.11-.82A4.73,4.73,0,0,0,289.66,96.64Z"/><path class="cls-1" d="M288.93,706c.07.37.13.75.19,1.12-9.75-3.36-21.23-5.48-35.53-5.48-29.45,0-46.93,9-62,19.32-.11-.33-.21-.66-.31-1,15.14-10.34,32.74-19.32,62.32-19.32C267.78,700.62,279.21,702.69,288.93,706Z"/><path class="cls-1" d="M288.47,401c0,.36,0,.72,0,1.08l-1-.34c0-.35,0-.7,0-1.06Z"/><path class="cls-1" d="M287.47,400.66c0,.36,0,.71,0,1.06a108.23,108.23,0,0,0-33.89-4.94c-31.83,0-49.68,10.52-65.62,21.84l-.15-1.12c16-11.3,33.91-21.72,65.77-21.72A109.62,109.62,0,0,1,287.47,400.66Z"/><path class="cls-1" d="M235.79,803.44c.08.32.15.64.23,1a3,3,0,0,0-.52,0,2,2,0,0,0-.35.06l-.14,0c-.07-.32-.15-.63-.23-.94Z"/><path class="cls-1" d="M236,804.41l-.52,0A3,3,0,0,1,236,804.41Z"/><path class="cls-1" d="M235.5,804.45a2,2,0,0,0-.35.06A2,2,0,0,1,235.5,804.45Z"/><path class="cls-1" d="M235.79,803.44l-1,.15c-4.62-19-13.83-31.64-22.83-44-8-11.05-16.23-22.33-21.24-38l.87-.59c5,15.73,13.16,27,21.18,38C221.84,771.46,231.13,784.28,235.79,803.44Z"/><path class="cls-1" d="M234.78,803.59c.08.31.16.62.23.94l-.39.11c-23.68,3.72-38.18,14.24-52.28,24.49-13.09,9.52-26.52,19.26-47.24,23.67l.21-1.1c20.29-4.4,33.54-14,46.44-23.38C196,817.95,210.69,807.29,234.78,803.59Z"/><path class="cls-1" d="M238.85,258.46c0,15.19-2.37,27.23-6.07,37.39l-1.16.21c3.79-10.19,6.23-22.28,6.23-37.6,0-28.37-8.35-45.64-18.19-60.34l1-.31C230.51,212.59,238.85,230,238.85,258.46Z"/><path class="cls-1" d="M232.78,295.85l-.4,1.09-1.17.21c.14-.36.28-.72.41-1.09Z"/><path class="cls-1" d="M231.21,297.15l1.17-.21c-5.06,13.33-12.41,23.44-19.62,33.36-12.74,17.52-25.91,35.64-25.91,71.25a125.15,125.15,0,0,0,1,15.95l-.92.65a125.23,125.23,0,0,1-1.05-16.6c0-35.94,13.27-54.19,26.1-71.84C219,320,226.2,310.1,231.21,297.15Z"/><path class="cls-1" d="M231.62,296.06c-.13.37-.27.73-.41,1.09-21.69,4.16-35.46,14.17-48.87,23.92-17.65,12.83-35.9,26.09-71.84,26.09-4,0-7.73-.17-11.29-.49l.56-.95c3.4.29,7,.44,10.73.44,35.61,0,53.73-13.17,71.25-25.9C195.39,310.35,209.38,300.17,231.62,296.06Z"/><path class="cls-1" d="M230.06,500.62c5.22,11.5,8.79,25.38,8.79,44,0,27.16-7.57,44.21-16.81,58.54-.5.14-1,.29-1.48.45,9.44-14.42,17.29-31.49,17.29-59,0-18.55-3.57-32.36-8.8-43.8C229.38,500.75,229.72,500.68,230.06,500.62Z"/><path class="cls-2" d="M231.21,297.15c-5,12.95-12.2,22.85-19.26,32.56-12.83,17.65-26.1,35.9-26.1,71.84a125.23,125.23,0,0,0,1.05,16.6q-2.6,1.86-5.15,3.72c-17.52,12.74-35.64,25.91-71.25,25.91a125.2,125.2,0,0,1-15.15-.89c-5.93-12-10.11-26.5-10.11-46.57,0-24.19,6.08-40.31,14-53.65,3.56.32,7.31.49,11.29.49,35.94,0,54.19-13.26,71.84-26.09C195.75,311.32,209.52,301.31,231.21,297.15Z"/><path class="cls-2" d="M229,500.83c5.23,11.44,8.8,25.25,8.8,43.8,0,27.5-7.85,44.57-17.29,59-16.11,5-27.58,13.32-38.81,21.48C164.23,637.83,146.11,651,110.5,651a121.64,121.64,0,0,1-19.26-1.46c5-13.81,12.54-24.15,19.91-34.29,12.33-17,25.06-34.5,26-67.75a94.49,94.49,0,0,0,24.74-9.64,199.31,199.31,0,0,0,20.42-13.57C195.3,514.87,208.59,505.21,229,500.83Z"/><path class="cls-1" d="M230.06,500.62c-.34.06-.68.13-1,.21-.14-.32-.29-.63-.43-.94l1-.22C229.78,500,229.92,500.3,230.06,500.62Z"/><path class="cls-1" d="M229.63,499.67l-1,.22c-4.74-10.09-10.75-18.36-16.67-26.5C201.42,458.9,190.6,444,187.06,419.28l.91-.66c3.44,24.82,14.26,39.7,24.79,54.18C218.76,481,224.85,489.42,229.63,499.67Z"/><path class="cls-1" d="M228.62,499.89c.14.31.29.62.43.94-20.46,4.38-33.75,14-46.71,23.46a199.31,199.31,0,0,1-20.42,13.57,94.49,94.49,0,0,1-24.74,9.64l0-1c19.24-4.58,32.05-13.88,44.54-23C194.76,514,208.1,504.33,228.62,499.89Z"/><path class="cls-1" d="M211.95,759.56c9,12.39,18.21,25.08,22.83,44-24.09,3.7-38.76,14.36-53,24.73-12.9,9.38-26.15,19-46.44,23.38a120,120,0,0,0,1.93-22.12c0-35.94-13.26-54.19-26.09-71.84-1-1.38-2-2.75-3-4.15.78,0,1.56,0,2.35,0,35.94,0,54.19-13.27,71.84-26.1,2.75-2,5.52-4,8.37-6C195.72,737.23,203.92,748.51,211.95,759.56Z"/><path class="cls-1" d="M222,603.17c-.27.44-.56.87-.84,1.3h0l-1.52.48c.3-.44.6-.88.89-1.33C221,603.46,221.54,603.31,222,603.17Z"/><path class="cls-1" d="M220.08,196.94c.2.29.39.58.58.87l-1,.31-.58-.87Z"/><path class="cls-1" d="M220.56,603.62c-.29.45-.59.89-.89,1.33-15.36,5-26.46,13.06-37.33,21C164.69,638.74,146.44,652,110.5,652a121,121,0,0,1-19.61-1.5l.35-1A121.64,121.64,0,0,0,110.5,651c35.61,0,53.73-13.17,71.25-25.9C193,616.94,204.45,608.6,220.56,603.62Z"/><path class="cls-1" d="M219.67,604.95l1.52-.48c-2.72,4.15-5.59,8.09-8.43,12C200,634,186.85,652.11,186.85,687.72a109.6,109.6,0,0,0,4.42,32.22l-.87.59a110.3,110.3,0,0,1-4.55-32.81c0-35.93,13.27-54.19,26.1-71.84C214.55,612.31,217.16,608.72,219.67,604.95Z"/><path class="cls-1" d="M220.08,196.94l-1,.31c-2.33-3.44-4.74-6.75-7.13-10-12.83-17.65-26.1-35.91-26.1-71.84v-.07l1-.72c0,.26,0,.52,0,.79,0,35.61,13.17,53.73,25.91,71.25C215.22,190,217.69,193.4,220.08,196.94Z"/><path class="cls-1" d="M219.08,197.25l.58.87c-16,4.94-27.39,13.23-38.55,21.33-12.54,9.12-25.4,18.46-44.68,23.08l-.12-1c19-4.61,31.79-13.85,44.22-22.88C191.7,210.53,203.1,202.24,219.08,197.25Z"/><path class="cls-2" d="M211.95,187.21c2.39,3.29,4.8,6.6,7.13,10-16,5-27.38,13.28-38.55,21.4-12.43,9-25.17,18.27-44.22,22.88-3.23-26-14.35-41.26-25.16-56.13-8.91-12.25-18-24.8-22.69-43.39a120.13,120.13,0,0,0,22,1.93c35.94,0,54.19-13.27,71.84-26.1,1.16-.85,2.33-1.69,3.51-2.54v.07C185.85,151.3,199.12,169.56,211.95,187.21Z"/><path class="cls-1" d="M191.58,720.94l-.87.59c-.11-.33-.21-.66-.31-1l.87-.59C191.37,720.28,191.47,720.61,191.58,720.94Z"/><path class="cls-1" d="M190.4,720.53c.1.34.2.67.31,1-2.85,2-5.62,4-8.37,6-17.65,12.83-35.9,26.1-71.84,26.1-.79,0-1.57,0-2.35,0l-.73-1c1,0,2,0,3.08,0,35.61,0,53.73-13.17,71.25-25.91C184.6,724.64,187.46,722.57,190.4,720.53Z"/><path class="cls-1" d="M187.82,417.5l.15,1.12-.91.66c-.06-.37-.11-.75-.16-1.13Z"/><path class="cls-1" d="M186.9,418.15c0,.38.1.76.16,1.13q-2.39,1.69-4.72,3.4c-17.65,12.83-35.9,26.1-71.84,26.1A125.48,125.48,0,0,1,95.9,448l-.55-1.07a125.2,125.2,0,0,0,15.15.89c35.61,0,53.73-13.17,71.25-25.91Q184.3,420,186.9,418.15Z"/><path class="cls-1" d="M186.88,113.29v0l-.64.45.49-.38Z"/><path class="cls-1" d="M186.88,113.33c0,.41,0,.83,0,1.25l-1,.72c0-.42,0-.83,0-1.24h0l.15-.1.07,0,.16-.13Z"/><path class="cls-1" d="M186.24,113.78l-.16.13-.07,0Z"/><path class="cls-1" d="M186,113.95l-.15.1,0,0Z"/><path class="cls-1" d="M185.86,114.06c0,.41,0,.82,0,1.24-1.18.85-2.35,1.69-3.51,2.54-17.65,12.83-35.9,26.1-71.84,26.1a120.13,120.13,0,0,1-22-1.93c-.09-.35-.18-.71-.26-1.07a117.88,117.88,0,0,0,22.3,2c35.61,0,53.73-13.17,71.25-25.91Z"/><path class="cls-1" d="M137.24,543.41c0,1,0,2,0,3l-1,.24c0-1.08,0-2.17,0-3.28,0-35.61-13.17-53.73-25.9-71.25-5.49-7.56-11.06-15.22-15.63-24.34l1.19.14c4.49,8.81,9.91,16.26,15.25,23.61C124,489.22,137.24,507.47,137.24,543.41Z"/><path class="cls-1" d="M136.2,546.69l1-.24,0,1-1,.24Z"/><path class="cls-1" d="M136.17,547.74l1-.24c-1,33.25-13.7,50.77-26,67.75-7.37,10.14-14.89,20.48-19.91,34.29l-1-.17c5.06-14,12.66-24.46,20.11-34.71C122.54,597.86,135.15,580.52,136.17,547.74Z"/><path class="cls-1" d="M137.24,829.58a120,120,0,0,1-1.93,22.12c-.35.09-.71.16-1.07.24a118.46,118.46,0,0,0,2-22.36c0-35.61-13.17-53.73-25.9-71.25-1.15-1.58-2.3-3.16-3.44-4.77.41,0,.83,0,1.25,0,1,1.4,2,2.77,3,4.15C124,775.39,137.24,793.64,137.24,829.58Z"/><path class="cls-1" d="M136.43,242.53a129.55,129.55,0,0,1,.81,14.71c0,35.93-13.26,54.18-26.09,71.83-3.88,5.34-7.8,10.73-11.38,16.65l-1.11-.1c3.66-6.11,7.69-11.65,11.68-17.14,12.73-17.52,25.9-35.64,25.9-71.24a128,128,0,0,0-.79-14.47C135.78,242.69,136.11,242.62,136.43,242.53Z"/><path class="cls-1" d="M136.43,242.53c-.32.09-.65.16-1,.24l-.12-1,1-.23Z"/><path class="cls-1" d="M136.31,241.53l-1,.23c-3.2-25.78-14.25-41-25-55.78-9-12.43-18.28-25.18-23-44.18l1.08.21c4.68,18.59,13.78,31.14,22.69,43.39C122,200.27,133.08,215.58,136.31,241.53Z"/><path class="cls-1" d="M136.2,546.69l0,1-.15,0s0-.09,0-.13a.48.48,0,0,0,0-.12,5.21,5.21,0,0,0,0-.79Z"/><path class="cls-1" d="M135.45,242.77l-.18,0a5.92,5.92,0,0,0,0-1l.07,0Z"/><path class="cls-1" d="M134.24,851.94c.36-.08.72-.15,1.07-.24l-.21,1.1-.21,0a1.35,1.35,0,0,0-.29,0l-.25.05-.21,0c0-.13,0-.25,0-.38a.66.66,0,0,1,0-.14C134.17,852.29,134.21,852.12,134.24,851.94Z"/><path class="cls-1" d="M135.1,852.8v0a3.86,3.86,0,0,0-.49.06,1.35,1.35,0,0,1,.29,0Z"/><path class="cls-1" d="M134.6,852.9l-.25.05Z"/><path class="cls-1" d="M134.35,852.95l-.21,0h0Z"/><path class="cls-1" d="M134.24,851.94c0,.18-.07.35-.1.53a.66.66,0,0,0,0,.14c0,.13,0,.25,0,.38a4.36,4.36,0,0,0,0-.51,4.43,4.43,0,0,0,0-.52Z"/><path class="cls-1" d="M108.15,753.59c-.42,0-.84,0-1.25,0-.25-.34-.5-.68-.74-1l1.26,0Z"/><path class="cls-1" d="M107.42,752.57l-1.26,0c-11.38-16-21.92-34-21.92-66,0-14.59,2.19-26.25,5.64-36.15.33.06.67.12,1,.16-3.46,9.85-5.65,21.46-5.65,36C85.24,718.62,96,736.51,107.42,752.57Z"/><path class="cls-1" d="M106.9,753.56h-.22a10.27,10.27,0,0,0-.69-1h.17C106.4,752.88,106.65,753.22,106.9,753.56Z"/><path class="cls-1" d="M98.66,345.62l1.11.1-.56.95c-.37,0-.74-.06-1.1-.09Z"/><path class="cls-1" d="M98.11,346.58c.36,0,.73.07,1.1.09-7.89,13.34-14,29.46-14,53.65,0,20.07,4.18,34.58,10.11,46.57l-1.14-.14a4.82,4.82,0,0,0-.48-.93c-5.6-11.79-9.49-26.06-9.49-45.5C84.24,376.13,90.26,359.95,98.11,346.58Z"/><path class="cls-1" d="M98.39,345.6l.27,0-.55,1-.21,0A4.82,4.82,0,0,0,98.39,345.6Z"/><path class="cls-1" d="M95.35,446.89,95.9,448l-1.19-.14c-.13-.25-.26-.49-.38-.74a2.19,2.19,0,0,0-.12-.33Z"/><path class="cls-1" d="M94.71,447.82l-.2,0a4.21,4.21,0,0,0-.18-.72C94.45,447.33,94.58,447.57,94.71,447.82Z"/><path class="cls-1" d="M91.24,649.54l-.35,1c-.34,0-.68-.1-1-.16.12-.33.23-.65.35-1Z"/><path class="cls-1" d="M90.2,649.37h0c-.12.32-.23.64-.35,1h-.07A5.68,5.68,0,0,0,90.2,649.37Z"/><path class="cls-1" d="M88.2,140.94c.08.36.17.72.26,1.07l-1.08-.21a4,4,0,0,0,.16-.45,4,4,0,0,0,.13-.46H88Z"/><path class="cls-1" d="M88.19,140.91a0,0,0,0,0,0,0l-.18,0h.17Z"/><path class="cls-1" d="M87.93,140.9h-.26v0A2.3,2.3,0,0,0,87.93,140.9Z"/><path class="cls-1" d="M87.54,141.35a4,4,0,0,1-.16.45h0C87.43,141.65,87.49,141.5,87.54,141.35Z"/><path class="cls-3" d="M87.54,141.35c0,.15-.11.3-.17.45h0l1.08.21a120.13,120.13,0,0,0,22,1.93c35.94,0,54.19-13.27,71.84-26.1,1.16-.85,2.33-1.69,3.51-2.54l1-.72C203.09,103,221,91.94,253.59,91.94c14,0,25.34,2,35,5.3l1,.34c14.33,5,24.92,12.71,35.31,20.26,17,12.36,34.55,25.12,67.92,26,.35,0,.7,0,1,0,.94,0,1.89,0,2.86,0,35.94,0,54.19-13.27,71.84-26.1,7.08-5.14,14.25-10.36,22.64-14.75l1.06-.54c12.17-6.19,26.93-10.61,47.55-10.61,23.7,0,39.65,5.83,52.83,13.49.32.18.65.37,1,.57,6.24,3.7,11.88,7.79,17.45,11.84,17.65,12.83,35.9,26.1,71.84,26.1a129.24,129.24,0,0,0,14.54-.79l1-.12c26-3.21,41.38-14.36,56.28-25.19,12-8.71,24.25-17.61,42.2-22.38l.87-.23a1.77,1.77,0,0,0-.12-.17,5.07,5.07,0,0,1-.34-.75l-.24.07c-18.34,4.76-30.79,13.81-43,22.65-14.82,10.77-30.06,21.86-55.95,25l-1,.12a127.48,127.48,0,0,1-14.29.77c-35.61,0-53.73-13.17-71.25-25.91-5.73-4.16-11.52-8.38-18-12.17l-1-.56c-13.21-7.6-29.22-13.36-52.9-13.36-20.52,0-35.27,4.32-47.44,10.43-.36.17-.71.34-1.06.53-8.68,4.48-16.07,9.84-23.34,15.13-17.52,12.74-35.64,25.91-71.25,25.91-1.06,0-2.11,0-3.14,0-.35,0-.69,0-1,0-32.87-1-50.24-13.61-67.07-25.84-10.5-7.63-21.21-15.42-35.73-20.47-9.89-3.44-21.54-5.62-36.1-5.62-32.48,0-50.52,10.83-66.71,22.39l-.64.45-.23.17-.15.1"/><path class="cls-3" d="M185.86,114.06l-4.11,3c-17.52,12.74-35.64,25.91-71.25,25.91a117.88,117.88,0,0,1-22.3-2l-.18,0h-.09a2.3,2.3,0,0,1-.26,0v0"/><path class="cls-3" d="M827.86,193a3.09,3.09,0,0,1-.26-.37l-1.23,0h-1.66c-35.93,0-54.19,13.27-71.84,26.1-3.3,2.4-6.62,4.81-10.08,7.16l-.88.59c-14.69,9.81-32,18.15-60.29,18.15-15.37,0-27.49-2.45-37.7-6.27l-1.08-.41c-12.91-5-22.78-12.18-32.47-19.22-17.65-12.83-35.9-26.1-71.83-26.1a128.14,128.14,0,0,0-15.19.87l-1.13.14c-25.59,3.33-40.76,14.36-55.52,25.09-8.14,5.92-16.41,11.93-26.51,16.66l-.94.44c-11.44,5.23-25.25,8.8-43.8,8.8-27.28,0-44.3-7.73-58.64-17.07l-1.28-.84c-3.91-2.6-7.63-5.3-11.33-8-17.65-12.83-35.9-26.1-71.84-26.1a110.88,110.88,0,0,0-32.28,4.39l-1,.31c-16,5-27.38,13.28-38.55,21.4-12.43,9-25.17,18.27-44.22,22.88l-1,.23-.07,0a5.92,5.92,0,0,1,0,1l.18,0c.33-.08.66-.15,1-.24,19.28-4.62,32.14-14,44.68-23.08,11.16-8.1,22.55-16.39,38.55-21.33l1-.31a110,110,0,0,1,31.7-4.26c35.61,0,53.73,13.17,71.25,25.9,4,2.91,8.05,5.85,12.32,8.65l1.25.81c14.27,9.16,31.28,16.64,58.27,16.64,18.62,0,32.48-3.56,44-8.78l.95-.43c10.26-4.79,18.65-10.89,26.91-16.89,14.74-10.71,29.91-21.74,55.58-25l1.12-.14a126.88,126.88,0,0,1,14.55-.8c35.6,0,53.72,13.17,71.24,25.9,9.89,7.19,20,14.51,33.24,19.57l1.07.39c10.2,3.74,22.27,6.14,37.53,6.14,28.45,0,45.82-8.32,60.57-18.15.3-.19.59-.39.88-.59,3.57-2.4,7-4.89,10.39-7.36,17.52-12.73,35.64-25.9,71.25-25.9.81,0,1.59,0,2.37,0l1.23,0h.08s-.06-.1-.1-.15a3,3,0,0,1-.34-.38"/><path class="cls-3" d="M841.21,295.06a126.91,126.91,0,0,0-15.27-.9c-35.94,0-54.19,13.27-71.84,26.1-12.13,8.81-24.54,17.83-42.84,22.55l-1.4.35a114,114,0,0,1-27,3c-29.45,0-46.94-9-62-19.33l-.82-.56c-2.86-2-5.64-4-8.41-6-17.65-12.83-35.91-26.1-71.84-26.1-.67,0-1.33,0-2,0l-1.09,0c-33.91.73-51.63,13.6-68.77,26.06C451.73,332,435,344.17,404.48,345.94l-1.2.06q-3.21.17-6.61.16c-35.61,0-53.72-13.17-71.25-25.9l-3.19-2.32-.82-.58c-16.49-11.86-34.6-23.2-67.82-23.2a121.65,121.65,0,0,0-20.81,1.69l-1.16.21c-22.24,4.11-36.23,14.29-49.87,24.2-17.52,12.73-35.64,25.9-71.25,25.9-3.77,0-7.33-.15-10.73-.44l-1.11-.1-.27,0a4.82,4.82,0,0,1-.49,1l.21,0c.36,0,.73.07,1.1.09,3.56.32,7.31.49,11.29.49,35.94,0,54.19-13.26,71.84-26.09,13.41-9.75,27.18-19.76,48.87-23.92l1.17-.21a119.49,119.49,0,0,1,21.21-1.78c32.93,0,50.9,11.26,67.27,23l.81.58,3.17,2.3c17.65,12.83,35.9,26.09,71.83,26.09q3.09,0,6-.13c.4,0,.8,0,1.19-.06,31.26-1.64,48.21-14,64.64-25.9C485.46,308.75,503,296,536.32,295.2l1.09,0,2.35,0c35.61,0,53.73,13.17,71.25,25.91,2.77,2,5.55,4,8.41,6l.82.56c15.2,10.42,32.84,19.52,62.61,19.52a116.59,116.59,0,0,0,26.25-2.78l1.39-.34c19-4.67,31.76-13.93,44.2-23,17.52-12.74,35.64-25.91,71.25-25.91a127.71,127.71,0,0,1,14.9.86l1,.13H842a5.56,5.56,0,0,1,.36-1h-.11Z"/><path class="cls-3" d="M94.33,447.08a4.21,4.21,0,0,1,.18.72l.2,0,1.19.14a125.48,125.48,0,0,0,14.6.82c35.94,0,54.19-13.27,71.84-26.1q2.34-1.71,4.72-3.4l.91-.66c15.94-11.32,33.79-21.84,65.62-21.84a108.23,108.23,0,0,1,33.89,4.94l1,.34c14.86,5,25.72,12.89,36.36,20.62,17.65,12.83,35.9,26.1,71.83,26.1,1.13,0,2.24,0,3.34,0l1.11,0c33-1.05,50.48-13.74,67.39-26,7-5.09,14.12-10.26,22.4-14.62l1-.5c12.23-6.28,27.07-10.78,47.88-10.78,23.75,0,39.72,5.86,52.92,13.54l1.05.61c6.17,3.68,11.76,7.74,17.28,11.75,17.65,12.83,35.9,26.1,71.84,26.1A120.82,120.82,0,0,0,704,447l1-.18c22.12-4.14,36.08-14.29,49.68-24.17,11.68-8.48,23.63-17.16,40.84-22,.33-.09.66-.19,1-.27l.2-.06a5.18,5.18,0,0,1,0-1l-.17.05-1,.27c-17.5,4.86-29.6,13.65-41.43,22.25-13.55,9.85-27.46,20-49.54,24-.34.06-.68.13-1,.18a120.16,120.16,0,0,1-20.68,1.69c-35.61,0-53.73-13.17-71.25-25.91-5.72-4.16-11.52-8.37-18-12.16l-1.05-.61c-13.2-7.58-29.19-13.32-52.83-13.32-20.79,0-35.67,4.44-47.93,10.67l-1,.5c-8.5,4.43-15.77,9.72-22.93,14.92-16.86,12.26-34.28,24.92-67.3,25.85l-1.11,0c-.93,0-1.88,0-2.84,0-35.61,0-53.72-13.17-71.25-25.91C314.63,414,303.61,406,288.47,401l-1-.32a109.62,109.62,0,0,0-33.88-4.88c-31.86,0-49.81,10.42-65.77,21.72l-.92.65q-2.6,1.86-5.15,3.72c-17.52,12.74-35.64,25.91-71.25,25.91a125.2,125.2,0,0,1-15.15-.89l-1.14-.14"/><path class="cls-3" d="M839.6,499.1l.29,0a5.3,5.3,0,0,1-.35-1l-.43,0-1.17-.12c-3.78-.35-7.76-.54-12-.54-35.94,0-54.19,13.27-71.84,26.1-2.61,1.9-5.24,3.81-7.94,5.68l-.93.65c-15.16,10.42-32.69,19.57-62.38,19.57-15.3,0-27.36-2.43-37.54-6.21l-1-.38c-13-5-23-12.23-32.71-19.31-17.65-12.83-35.91-26.1-71.84-26.1-2,0-3.88,0-5.74.12l-1.1,0c-31.48,1.57-48.51,13.94-65,25.93-8,5.8-16.07,11.68-25.89,16.37l-1,.47c-11.56,5.37-25.51,9.06-44.37,9.06-26,0-42.63-7-56.55-15.74-.35-.21-.7-.44-1-.66-4.77-3-9.23-6.29-13.65-9.5-17.65-12.83-35.9-26.1-71.83-26.1a118.53,118.53,0,0,0-24,2.28l-1,.22c-20.52,4.44-33.86,14.14-46.87,23.6-12.49,9.08-25.3,18.38-44.54,23l-1,.24-.19,0a5.21,5.21,0,0,1,0,.79.48.48,0,0,1,0,.12s0,.08,0,.13l.15,0,1-.24a94.49,94.49,0,0,0,24.74-9.64,199.31,199.31,0,0,0,20.42-13.57c13-9.42,26.25-19.08,46.71-23.46.33-.08.67-.15,1-.21a116.91,116.91,0,0,1,23.53-2.23c35.61,0,53.73,13.17,71.25,25.9,4.63,3.36,9.3,6.76,14.32,9.93l1,.66c13.91,8.64,30.61,15.51,56.47,15.51,18.83,0,32.81-3.64,44.39-9l1-.46c10.06-4.75,18.31-10.76,26.45-16.67,16.44-12,33.42-24.28,64.88-25.75l1.1-.05c1.71-.07,3.47-.1,5.27-.1,35.61,0,53.73,13.17,71.25,25.9,9.91,7.2,20,14.54,33.3,19.59l1,.37c10.2,3.74,22.28,6.14,37.55,6.14,29.68,0,47.31-9.06,62.49-19.45l.94-.64c2.86-2,5.64-4,8.41-6,17.52-12.73,35.64-25.9,71.25-25.9,4.43,0,8.58.21,12.5.59Z"/><path class="cls-3" d="M221.2,604.47A109.45,109.45,0,0,1,253.59,600c27.1,0,44.07,7.63,58.35,16.89l.84.55c4.18,2.74,8.13,5.62,12.06,8.47,17.24,12.53,35,25.47,69.33,26.06l1.06,0h1.44c35.94,0,54.19-13.26,71.84-26.09,15.2-11,30.86-22.43,58-25.25l1.27-.13c3.77-.34,7.75-.53,12-.53,35.36,0,53.47,13,70.88,25.64l.37.27.44.32C629,639,647.21,652,682.85,652a125.57,125.57,0,0,0,16.5-1c.38,0,.75-.09,1.12-.15,24.8-3.52,39.72-14.36,54.22-24.9C772.21,613.17,790.33,600,825.94,600c2,0,3.88.05,5.74.13l1.16.05h.11a5,5,0,0,1,.52-1h0l-1.14-.06c-2.06-.1-4.16-.16-6.35-.16-35.94,0-54.19,13.27-71.84,26.1-14.3,10.39-29,21.07-53.26,24.64-.37.06-.74.12-1.12.16a123.62,123.62,0,0,1-16.87,1.1c-35.33,0-53.45-13-70.84-25.6l-.41-.3-.41-.3c-17.52-12.73-35.78-25.8-71.43-25.8-4,0-7.74.16-11.31.47l-1.26.12c-27.87,2.69-43.81,14.27-59.27,25.51C450.4,637.83,432.28,651,396.67,651H394.5c-34.18-.52-51.91-13.41-69.08-25.88-3.93-2.86-7.88-5.74-12.06-8.47l-.83-.55C298.12,606.72,281,599,253.59,599A111.52,111.52,0,0,0,222,603.17c-.5.14-1,.29-1.48.45-16.11,5-27.58,13.32-38.81,21.48C164.23,637.83,146.11,651,110.5,651a121.64,121.64,0,0,1-19.26-1.46l-1-.17h0a5.68,5.68,0,0,1-.39,1h.07c.33.06.67.12,1,.16A121,121,0,0,0,110.5,652c35.94,0,54.19-13.26,71.84-26.09,10.87-7.9,22-16,37.33-21l1.52-.48"/><path class="cls-3" d="M797.85,704.89l.15,0a5.55,5.55,0,0,1-.22-1l-.08,0-1,.26c-18.16,4.79-30.54,13.77-42.63,22.56-11.46,8.34-23.18,16.86-39.89,21.74-.33.11-.67.2-1,.3a111.28,111.28,0,0,1-30.35,3.87c-35.61,0-53.73-13.17-71.25-25.91-4.67-3.39-9.39-6.82-14.46-10-.42-.27-.84-.54-1.27-.79-13.84-8.53-30.48-15.28-56.11-15.28-19.6,0-34,4-45.8,9.62-.32.14-.63.3-.94.45-9.45,4.65-17.34,10.38-25.1,16-14.87,10.81-30.17,21.94-56.24,25.06l-1.13.13a128.23,128.23,0,0,1-13.88.72c-35.61,0-53.72-13.17-71.25-25.91-10.42-7.57-21.05-15.3-35.4-20.35l-1.09-.38c-9.72-3.29-21.15-5.36-35.34-5.36-29.58,0-47.18,9-62.32,19.32l-.87.59c-2.94,2-5.8,4.11-8.65,6.18-17.52,12.74-35.64,25.91-71.25,25.91-1,0-2.07,0-3.08,0l-1.26,0H106a10.27,10.27,0,0,1,.69,1h.22c.41,0,.83,0,1.25,0,.78,0,1.56,0,2.35,0,35.94,0,54.19-13.27,71.84-26.1,2.75-2,5.52-4,8.37-6l.87-.59c15.08-10.32,32.56-19.32,62-19.32,14.3,0,25.78,2.12,35.53,5.48l1.09.39c14,5,24.41,12.6,34.63,20,17.65,12.83,35.9,26.1,71.83,26.1a129.24,129.24,0,0,0,14.54-.79l1.13-.14c26-3.22,41.29-14.35,56.17-25.17,7.66-5.57,15.43-11.22,24.73-15.82l.93-.45c11.79-5.67,26.06-9.63,45.59-9.63,25.94,0,42.61,7,56.51,15.7l1.28.82c4.7,3,9.1,6.21,13.46,9.38,17.65,12.83,35.9,26.1,71.84,26.1a111.85,111.85,0,0,0,31-4l1-.29c16.68-5,28.41-13.47,39.88-21.81,12-8.71,24.25-17.61,42.18-22.37Z"/><path class="cls-3" d="M643.49,848.39a1.39,1.39,0,0,1,.28.12l.13.05c10.49,4,23,6.67,38.95,6.67,30,0,47.65-9.23,62.93-19.76.35-.22.69-.46,1-.71,2.68-1.85,5.29-3.75,7.88-5.63,17.52-12.73,35.64-25.9,71.25-25.9A120.55,120.55,0,0,1,845,804.67l1.06.17h.08a6,6,0,0,1-.15-1l-.16,0-1.07-.16a123.22,123.22,0,0,0-18.83-1.38c-35.94,0-54.19,13.26-71.84,26.09-2.39,1.74-4.79,3.48-7.24,5.2l-1,.71c-15.3,10.6-32.9,20-63,20-15.93,0-28.36-2.63-38.8-6.69l-1-.38c-12.43-5-22-12-31.49-18.84-17.51-12.73-35.62-25.88-71-26.08h-1c-35.82,0-54.06,13.28-71.68,26.09-8.21,6-16.56,12-26.77,16.8l-1.07.48c-11.37,5.14-25.07,8.63-43.41,8.63-25.95,0-42.61-7-56.52-15.72l-1-.61c-4.81-3.07-9.31-6.34-13.77-9.58-17.65-12.83-35.9-26.09-71.83-26.09a125,125,0,0,0-17.8,1.21l-1,.15c-24.09,3.7-38.76,14.36-53,24.73-12.9,9.38-26.15,19-46.44,23.38-.35.09-.71.16-1.07.24l-.11,0a4.43,4.43,0,0,1,0,.52,4.36,4.36,0,0,1,0,.51h0l.21,0,.25-.05a1.35,1.35,0,0,1,.29,0l.21,0c20.72-4.41,34.15-14.15,47.24-23.67,14.1-10.25,28.6-20.77,52.28-24.49l.39-.11"/><path class="cls-3" d="M540.13,803.2l.38,0,.26,0h.1c34.87.27,52.81,13.29,70.14,25.89,9.55,7,19.29,14,31.93,19l.26.11.28.11"/><path class="cls-3" d="M441,846.28l.23-.09c10.43-4.82,18.92-11,27.27-17.06,17.49-12.71,35.58-25.85,71-25.9a1.29,1.29,0,0,1,.28,0"/><path class="cls-3" d="M340.08,839.59l.21.19c13.9,8.61,30.58,15.45,56.38,15.45,18.23,0,31.9-3.42,43.26-8.46l.27-.12"/><path class="cls-3" d="M339.2,839a3.07,3.07,0,0,1,.36.2"/><path class="cls-3" d="M235.15,804.51a2,2,0,0,1,.35-.06,3,3,0,0,1,.52,0h.19a123.87,123.87,0,0,1,17.38-1.17c35.61,0,53.73,13.17,71.25,25.9,4.51,3.28,9.06,6.59,13.93,9.69l.35.15"/><path class="cls-3" d="M137.21,546.45c0-1,0-2,0-3,0-35.94-13.26-54.19-26.09-71.84-5.34-7.35-10.76-14.8-15.25-23.61l-.55-1.07c-5.93-12-10.11-26.5-10.11-46.57,0-24.19,6.08-40.31,14-53.65l.56-.95c3.58-5.92,7.5-11.31,11.38-16.65,12.83-17.65,26.09-35.9,26.09-71.83a129.55,129.55,0,0,0-.81-14.71l-.12-1c-3.23-26-14.35-41.26-25.16-56.13-8.91-12.25-18-24.8-22.69-43.39-.09-.35-.18-.71-.26-1.07a0,0,0,0,1,0,0h-.52a4,4,0,0,1-.13.46,4,4,0,0,1-.16.45c4.68,19,13.92,31.75,23,44.18,10.74,14.79,21.79,30,25,55.78l.12,1a128,128,0,0,1,.79,14.47c0,35.6-13.17,53.72-25.9,71.24-4,5.49-8,11-11.68,17.14l-.55,1c-7.85,13.37-13.87,29.55-13.87,53.74,0,19.44,3.89,33.71,9.49,45.5a4.82,4.82,0,0,1,.48.93,2.19,2.19,0,0,1,.12.33c.12.25.25.49.38.74,4.57,9.12,10.14,16.78,15.63,24.34,12.73,17.52,25.9,35.64,25.9,71.25,0,1.11,0,2.2,0,3.28l0,1c-1,32.78-13.63,50.12-25.83,66.92-7.45,10.25-15,20.71-20.11,34.71-.12.32-.23.64-.35,1-3.45,9.9-5.64,21.56-5.64,36.15,0,32,10.54,50,21.92,66,.24.35.49.69.74,1,1.14,1.61,2.29,3.19,3.44,4.77,12.73,17.52,25.9,35.64,25.9,71.25a118.46,118.46,0,0,1-2,22.36c0,.18-.07.35-.1.53a.66.66,0,0,0,0,.14c0,.13,0,.25,0,.38l.21,0,.25-.05a3.86,3.86,0,0,1,.49-.06v0l.21-1.1a120,120,0,0,0,1.93-22.12c0-35.94-13.26-54.19-26.09-71.84-1-1.38-2-2.75-3-4.15l-.73-1c-11.46-16.06-22.18-34-22.18-66.08,0-14.53,2.19-26.14,5.65-36l.35-1c5-13.81,12.54-24.15,19.91-34.29,12.33-17,25.06-34.5,26-67.75Z"/><path class="cls-3" d="M236,804.41c-.08-.33-.15-.65-.23-1-4.66-19.16-13.95-32-23-44.47-8-11-16.21-22.3-21.18-38-.11-.33-.21-.66-.31-1a109.6,109.6,0,0,1-4.42-32.22c0-35.61,13.17-53.73,25.91-71.25,2.84-3.91,5.71-7.85,8.43-12h0c.28-.43.57-.86.84-1.3,9.24-14.33,16.81-31.38,16.81-58.54,0-18.63-3.57-32.51-8.79-44-.14-.32-.28-.63-.43-.95-4.78-10.25-10.87-18.63-16.87-26.87-10.53-14.48-21.35-29.36-24.79-54.18l-.15-1.12a125.15,125.15,0,0,1-1-15.95c0-35.61,13.17-53.73,25.91-71.25,7.21-9.92,14.56-20,19.62-33.36l.4-1.09c3.7-10.16,6.07-22.2,6.07-37.39,0-28.49-8.34-45.87-18.19-60.65-.19-.29-.38-.58-.58-.87-2.39-3.54-4.86-6.94-7.32-10.32C200,169.1,186.85,151,186.85,115.37c0-.27,0-.53,0-.79,0-.42,0-.84,0-1.25v0l-.15.11-.49.38-.16.13-.07,0-.13.07,0,0h0c0,.41,0,.82,0,1.24v.07c0,35.93,13.27,54.19,26.1,71.84,2.39,3.29,4.8,6.6,7.13,10l.58.87c9.84,14.7,18.19,32,18.19,60.34,0,15.32-2.44,27.41-6.23,37.6-.13.37-.27.73-.41,1.09-5,12.95-12.2,22.85-19.26,32.56-12.83,17.65-26.1,35.9-26.1,71.84a125.23,125.23,0,0,0,1.05,16.6c0,.38.1.76.16,1.13,3.54,24.73,14.36,39.62,24.89,54.11,5.92,8.14,11.93,16.41,16.67,26.5.14.31.29.62.43.94,5.23,11.44,8.8,25.25,8.8,43.8,0,27.5-7.85,44.57-17.29,59-.29.45-.59.89-.89,1.33-2.51,3.77-5.12,7.36-7.72,10.93-12.83,17.65-26.1,35.91-26.1,71.84a110.3,110.3,0,0,0,4.55,32.81c.1.34.2.67.31,1,5,15.7,13.21,27,21.24,38,9,12.39,18.21,25.08,22.83,44,.08.31.16.62.23.94l.14,0a2,2,0,0,1,.35-.06Z"/><path class="cls-3" d="M339.12,839l.08,0a2.08,2.08,0,0,1,.36.2,4.6,4.6,0,0,1,.52.38c0-.36,0-.72.07-1.08.2-2.86.32-5.81.32-8.93,0-35.94-13.27-54.19-26.1-71.84C304.42,744,294.2,730,290.21,707.49c-.07-.38-.13-.75-.19-1.13a120.27,120.27,0,0,1-1.55-19.87c0-34.12,12.1-52.18,24.31-69l.58-.81,1-1.38c12.83-17.66,26.1-35.91,26.1-71.84q0-4.44-.27-8.53c0-.41-.05-.82-.08-1.23C338,504,326,487.55,314.37,471.57c-12.52-17.23-25.47-35.05-25.89-69.51,0-.36,0-.72,0-1.08v-.66c0-35.61,13.17-53.73,25.9-71.25,2.45-3.37,4.91-6.76,7.3-10.3l.56-.83c9.87-14.78,18.24-32.17,18.24-60.7a114.44,114.44,0,0,0-3.29-28.33c-.12-.48-.25-1-.37-1.43-4.83-17.86-13.74-30.11-22.44-42.08-12.73-17.53-25.9-35.65-25.9-71.26a122.87,122.87,0,0,1,1.06-16.56c0-.32.09-.63.13-.94a4.73,4.73,0,0,1-1-.22c0,.27-.08.55-.11.82a125.89,125.89,0,0,0-1.09,16.9c0,35.94,13.26,54.19,26.09,71.84,8.46,11.64,17.11,23.54,22,40.66.14.48.27,1,.4,1.46a112.07,112.07,0,0,1,3.54,29.14c0,28.22-8.28,45.46-18.06,60.12l-.55.83c-2.39,3.53-4.85,6.92-7.3,10.29-12.83,17.66-26.09,35.91-26.09,71.84v.34c0,.36,0,.71,0,1.06.34,35,13.42,53,26.08,70.44C325,487.88,336.77,504.09,339.07,533l.09,1.23c.2,2.93.31,6,.31,9.19,0,35.61-13.17,53.73-25.91,71.25-.34.47-.69.94-1,1.42l-.59.81c-12.3,17-24.47,35.18-24.47,69.6A123.38,123.38,0,0,0,288.93,706c.07.37.13.75.19,1.12,3.94,23,14.33,37.32,24.44,51.23,12.74,17.52,25.91,35.64,25.91,71.25,0,2.89-.1,5.65-.28,8.32C339.17,838.26,339.15,838.62,339.12,839Z"/><path class="cls-3" d="M439.93,846.77s0,.05,0,.08l.28-.2.14-.09.67-.28c0-.38.1-.77.14-1.16a125,125,0,0,0,.93-15.54c0-35.94-13.27-54.19-26.1-71.84-1.21-1.67-2.43-3.35-3.64-5l-.66-.92c-11.23-15.85-21.6-33.68-21.6-65.28,0-13.8,2-25,5.15-34.5.11-.34.22-.67.34-1,5-14.54,12.79-25.25,20.41-35.74,12.83-17.66,26.1-35.91,26.1-71.84,0-.83,0-1.64,0-2.45,0-.37,0-.74,0-1.1-.84-33.61-13.65-51.23-26.05-68.29-5.18-7.14-10.45-14.38-14.86-22.86-.17-.33-.34-.66-.5-1-6.16-12.14-10.54-26.86-10.54-47.4,0-24,6-40.07,13.79-53.35.2-.35.41-.69.61-1,3.61-6,7.58-11.47,11.5-16.87,12.83-17.65,26.1-35.9,26.1-71.83a121.51,121.51,0,0,0-1.7-20.9c-.06-.34-.13-.69-.19-1C436.08,213,425.9,199,416,185.4c-8.59-11.82-17.37-23.94-22.17-41.49-.1-.33-.19-.67-.28-1,0,0,0,0,0-.05a3.91,3.91,0,0,1-.49,0,4.93,4.93,0,0,1-.55,0v0c.08.34.17.68.27,1,4.82,17.86,13.72,30.13,22.42,42.1,9.88,13.6,20,27.56,24.07,49.77l.18,1a120,120,0,0,1,1.65,20.47c0,35.6-13.17,53.72-25.9,71.24-4.07,5.6-8.18,11.26-11.9,17.52l-.6,1c-7.72,13.29-13.6,29.37-13.6,53.29,0,20.52,4.32,35.27,10.43,47.43.16.33.33.66.5,1,4.48,8.72,9.86,16.12,15.17,23.42,12.36,17,25.13,34.58,25.86,68.17,0,.36,0,.73,0,1.09,0,.66,0,1.32,0,2,0,35.61-13.17,53.73-25.9,71.25-7.73,10.64-15.63,21.5-20.68,36.32l-.33,1a109.2,109.2,0,0,0-5.09,34.52c0,31.61,10.27,49.54,21.47,65.41l.66.93c1.32,1.85,2.65,3.68,4,5.5,12.73,17.52,25.9,35.64,25.9,71.25a124.11,124.11,0,0,1-1,16C440,846,440,846.38,439.93,846.77Z"/><path class="cls-3" d="M540.13,803.2a2.42,2.42,0,0,1,.38,0,2.2,2.2,0,0,1,.36,0v0c-.08-.34-.16-.67-.25-1-4.65-19.17-13.94-32-23-44.5-9.39-12.92-19-26.16-23.43-46.49l-.21-1a117.2,117.2,0,0,1-2.27-23.75c0-35.6,13.17-53.72,25.91-71.24,3.46-4.75,6.94-9.55,10.18-14.72.23-.35.45-.7.67-1.06,8.51-13.83,15.24-30.46,15.24-56.06,0-19.12-3.75-33.24-9.2-44.92-.15-.33-.3-.66-.47-1-4.71-9.83-10.6-17.94-16.42-25.94-11.85-16.29-24.06-33.1-25.72-64,0-.37,0-.74,0-1.11-.09-2-.14-4-.14-6.13,0-35.61,13.17-53.73,25.91-71.25,7.31-10.05,14.75-20.3,19.81-33.89.13-.33.25-.67.37-1,3.61-10.07,5.91-22,5.91-36.94,0-29.95-9.21-47.62-19.7-62.89l-.64-.93c-1.9-2.73-3.83-5.38-5.75-8-12.74-17.53-25.91-35.65-25.91-71.26,0-4.09.19-7.94.52-11.59,0-.4.07-.79.11-1.18v0a8,8,0,0,1-1.05.46s0,.07,0,.1c0,.39-.07.79-.11,1.19-.29,3.49-.46,7.16-.46,11.05,0,35.94,13.27,54.19,26.1,71.84,1.82,2.5,3.64,5,5.43,7.58l.65.93c10.52,15.25,19.82,32.83,19.82,62.75,0,15-2.34,26.9-6,37-.12.34-.25.67-.37,1-5,13.31-12.34,23.39-19.53,33.28-12.83,17.66-26.1,35.91-26.1,71.84q0,3.42.16,6.63,0,.56.06,1.11c1.75,30.91,14,47.76,25.88,64.1,5.7,7.84,11.48,15.8,16.13,25.4.16.32.32.65.47,1,5.5,11.65,9.3,25.74,9.3,44.87,0,25.74-6.88,42.34-15.5,56.18-.22.36-.45.72-.68,1.07-3.11,4.9-6.43,9.47-9.72,14-12.83,17.65-26.1,35.9-26.1,71.83a118.34,118.34,0,0,0,2.33,24.2c.08.34.15.67.22,1,4.47,20.38,14.13,33.67,23.55,46.63,9,12.36,18.17,25,22.81,43.9l.24,1Z"/><path class="cls-3" d="M642.94,848.17v0s.05,0,.08,0l.46.16h0l.41.19v0q.09-.51.15-1a122.33,122.33,0,0,0,1.26-18c0-35.94-13.27-54.19-26.1-71.84-8.29-11.4-16.75-23-21.66-39.6-.14-.48-.28-1-.41-1.45a111.23,111.23,0,0,1-3.83-30.2c0-28.31,8.32-45.57,18.14-60.26.18-.28.37-.56.56-.83,2.35-3.48,4.78-6.83,7.2-10.15,12.73-17.52,25.89-35.62,26.09-71,0-.28,0-.56,0-.84v-.23c-.06-35.79-13.3-54-26.1-71.61-11.41-15.69-23.15-31.86-25.48-60.64,0-.41-.07-.81-.09-1.22q-.33-4.49-.33-9.39c0-35.61,13.16-53.73,25.9-71.25l1-1.43.59-.81c12.31-17,24.48-35.18,24.48-69.59a123.67,123.67,0,0,0-1.22-17.83c0-.38-.11-.76-.17-1.13-3.72-24-14.36-38.64-24.71-52.88-12.74-17.53-25.9-35.65-25.9-71.26q0-4.23.25-8.14c0-.38,0-.76.07-1.14,0-.06,0-.12,0-.18a4.27,4.27,0,0,1-1-.39h0c0,.37,0,.75-.07,1.13-.19,2.78-.28,5.69-.28,8.71,0,35.94,13.26,54.19,26.09,71.84,10.2,14,20.67,28.44,24.44,51.89.07.38.13.77.18,1.15a122.75,122.75,0,0,1,1.29,18.22c0,34.11-12.09,52.17-24.3,69l-.59.81-1,1.4c-12.83,17.66-26.09,35.91-26.09,71.84,0,3,.1,6,.28,8.78,0,.41.05.82.09,1.22,2.2,29.48,14.14,45.91,25.72,61.84,12.67,17.42,25.76,35.43,25.91,70.64v1.08c-.12,35.3-13.23,53.34-25.91,70.78-2.42,3.32-4.85,6.66-7.21,10.14l-.55.84c-9.91,14.82-18.33,32.22-18.33,60.85a113.48,113.48,0,0,0,3.56,29.41c.13.48.26,1,.4,1.42,4.88,17.28,13.6,29.28,22.13,41,12.74,17.52,25.91,35.64,25.91,71.25a121.71,121.71,0,0,1-1.22,17.58C643,847.5,643,847.84,642.94,848.17Z"/><path class="cls-3" d="M745.78,835.47v.11a4.75,4.75,0,0,1,1-.72v-.1c0-.41,0-.82.05-1.24,0-1.29.06-2.6.06-3.94,0-35.94-13.27-54.19-26.1-71.84-2-2.77-4-5.55-6-8.41l-.6-.88c-10.3-15.06-19.29-32.55-19.29-62,0-14.37,2.14-25.9,5.55-35.68.12-.36.25-.72.37-1.07,5-13.91,12.58-24.3,20-34.49,12.83-17.66,26.1-35.91,26.1-71.84a128.49,128.49,0,0,0-.64-13.11l-.12-1.13c-3-26.85-14.33-42.45-25.34-57.6-5.56-7.66-11.21-15.43-15.81-24.72l-.45-.94c-5.68-11.79-9.64-26.06-9.64-45.59,0-25.8,6.91-42.42,15.57-56.28.25-.42.51-.83.77-1.23,3.07-4.81,6.33-9.29,9.56-13.74,12.83-17.65,26.1-35.9,26.1-71.83a112.4,112.4,0,0,0-3.85-30.43c-.09-.34-.19-.67-.28-1-4.92-17-13.54-28.81-22-40.41-8.74-12-17.67-24.34-22.41-42.37-.09-.32-.18-.65-.26-1v0a5.67,5.67,0,0,1-.94.08h-.08l0,.08c.08.33.17.66.25,1,4.78,18.26,13.8,30.69,22.62,42.83,8.42,11.59,17,23.43,21.9,40.42.1.33.19.66.28,1a111.6,111.6,0,0,1,3.73,29.84c0,35.6-13.17,53.72-25.91,71.24-3.44,4.74-6.91,9.52-10.15,14.68-.26.4-.51.81-.76,1.22-8.48,13.81-15.18,30.41-15.18,55.94,0,19.59,3.94,33.93,9.61,45.77.15.32.3.63.46.94,4.64,9.47,10.37,17.36,16,25.13,11,15.14,22.34,30.73,25.22,57.66,0,.37.07.74.11,1.12.38,3.91.58,8,.58,12.47,0,35.61-13.17,53.73-25.91,71.25-7.54,10.38-15.24,21-20.29,35.24-.13.35-.25.7-.37,1.06-3.33,9.76-5.43,21.25-5.43,35.53,0,29.55,9,47.14,19.28,62.26l.6.87c2,3,4.13,5.85,6.21,8.71,12.74,17.52,25.91,35.64,25.91,71.25,0,1.59,0,3.14-.08,4.65Z"/><path class="cls-3" d="M831.68,600.13c-3.2,5.1-6.64,9.84-10,14.53-12.83,17.65-26.1,35.9-26.1,71.83a123.1,123.1,0,0,0,1.2,17.66c0,.34.09.67.14,1,3.68,24.18,14.36,38.88,24.76,53.18,9.2,12.66,18.62,25.64,23.14,45.28l.24,1.06c0,.06,0,.12,0,.18a6.11,6.11,0,0,1,1,.06s0,0,0-.07c-.07-.36-.15-.72-.23-1.07-4.52-20-14.08-33.19-23.4-46-10.34-14.22-21-28.83-24.59-52.85-.06-.33-.1-.66-.15-1a122.67,122.67,0,0,1-1.17-17.4c0-35.6,13.17-53.72,25.91-71.24,3.53-4.86,7.09-9.76,10.4-15.07l.59-1c8.44-13.78,15.1-30.36,15.1-55.81,0-18.79-3.63-32.75-8.93-44.31-.16-.35-.32-.7-.49-1.05-4.75-10.07-10.76-18.33-16.67-26.48-12.73-17.51-25.89-35.61-25.91-71.17v-.08c0-.33,0-.65,0-1,.23-35,13.28-52.92,25.9-70.28,7.13-9.81,14.39-19.81,19.44-32.92l.36-1c3.83-10.28,6.29-22.48,6.29-37.95,0-30.44-9.52-48.19-20.22-63.63l-.36-.53,0,0-.06-.08a3.09,3.09,0,0,1-.26-.37l0,0c-1.7-2.43-3.43-4.8-5.14-7.16-12.74-17.53-25.91-35.65-25.91-71.26a120.44,120.44,0,0,1,1.6-20.1c-.13,0-.25.07-.38.09s-.21,0-.31.08-.25,0-.37.08,0,.06,0,.09c-.06.36-.12.72-.17,1.08a122.68,122.68,0,0,0-1.36,18.68c0,35.94,13.27,54.19,26.1,71.84,1.58,2.17,3.17,4.36,4.74,6.58l.71,1c10.78,15.47,20.45,33.14,20.45,63.66,0,15.43-2.47,27.58-6.32,37.82-.12.32-.24.64-.37,1-5,12.91-12.17,22.77-19.21,32.46-12.75,17.54-25.93,35.67-26.1,71.14v1.05c.09,35.71,13.31,53.9,26.1,71.49,5.77,7.94,11.63,16,16.31,25.77.17.35.34.7.5,1.05,5.38,11.57,9.09,25.54,9.09,44.43,0,25.47-6.74,42-15.24,55.75C832.1,599.49,831.89,599.81,831.68,600.13Z"/></g></g></svg>