<svg xmlns="http://www.w3.org/2000/svg" viewBox="0 0 411.91 72.28"><defs><style>.cls-1{fill:#fff;}.cls-2{fill:none;}</style></defs><title>Asset 57</title><g id="Layer_2" data-name="Layer 2"><g id="Layer_1-2" data-name="Layer 1"><path class="cls-1" d="M24.42,33.48h2.2l8,38h-2.1L30,58.88H11.32L3.87,71.48H1.72Zm5.15,23.6-4.4-21.55L12.37,57.08Z"/><path class="cls-1" d="M61.47,33.48h10q5,0,7.68,2.17a7.57,7.57,0,0,1,2.67,6.23,9.66,9.66,0,0,1-2.08,6.17,10.11,10.11,0,0,1-5.67,3.52A7.84,7.84,0,0,1,79,54.46a8.87,8.87,0,0,1,1.77,5.63,10.72,10.72,0,0,1-1.6,5.78,11.27,11.27,0,0,1-4.6,4.1,15,15,0,0,1-6.9,1.53H54.12Zm-5,36.1H67.72a11.64,11.64,0,0,0,8-2.65,8.89,8.89,0,0,0,3-7q0-7.4-9-7.4h-10Zm3.65-18.95h9.7a10.81,10.81,0,0,0,7.3-2.33A7.91,7.91,0,0,0,79.82,42q0-6.6-8.3-6.6H63.07Z"/><path class="cls-1" d="M119.12,72.28a18.73,18.73,0,0,1-9-2.12,15.7,15.7,0,0,1-6.28-6.08,17.75,17.75,0,0,1-2.3-9.1,23.6,23.6,0,0,1,2.6-10.92,21.66,21.66,0,0,1,7.27-8.23,18.24,18.24,0,0,1,10.42-3.15,18.63,18.63,0,0,1,8.93,2.13,15.67,15.67,0,0,1,6.27,6.1,17.89,17.89,0,0,1,2.3,9.13A23.62,23.62,0,0,1,136.77,61a21.46,21.46,0,0,1-7.28,8.2A18.26,18.26,0,0,1,119.12,72.28Zm.1-2A16.29,16.29,0,0,0,128,67.76a19.56,19.56,0,0,0,6.73-7.23,20.65,20.65,0,0,0,2.6-10.25,16.8,16.8,0,0,0-1.9-8A13.83,13.83,0,0,0,130,36.66a16.37,16.37,0,0,0-8.25-2,16.17,16.17,0,0,0-6.65,1.42,18.33,18.33,0,0,0-5.77,4.1,20.27,20.27,0,0,0-4.12,6.45,21.17,21.17,0,0,0-1.55,8.13,16.64,16.64,0,0,0,1.9,8A13.86,13.86,0,0,0,111,68.31,16.36,16.36,0,0,0,119.22,70.33Z"/><path class="cls-1" d="M172.27,72.28a15.11,15.11,0,0,1-6.85-1.5,11.22,11.22,0,0,1-4.7-4.33,12.59,12.59,0,0,1-1.7-6.62,16.58,16.58,0,0,1,.35-3.35l4.45-23h2l-4.35,22.6a17.83,17.83,0,0,0-.35,3.6q0,5.05,3,7.85t8.35,2.8A13.13,13.13,0,0,0,182,66.78q3.68-3.55,5-10.5l4.4-22.8h2l-4.5,23.2q-1.5,7.75-5.7,11.67A15.39,15.39,0,0,1,172.27,72.28Z"/><path class="cls-1" d="M226.21,35.33H212.46l.35-1.85h29.5L242,35.33H228.21l-7,36.15h-2Z"/><rect class="cls-2" width="411.91" height="71.88"/></g></g></svg>