<svg xmlns="http://www.w3.org/2000/svg" viewBox="0 0 411.91 72.08"><defs><style>.cls-1{fill:#fff;}.cls-2{fill:none;}</style></defs><title>Asset 54</title><g id="Layer_2" data-name="Layer 2"><g id="Layer_1-2" data-name="Layer 1"><path class="cls-1" d="M241.66,71.83a18.79,18.79,0,0,1-8.92-2,14.85,14.85,0,0,1-6.08-5.92,18.07,18.07,0,0,1-2.2-9.08,23.26,23.26,0,0,1,2.65-11,20.61,20.61,0,0,1,7.47-8,20.26,20.26,0,0,1,10.93-3,21.3,21.3,0,0,1,6.15.9,17.78,17.78,0,0,1,5.35,2.6l-.55,1.9a18.67,18.67,0,0,0-11.1-3.45,18.14,18.14,0,0,0-9.33,2.5,18.76,18.76,0,0,0-6.87,7,20.29,20.29,0,0,0-2.6,10.25,17.2,17.2,0,0,0,1.8,8,13,13,0,0,0,5.22,5.43,16.16,16.16,0,0,0,8.13,1.95,24.7,24.7,0,0,0,5.5-.65,28.19,28.19,0,0,0,5.3-1.75l0,2a22,22,0,0,1-5.17,1.77A26.87,26.87,0,0,1,241.66,71.83Z"/><path class="cls-1" d="M292.31,72.08a18.73,18.73,0,0,1-9-2.12,15.7,15.7,0,0,1-6.28-6.08,17.75,17.75,0,0,1-2.3-9.1,23.6,23.6,0,0,1,2.6-10.92,21.66,21.66,0,0,1,7.27-8.23,18.24,18.24,0,0,1,10.42-3.15A18.63,18.63,0,0,1,304,34.61a15.67,15.67,0,0,1,6.27,6.1,17.89,17.89,0,0,1,2.3,9.13A23.62,23.62,0,0,1,310,60.76a21.46,21.46,0,0,1-7.28,8.2A18.26,18.26,0,0,1,292.31,72.08Zm.1-2a16.29,16.29,0,0,0,8.77-2.57,19.56,19.56,0,0,0,6.73-7.23,20.65,20.65,0,0,0,2.6-10.25,16.8,16.8,0,0,0-1.9-8,13.83,13.83,0,0,0-5.45-5.58,16.37,16.37,0,0,0-8.25-2,16.17,16.17,0,0,0-6.65,1.42,18.33,18.33,0,0,0-5.77,4.1,20.27,20.27,0,0,0-4.12,6.45,21.17,21.17,0,0,0-1.55,8.13,16.64,16.64,0,0,0,1.9,8,13.86,13.86,0,0,0,5.45,5.55A16.36,16.36,0,0,0,292.41,70.13Z"/><path class="cls-1" d="M338,33.28h10.4q8.4,0,13.08,4.17t4.67,11.63a23,23,0,0,1-2.85,11.58,19.6,19.6,0,0,1-8.25,7.83,27.23,27.23,0,0,1-12.7,2.8h-11.7Zm-5,36.1h9.6A24.45,24.45,0,0,0,353.74,67a18,18,0,0,0,7.55-7A20.56,20.56,0,0,0,364,49.23q0-6.8-4-10.42t-11.7-3.62h-8.6Z"/><path class="cls-1" d="M391.36,33.28h20.55l-.35,1.85H393l-3,15.7h16.9l-.35,1.75h-16.9l-3.25,16.85h19.8l-.35,1.85H384Z"/><rect class="cls-2" width="411.91" height="71.88"/></g></g></svg>