<svg xmlns="http://www.w3.org/2000/svg" viewBox="0 0 2381.77 1424.21"><defs><style>.cls-1{fill:none;stroke:#000;stroke-miterlimit:10;stroke-width:2px;}</style></defs><title>Asset 80</title><g id="Layer_2" data-name="Layer 2"><g id="Layer_1-2" data-name="Layer 1"><line class="cls-1" x1="1" y1="1" x2="2381.77" y2="1"/><line class="cls-1" x1="1" y1="19.2" x2="2381.77" y2="19.2"/><line class="cls-1" x1="1" y1="36.92" x2="2381.77" y2="36.92"/><line class="cls-1" x1="1" y1="55.12" x2="2381.77" y2="55.12"/><line class="cls-1" x1="0.29" y1="72.89" x2="2381.06" y2="72.89"/><line class="cls-1" x1="0.29" y1="90.62" x2="2381.06" y2="90.62"/><line class="cls-1" x1="0.29" y1="108.95" x2="2381.06" y2="108.95"/><line class="cls-1" x1="0.29" y1="127.27" x2="2381.06" y2="127.27"/><line class="cls-1" x1="0.29" y1="145.02" x2="2381.06" y2="145.02"/><line class="cls-1" x1="0.29" y1="163" x2="2381.06" y2="163"/><line class="cls-1" x1="0.29" y1="181.09" x2="2381.06" y2="181.09"/><line class="cls-1" x1="0.29" y1="199.06" x2="2381.06" y2="199.06"/><line class="cls-1" x1="0.29" y1="217.04" x2="2381.06" y2="217.04"/><line class="cls-1" x1="0.29" y1="235.01" x2="2381.06" y2="235.01"/><line class="cls-1" x1="0.81" y1="253.02" x2="2381.58" y2="253.02"/><line class="cls-1" x1="0.29" y1="270.96" x2="2381.06" y2="270.96"/><line class="cls-1" x1="0.29" y1="288.82" x2="2381.06" y2="288.82"/><line class="cls-1" x1="0.29" y1="307.2" x2="2381.06" y2="307.2"/><line class="cls-1" x1="0.29" y1="324.99" x2="2381.06" y2="324.99"/><line class="cls-1" x1="0.29" y1="342.92" x2="2381.06" y2="342.92"/><line class="cls-1" x1="1" y1="361.11" x2="2381.77" y2="361.11"/><line class="cls-1" x1="1" y1="379.31" x2="2381.77" y2="379.31"/><line class="cls-1" x1="1" y1="397.02" x2="2381.77" y2="397.02"/><line class="cls-1" x1="1" y1="415.23" x2="2381.77" y2="415.23"/><line class="cls-1" x1="0.29" y1="432.99" x2="2381.06" y2="432.99"/><line class="cls-1" x1="0.29" y1="450.73" x2="2381.06" y2="450.73"/><line class="cls-1" x1="0.29" y1="469.06" x2="2381.06" y2="469.06"/><line class="cls-1" x1="0.29" y1="487.37" x2="2381.06" y2="487.37"/><line class="cls-1" x1="0.29" y1="505.13" x2="2381.06" y2="505.13"/><line class="cls-1" x1="0.29" y1="523.1" x2="2381.06" y2="523.1"/><line class="cls-1" x1="0.29" y1="541.19" x2="2381.06" y2="541.19"/><line class="cls-1" x1="0.29" y1="559.17" x2="2381.06" y2="559.17"/><line class="cls-1" x1="0.29" y1="577.14" x2="2381.06" y2="577.14"/><line class="cls-1" x1="0.29" y1="595.12" x2="2381.06" y2="595.12"/><line class="cls-1" x1="0.81" y1="613.12" x2="2381.58" y2="613.12"/><line class="cls-1" x1="0.29" y1="631.07" x2="2381.06" y2="631.07"/><line class="cls-1" x1="0.29" y1="648.92" x2="2381.06" y2="648.92"/><line class="cls-1" x1="0.29" y1="667.3" x2="2381.06" y2="667.3"/><line class="cls-1" x1="0.29" y1="685.09" x2="2381.06" y2="685.09"/><line class="cls-1" x1="0.29" y1="703.03" x2="2381.06" y2="703.03"/><line class="cls-1" x1="1" y1="721.18" x2="2381.77" y2="721.18"/><line class="cls-1" x1="1" y1="739.39" x2="2381.77" y2="739.39"/><line class="cls-1" x1="1" y1="757.1" x2="2381.77" y2="757.1"/><line class="cls-1" x1="1" y1="775.31" x2="2381.77" y2="775.31"/><line class="cls-1" x1="0.29" y1="793.07" x2="2381.06" y2="793.07"/><line class="cls-1" x1="0.29" y1="810.81" x2="2381.06" y2="810.81"/><line class="cls-1" x1="0.29" y1="829.14" x2="2381.06" y2="829.14"/><line class="cls-1" x1="0.29" y1="847.45" x2="2381.06" y2="847.45"/><line class="cls-1" x1="0.29" y1="865.21" x2="2381.06" y2="865.21"/><line class="cls-1" x1="0.29" y1="883.18" x2="2381.06" y2="883.18"/><line class="cls-1" x1="0.29" y1="901.27" x2="2381.06" y2="901.27"/><line class="cls-1" x1="0.29" y1="919.25" x2="2381.06" y2="919.25"/><line class="cls-1" x1="0.29" y1="937.22" x2="2381.06" y2="937.22"/><line class="cls-1" x1="0.29" y1="955.2" x2="2381.06" y2="955.2"/><line class="cls-1" x1="0.81" y1="973.2" x2="2381.58" y2="973.2"/><line class="cls-1" x1="0.29" y1="991.15" x2="2381.06" y2="991.15"/><line class="cls-1" x1="0.29" y1="1009" x2="2381.06" y2="1009"/><line class="cls-1" x1="0.29" y1="1027.38" x2="2381.06" y2="1027.38"/><line class="cls-1" x1="0.29" y1="1045.17" x2="2381.06" y2="1045.17"/><line class="cls-1" x1="0.29" y1="1063.11" x2="2381.06" y2="1063.11"/><line class="cls-1" x1="1" y1="1081.29" x2="2381.77" y2="1081.29"/><line class="cls-1" x1="1" y1="1099.49" x2="2381.77" y2="1099.49"/><line class="cls-1" x1="1" y1="1117.21" x2="2381.77" y2="1117.21"/><line class="cls-1" x1="1" y1="1135.41" x2="2381.77" y2="1135.41"/><line class="cls-1" x1="0.29" y1="1153.18" x2="2381.06" y2="1153.18"/><line class="cls-1" x1="0.29" y1="1170.91" x2="2381.06" y2="1170.91"/><line class="cls-1" x1="0.29" y1="1189.24" x2="2381.06" y2="1189.24"/><line class="cls-1" x1="0.29" y1="1207.56" x2="2381.06" y2="1207.56"/><line class="cls-1" x1="0.29" y1="1225.31" x2="2381.06" y2="1225.31"/><line class="cls-1" x1="0.29" y1="1243.29" x2="2381.06" y2="1243.29"/><line class="cls-1" x1="0.29" y1="1261.38" x2="2381.06" y2="1261.38"/><line class="cls-1" x1="0.29" y1="1279.35" x2="2381.06" y2="1279.35"/><line class="cls-1" x1="0.29" y1="1297.33" x2="2381.06" y2="1297.33"/><line class="cls-1" x1="0.29" y1="1315.3" x2="2381.06" y2="1315.3"/><line class="cls-1" x1="0.81" y1="1333.31" x2="2381.58" y2="1333.31"/><line class="cls-1" x1="0.29" y1="1351.25" x2="2381.06" y2="1351.25"/><line class="cls-1" x1="0.29" y1="1369.11" x2="2381.06" y2="1369.11"/><line class="cls-1" x1="0.29" y1="1387.49" x2="2381.06" y2="1387.49"/><line class="cls-1" x1="0.29" y1="1405.28" x2="2381.06" y2="1405.28"/><line class="cls-1" x1="0.29" y1="1423.21" x2="2381.06" y2="1423.21"/><line class="cls-1" x1="1423.21" y1="1.43" x2="1423.21" y2="1423.21"/><line class="cls-1" x1="1405.01" y1="1.43" x2="1405.01" y2="1423.21"/><line class="cls-1" x1="1387.3" y1="1.43" x2="1387.3" y2="1423.21"/><line class="cls-1" x1="1369.09" y1="1.43" x2="1369.09" y2="1423.21"/><line class="cls-1" x1="1351.33" y1="1" x2="1351.33" y2="1422.79"/><line class="cls-1" x1="1333.59" y1="1" x2="1333.59" y2="1422.79"/><line class="cls-1" x1="1315.26" y1="1" x2="1315.26" y2="1422.79"/><line class="cls-1" x1="1296.95" y1="1" x2="1296.95" y2="1422.79"/><line class="cls-1" x1="1279.19" y1="1" x2="1279.19" y2="1422.79"/><line class="cls-1" x1="1261.22" y1="1" x2="1261.22" y2="1422.79"/><line class="cls-1" x1="1243.12" y1="1" x2="1243.12" y2="1422.79"/><line class="cls-1" x1="1225.15" y1="1" x2="1225.15" y2="1422.79"/><line class="cls-1" x1="1207.18" y1="1" x2="1207.18" y2="1422.79"/><line class="cls-1" x1="1189.2" y1="1" x2="1189.2" y2="1422.79"/><line class="cls-1" x1="1171.19" y1="1.31" x2="1171.19" y2="1423.1"/><line class="cls-1" x1="1153.25" y1="1" x2="1153.25" y2="1422.79"/><line class="cls-1" x1="1135.4" y1="1" x2="1135.4" y2="1422.79"/><line class="cls-1" x1="1117.02" y1="1" x2="1117.02" y2="1422.79"/><line class="cls-1" x1="1099.23" y1="1" x2="1099.23" y2="1422.79"/><line class="cls-1" x1="1081.29" y1="1" x2="1081.29" y2="1422.79"/><line class="cls-1" x1="1063.11" y1="1.43" x2="1063.11" y2="1423.21"/><line class="cls-1" x1="1044.9" y1="1.43" x2="1044.9" y2="1423.21"/><line class="cls-1" x1="1027.19" y1="1.43" x2="1027.19" y2="1423.21"/><line class="cls-1" x1="1008.99" y1="1.43" x2="1008.99" y2="1423.21"/><line class="cls-1" x1="991.22" y1="1" x2="991.22" y2="1422.79"/><line class="cls-1" x1="973.49" y1="1" x2="973.49" y2="1422.79"/><line class="cls-1" x1="955.15" y1="1" x2="955.15" y2="1422.79"/><line class="cls-1" x1="936.84" y1="1" x2="936.84" y2="1422.79"/><line class="cls-1" x1="919.09" y1="1" x2="919.09" y2="1422.79"/><line class="cls-1" x1="901.11" y1="1" x2="901.11" y2="1422.79"/><line class="cls-1" x1="883.02" y1="1" x2="883.02" y2="1422.79"/><line class="cls-1" x1="865.04" y1="1" x2="865.04" y2="1422.79"/><line class="cls-1" x1="847.07" y1="1" x2="847.07" y2="1422.79"/><line class="cls-1" x1="829.1" y1="1" x2="829.1" y2="1422.79"/><line class="cls-1" x1="811.09" y1="1.31" x2="811.09" y2="1423.1"/><line class="cls-1" x1="793.15" y1="1" x2="793.15" y2="1422.79"/><line class="cls-1" x1="775.29" y1="1" x2="775.29" y2="1422.79"/><line class="cls-1" x1="756.91" y1="1" x2="756.91" y2="1422.79"/><line class="cls-1" x1="739.12" y1="1" x2="739.12" y2="1422.79"/><line class="cls-1" x1="721.18" y1="1" x2="721.18" y2="1422.79"/><line class="cls-1" x1="703.03" y1="1.43" x2="703.03" y2="1423.21"/><line class="cls-1" x1="684.82" y1="1.43" x2="684.82" y2="1423.21"/><line class="cls-1" x1="667.11" y1="1.43" x2="667.11" y2="1423.21"/><line class="cls-1" x1="648.91" y1="1.43" x2="648.91" y2="1423.21"/><line class="cls-1" x1="631.14" y1="1" x2="631.14" y2="1422.79"/><line class="cls-1" x1="613.41" y1="1" x2="613.41" y2="1422.79"/><line class="cls-1" x1="595.07" y1="1" x2="595.07" y2="1422.79"/><line class="cls-1" x1="576.76" y1="1" x2="576.76" y2="1422.79"/><line class="cls-1" x1="559.01" y1="1" x2="559.01" y2="1422.79"/><line class="cls-1" x1="541.03" y1="1" x2="541.03" y2="1422.79"/><line class="cls-1" x1="522.94" y1="1" x2="522.94" y2="1422.79"/><line class="cls-1" x1="504.96" y1="1" x2="504.96" y2="1422.79"/><line class="cls-1" x1="486.99" y1="1" x2="486.99" y2="1422.79"/><line class="cls-1" x1="469.02" y1="1" x2="469.02" y2="1422.79"/><line class="cls-1" x1="451.01" y1="1.31" x2="451.01" y2="1423.1"/><line class="cls-1" x1="433.07" y1="1" x2="433.07" y2="1422.79"/><line class="cls-1" x1="415.21" y1="1" x2="415.21" y2="1422.79"/><line class="cls-1" x1="396.83" y1="1" x2="396.83" y2="1422.79"/><line class="cls-1" x1="379.04" y1="1" x2="379.04" y2="1422.79"/><line class="cls-1" x1="361.11" y1="1" x2="361.11" y2="1422.79"/><line class="cls-1" x1="342.92" y1="1.43" x2="342.92" y2="1423.21"/><line class="cls-1" x1="324.72" y1="1.43" x2="324.72" y2="1423.21"/><line class="cls-1" x1="307.01" y1="1.43" x2="307.01" y2="1423.21"/><line class="cls-1" x1="288.8" y1="1.43" x2="288.8" y2="1423.21"/><line class="cls-1" x1="271.04" y1="1" x2="271.04" y2="1422.79"/><line class="cls-1" x1="253.3" y1="1" x2="253.3" y2="1422.79"/><line class="cls-1" x1="234.97" y1="1" x2="234.97" y2="1422.79"/><line class="cls-1" x1="216.66" y1="1" x2="216.66" y2="1422.79"/><line class="cls-1" x1="198.9" y1="1" x2="198.9" y2="1422.79"/><line class="cls-1" x1="180.93" y1="1" x2="180.93" y2="1422.79"/><line class="cls-1" x1="162.83" y1="1" x2="162.83" y2="1422.79"/><line class="cls-1" x1="144.86" y1="1" x2="144.86" y2="1422.79"/><line class="cls-1" x1="126.89" y1="1" x2="126.89" y2="1422.79"/><line class="cls-1" x1="108.91" y1="1" x2="108.91" y2="1422.79"/><line class="cls-1" x1="90.9" y1="1.31" x2="90.9" y2="1423.1"/><line class="cls-1" x1="72.96" y1="1" x2="72.96" y2="1422.79"/><line class="cls-1" x1="55.11" y1="1" x2="55.11" y2="1422.79"/><line class="cls-1" x1="36.73" y1="1" x2="36.73" y2="1422.79"/><line class="cls-1" x1="18.94" y1="1" x2="18.94" y2="1422.79"/><line class="cls-1" x1="1" y1="1" x2="1" y2="1422.79"/><line class="cls-1" x1="2375.69" y1="1.43" x2="2375.69" y2="1423.21"/><line class="cls-1" x1="2357.93" y1="1.43" x2="2357.93" y2="1423.21"/><line class="cls-1" x1="2339.96" y1="1.43" x2="2339.96" y2="1423.21"/><line class="cls-1" x1="2321.86" y1="1.43" x2="2321.86" y2="1423.21"/><line class="cls-1" x1="2303.89" y1="1.43" x2="2303.89" y2="1423.21"/><line class="cls-1" x1="2285.91" y1="1.43" x2="2285.91" y2="1423.21"/><line class="cls-1" x1="2267.94" y1="1.43" x2="2267.94" y2="1423.21"/><line class="cls-1" x1="2249.93" y1="1.74" x2="2249.93" y2="1423.53"/><line class="cls-1" x1="2231.99" y1="1.43" x2="2231.99" y2="1423.21"/><line class="cls-1" x1="2214.14" y1="1.43" x2="2214.14" y2="1423.21"/><line class="cls-1" x1="2195.75" y1="1.43" x2="2195.75" y2="1423.21"/><line class="cls-1" x1="2177.96" y1="1.43" x2="2177.96" y2="1423.21"/><line class="cls-1" x1="2160.03" y1="1.43" x2="2160.03" y2="1423.21"/><line class="cls-1" x1="2141.87" y1="1.85" x2="2141.87" y2="1423.64"/><line class="cls-1" x1="2123.67" y1="1.85" x2="2123.67" y2="1423.64"/><line class="cls-1" x1="2105.95" y1="1.85" x2="2105.95" y2="1423.64"/><line class="cls-1" x1="2087.75" y1="1.85" x2="2087.75" y2="1423.64"/><line class="cls-1" x1="2069.99" y1="1.43" x2="2069.99" y2="1423.21"/><line class="cls-1" x1="2052.25" y1="1.43" x2="2052.25" y2="1423.21"/><line class="cls-1" x1="2033.92" y1="1.43" x2="2033.92" y2="1423.21"/><line class="cls-1" x1="2015.61" y1="1.43" x2="2015.61" y2="1423.21"/><line class="cls-1" x1="1997.85" y1="1.43" x2="1997.85" y2="1423.21"/><line class="cls-1" x1="1979.88" y1="1.43" x2="1979.88" y2="1423.21"/><line class="cls-1" x1="1961.78" y1="1.43" x2="1961.78" y2="1423.21"/><line class="cls-1" x1="1943.81" y1="1.43" x2="1943.81" y2="1423.21"/><line class="cls-1" x1="1925.83" y1="1.43" x2="1925.83" y2="1423.21"/><line class="cls-1" x1="1907.86" y1="1.43" x2="1907.86" y2="1423.21"/><line class="cls-1" x1="1889.85" y1="1.74" x2="1889.85" y2="1423.53"/><line class="cls-1" x1="1871.91" y1="1.43" x2="1871.91" y2="1423.21"/><line class="cls-1" x1="1854.06" y1="1.43" x2="1854.06" y2="1423.21"/><line class="cls-1" x1="1835.67" y1="1.43" x2="1835.67" y2="1423.21"/><line class="cls-1" x1="1817.88" y1="1.43" x2="1817.88" y2="1423.21"/><line class="cls-1" x1="1799.95" y1="1.43" x2="1799.95" y2="1423.21"/><line class="cls-1" x1="1781.77" y1="1.85" x2="1781.77" y2="1423.64"/><line class="cls-1" x1="1763.56" y1="1.85" x2="1763.56" y2="1423.64"/><line class="cls-1" x1="1745.85" y1="1.85" x2="1745.85" y2="1423.64"/><line class="cls-1" x1="1727.64" y1="1.85" x2="1727.64" y2="1423.64"/><line class="cls-1" x1="1709.88" y1="1.43" x2="1709.88" y2="1423.21"/><line class="cls-1" x1="1692.14" y1="1.43" x2="1692.14" y2="1423.21"/><line class="cls-1" x1="1673.81" y1="1.43" x2="1673.81" y2="1423.21"/><line class="cls-1" x1="1655.5" y1="1.43" x2="1655.5" y2="1423.21"/><line class="cls-1" x1="1637.74" y1="1.43" x2="1637.74" y2="1423.21"/><line class="cls-1" x1="1619.77" y1="1.43" x2="1619.77" y2="1423.21"/><line class="cls-1" x1="1601.68" y1="1.43" x2="1601.68" y2="1423.21"/><line class="cls-1" x1="1583.7" y1="1.43" x2="1583.7" y2="1423.21"/><line class="cls-1" x1="1565.73" y1="1.43" x2="1565.73" y2="1423.21"/><line class="cls-1" x1="1547.75" y1="1.43" x2="1547.75" y2="1423.21"/><line class="cls-1" x1="1529.75" y1="1.74" x2="1529.75" y2="1423.53"/><line class="cls-1" x1="1511.81" y1="1.43" x2="1511.81" y2="1423.21"/><line class="cls-1" x1="1493.95" y1="1.43" x2="1493.95" y2="1423.21"/><line class="cls-1" x1="1475.57" y1="1.43" x2="1475.57" y2="1423.21"/><line class="cls-1" x1="1457.78" y1="1.43" x2="1457.78" y2="1423.21"/><line class="cls-1" x1="1439.84" y1="1.43" x2="1439.84" y2="1423.21"/></g></g></svg>