<svg xmlns="http://www.w3.org/2000/svg" xmlns:xlink="http://www.w3.org/1999/xlink" viewBox="0 0 779.86 557.59"><defs><style>.cls-1,.cls-4{fill:none;}.cls-2{clip-path:url(#clip-path);}.cls-3{fill:#fff;}.cls-4{stroke:#000;stroke-miterlimit:10;stroke-width:2px;}</style><clipPath id="clip-path" transform="translate(0 0)"><rect class="cls-1" width="779.86" height="557.59"/></clipPath></defs><title>Artwork 35</title><g id="Layer_2" data-name="Layer 2"><g id="Layer_1-2" data-name="Layer 1"><g id="Artwork_35" data-name="Artwork 35"><g class="cls-2"><rect class="cls-3" x="213.89" y="-72.33" width="352.08" height="702.24" transform="translate(2.66 561.27) rotate(-71.67)"/><g class="cls-2"><rect class="cls-4" x="213.89" y="-72.33" width="352.08" height="702.24" transform="translate(2.66 561.27) rotate(-71.67)"/></g><polygon points="155.68 256.11 158.55 255.62 179.08 288.99 201.44 248.37 204.5 247.85 203.28 300.2 200.61 300.65 201.76 252.71 180.29 291.67 178.02 292.05 158.26 260 157.12 308 154.45 308.46 155.68 256.11"/><path d="M250.8,240l2.93-.5L273,288.39l-2.8.47-6.31-16.22-24.88,4.21L232,295.34l-2.87.48ZM263,270.33l-10.73-27.75-12.21,31.64Z" transform="translate(0 0)"/><g class="cls-2"><path d="M311.59,283a27.39,27.39,0,0,1-8.49.1,24.74,24.74,0,0,1-7.74-2.36l.21-2.78a22.84,22.84,0,0,0,7.49,2.51,25.11,25.11,0,0,0,8.23,0q6.33-1.07,9.66-4.93a10.53,10.53,0,0,0,2.45-9.06,8.92,8.92,0,0,0-3.36-5.67q-2.77-2.21-9.14-4.15a47.21,47.21,0,0,1-8.3-3.26,12.72,12.72,0,0,1-4.26-3.46,10.77,10.77,0,0,1-1.85-4.63,12.76,12.76,0,0,1,.82-7.31,14,14,0,0,1,4.87-5.87,19.46,19.46,0,0,1,8.2-3.24,23.91,23.91,0,0,1,7.16-.08,20.61,20.61,0,0,1,6.53,1.88l-.3,2.66a21.59,21.59,0,0,0-12.95-1.93,15.2,15.2,0,0,0-9.31,4.77,10.07,10.07,0,0,0-2.41,8.67,8.09,8.09,0,0,0,1.65,3.9,10.83,10.83,0,0,0,3.75,2.69,52.85,52.85,0,0,0,7,2.56,42.46,42.46,0,0,1,8.16,3.25,13.65,13.65,0,0,1,4.48,3.77,11.87,11.87,0,0,1,2,5,13,13,0,0,1-.86,7.52,14.5,14.5,0,0,1-5.08,6,20.61,20.61,0,0,1-8.62,3.38" transform="translate(0 0)"/><path d="M380.16,271.37a25.36,25.36,0,0,1-12.45-.81,21.24,21.24,0,0,1-9.74-6.69,24,24,0,0,1-5.12-11.62,31.94,31.94,0,0,1,1-15.16,29.29,29.29,0,0,1,7.85-12.61,24.68,24.68,0,0,1,13.19-6.55,25.2,25.2,0,0,1,12.39.82,21.2,21.2,0,0,1,9.75,6.72,24.21,24.21,0,0,1,5.13,11.65,32,32,0,0,1-1,15.16,29,29,0,0,1-7.85,12.58,24.7,24.7,0,0,1-13.13,6.51m-.31-2.62A22,22,0,0,0,391,263.33a26.46,26.46,0,0,0,7.34-11.15,27.94,27.94,0,0,0,1.15-14.26,22.73,22.73,0,0,0-4.35-10.31,18.71,18.71,0,0,0-8.53-6.21,22.14,22.14,0,0,0-11.46-.84,21.9,21.9,0,0,0-8.55,3.4,24.84,24.84,0,0,0-6.78,6.77,27.46,27.46,0,0,0-4,9.53,28.7,28.7,0,0,0-.23,11.19,22.5,22.5,0,0,0,4.35,10.28,18.73,18.73,0,0,0,8.52,6.17,22.13,22.13,0,0,0,11.46.84" transform="translate(0 0)"/><polygon points="432.37 209.3 435.04 208.85 469.58 251.23 470.72 202.81 473.32 202.37 472.09 254.72 469.49 255.16 434.88 212.78 433.74 261.2 431.14 261.64 432.37 209.3"/><polygon points="230.49 312.02 233.35 311.54 253.89 344.9 276.24 304.28 279.31 303.76 278.08 356.11 275.41 356.56 276.56 308.62 255.09 347.58 252.83 347.96 233.07 315.91 231.93 363.92 229.26 364.37 230.49 312.02"/><path d="M325.61,295.93l2.93-.5,19.31,48.87-2.8.47-6.31-16.22-24.88,4.21-7.09,18.49-2.87.49Zm12.2,30.32-10.73-27.75-12.21,31.63Z" transform="translate(0 0)"/><polygon points="387.87 287.93 369.53 291.04 369.58 288.49 408.93 281.83 408.88 284.38 390.54 287.48 389.36 337.28 386.69 337.73 387.87 287.93"/><polygon points="436.14 277.23 438.81 276.78 438.26 300.33 472.08 294.61 472.62 271.06 475.29 270.61 474.06 322.95 471.39 323.4 471.98 297.24 438.16 302.96 437.58 329.12 434.91 329.58 436.14 277.23"/><polygon points="507.98 265.07 535.39 260.44 535.34 262.98 510.6 267.17 510.07 288.8 532.62 284.99 532.54 287.4 510 291.21 509.47 314.42 535.88 309.95 535.83 312.5 506.75 317.42 507.98 265.07"/><polygon points="559.54 256.35 562.35 255.88 575.36 301.56 590.67 251.77 593.27 251.33 606.55 296.15 621.84 245.81 624.77 245.31 607.94 300.3 605.4 300.73 591.93 255.95 576.59 305.61 573.92 306.06 559.54 256.35"/></g></g></g></g></g></svg>