<svg xmlns="http://www.w3.org/2000/svg" viewBox="0 0 3236.74 106"><defs><style>.cls-1{fill:none;stroke:#000;stroke-miterlimit:10;stroke-width:4px;}</style></defs><title>Asset 76</title><g id="Layer_2" data-name="Layer 2"><g id="Layer_1-2" data-name="Layer 1"><path class="cls-1" d="M0,2C107.89,2,107.89,104,215.78,104S323.67,2,431.56,2,539.45,104,647.34,104,755.23,2,863.12,2,971,104,1078.9,104,1186.79,2,1294.68,2s107.89,102,215.78,102S1618.35,2,1726.25,2,1834.14,104,1942,104,2049.92,2,2157.81,2s107.89,102,215.78,102S2481.48,2,2589.37,2s107.89,102,215.78,102S2913.05,2,3020.95,2s107.9,102,215.79,102"/></g></g></svg>