<svg xmlns="http://www.w3.org/2000/svg" viewBox="0 0 794.34 902.3"><defs><style>.cls-1,.cls-2{fill:#fff;}.cls-1,.cls-3,.cls-4{stroke:#000;stroke-miterlimit:10;stroke-width:2px;}.cls-3,.cls-4{fill:none;}.cls-3{stroke-linecap:round;}</style></defs><title>Asset 25</title><g id="Layer_2" data-name="Layer 2"><g id="Layer_1-2" data-name="Layer 1"><rect class="cls-1" x="1" y="1" width="778.26" height="900.07"/><rect class="cls-2" x="1.98" y="2.02" width="776.26" height="688.24"/><path class="cls-3" d="M524.83,611.67c-184-52.15-290.66-243.22-238.51-427.21"/><path class="cls-3" d="M477.18,595.1C293.2,543,186.52,351.88,238.67,167.9"/><path class="cls-3" d="M385.89,564.88c-184-52.15-290.66-243.22-238.51-427.21"/><path class="cls-3" d="M432.19,578.36c-184-52.15-290.66-243.22-238.51-427.21"/><path class="cls-3" d="M338.25,548.32c-184-52.15-290.66-243.22-238.51-427.21"/><rect class="cls-2" x="1.93" y="680.19" width="666.19" height="219.8"/><path class="cls-4" d="M637.71,812.25c-12.66-26.7-25.85-53.18-36.63-80.71Q590,703.26,578.35,675.22H6.11V896.09H671.45C663.23,867.07,650.61,839.45,637.71,812.25Z"/><path class="cls-4" d="M637.71,812.25c-12.66-26.7-25.85-53.18-36.63-80.71Q588.19,698.61,574.53,666H15.15V886.87H668.69C660.55,861.19,649.23,836.56,637.71,812.25Z"/><path class="cls-4" d="M637.71,812.25c-12.66-26.7-25.85-53.18-36.63-80.71Q586.41,694.07,570.74,657H24.19V877.87H665.69C657.88,855.41,647.88,833.7,637.71,812.25Z"/><path class="cls-4" d="M637.71,812.25c-12.66-26.7-25.85-53.18-36.63-80.71s-22-54.89-33.54-82.12H33.12V868.94H662.47C655.22,849.64,646.53,830.85,637.71,812.25Z"/><path class="cls-4" d="M637.71,812.25c-12.66-26.7-25.85-53.18-36.63-80.71q-17.72-45.25-36.84-89.93l-.37-.87H41.8V860.26H659.09C652.59,844,645.2,828,637.71,812.25Z"/><path class="cls-4" d="M637.71,812.25c-12.66-26.7-25.85-53.18-36.63-80.71q-17.72-45.25-36.84-89.93c-1.48-3.46-3-6.91-4.46-10.36H51V850.76H655.19C649.7,837.77,643.73,825,637.71,812.25Z"/><path class="cls-4" d="M637.71,812.25c-12.66-26.7-25.85-53.18-36.63-80.71q-17.72-45.25-36.84-89.93-4-9.4-8.08-18.77H60V842.35H651.56C647.11,832.23,642.43,822.21,637.71,812.25Z"/><path class="cls-4" d="M637.71,812.25c-12.66-26.7-25.85-53.18-36.63-80.71q-17.72-45.25-36.84-89.93-6-14-12-27.87H69.08V833.25H647.49C644.29,826.21,641,819.22,637.71,812.25Z"/><path class="cls-4" d="M637.71,812.25c-12.66-26.7-25.85-53.18-36.63-80.71q-17.72-45.25-36.84-89.93-8-18.66-16.14-37.22H77.93V823.91H643.19Q640.47,818.06,637.71,812.25Z"/><path class="cls-4" d="M637.71,812.25c-12.66-26.7-25.85-53.18-36.63-80.71q-17.72-45.25-36.84-89.93-9.86-23.1-20-46.07H87V815.05H639Z"/><path class="cls-4" d="M601.08,731.54q-17.72-45.25-36.84-89.93-11.71-27.44-23.87-54.68H95.64V806.44h539.3C623.14,781.7,611.08,757.08,601.08,731.54Z"/><path class="cls-4" d="M601.08,731.54q-17.72-45.25-36.84-89.93-13.72-32.14-28-64H105V797.1H630.48C620.14,775.48,609.82,753.86,601.08,731.54Z"/><path class="cls-4" d="M601.08,731.54q-17.72-45.25-36.84-89.93-15.65-36.65-32.06-73H113.76V788.15H626.21C617.33,769.51,608.61,750.78,601.08,731.54Z"/><path class="cls-4" d="M601.08,731.54q-17.72-45.25-36.84-89.93-17.57-41.17-36.1-81.92H122.71V779.21H622C614.58,763.51,607.41,747.71,601.08,731.54Z"/><path class="cls-4" d="M601.08,731.54q-17.72-45.25-36.84-89.93-19.54-45.77-40.24-91H131.82V770.09h485.9C611.84,757.39,606.19,744.58,601.08,731.54Z"/><path class="cls-4" d="M601.08,731.54q-17.72-45.25-36.84-89.93-21.47-50.3-44.35-100H140.77V761.15H613.63C609.22,751.38,605,741.53,601.08,731.54Z"/><path class="cls-4" d="M601.08,731.54q-17.72-45.25-36.84-89.93-23.44-54.91-48.53-109.1H149.89V752H609.58Q605.15,741.86,601.08,731.54Z"/><path class="cls-4" d="M601.08,731.54q-17.72-45.25-36.84-89.93-25.39-59.48-52.72-118.1H158.77V743h447Q603.35,737.31,601.08,731.54Z"/><path class="cls-4" d="M601.08,731.54q-17.72-45.25-36.84-89.93-27.31-64-56.85-127H168.53V734.15H602.13C601.79,733.28,601.42,732.41,601.08,731.54Z"/><rect class="cls-2" x="666.53" y="568.09" width="111.65" height="331.91"/><circle class="cls-1" cx="358.29" cy="806.75" r="93.98"/><rect class="cls-1" x="214.13" y="272.39" width="352.08" height="702.24" transform="translate(-324.4 797.8) rotate(-71.67)"/><path d="M155.92,600.82l2.87-.49,20.53,33.37,22.35-40.62,3.07-.52-1.23,52.35-2.67.45L202,597.42l-21.47,39-2.27.38L158.5,604.71l-1.14,48-2.67.45Z"/><path d="M251,584.73l2.93-.5,19.31,48.87-2.8.47-6.31-16.22-24.88,4.21-7.09,18.49-2.87.49ZM263.24,615,252.5,587.29l-12.21,31.63Z"/><path d="M311.84,627.68a27.39,27.39,0,0,1-8.49.1,24.73,24.73,0,0,1-7.74-2.36l.21-2.78a22.86,22.86,0,0,0,7.49,2.51,25.11,25.11,0,0,0,8.23,0q6.33-1.07,9.66-4.93a10.53,10.53,0,0,0,2.45-9.06,8.93,8.93,0,0,0-3.36-5.67q-2.78-2.21-9.14-4.15a47.29,47.29,0,0,1-8.3-3.26,12.71,12.71,0,0,1-4.26-3.46,10.75,10.75,0,0,1-1.85-4.63,12.76,12.76,0,0,1,.82-7.31,14,14,0,0,1,4.87-5.87,19.48,19.48,0,0,1,8.2-3.24,23.92,23.92,0,0,1,7.16-.08,20.62,20.62,0,0,1,6.53,1.88L324,578a21.58,21.58,0,0,0-12.95-1.93,15.19,15.19,0,0,0-9.31,4.77,10.07,10.07,0,0,0-2.41,8.67,8.09,8.09,0,0,0,1.66,3.91,10.83,10.83,0,0,0,3.75,2.69,52.71,52.71,0,0,0,7,2.56,42.45,42.45,0,0,1,8.17,3.25,13.65,13.65,0,0,1,4.48,3.77,11.87,11.87,0,0,1,2,5,13,13,0,0,1-.85,7.52,14.5,14.5,0,0,1-5.08,6A20.63,20.63,0,0,1,311.84,627.68Z"/><path d="M380.4,616.08a25.35,25.35,0,0,1-12.45-.81,21.24,21.24,0,0,1-9.74-6.69A24,24,0,0,1,353.09,597a32,32,0,0,1,1-15.16,29.31,29.31,0,0,1,7.85-12.61,24.68,24.68,0,0,1,13.2-6.55,25.2,25.2,0,0,1,12.38.82,21.2,21.2,0,0,1,9.75,6.72,24.21,24.21,0,0,1,5.13,11.65,32,32,0,0,1-1,15.16,29,29,0,0,1-7.85,12.58A24.71,24.71,0,0,1,380.4,616.08Zm-.31-2.62A22,22,0,0,0,391.22,608a26.46,26.46,0,0,0,7.34-11.16,27.93,27.93,0,0,0,1.16-14.26,22.72,22.72,0,0,0-4.35-10.31,18.7,18.7,0,0,0-8.53-6.21,22.14,22.14,0,0,0-11.46-.84,21.89,21.89,0,0,0-8.55,3.4,24.8,24.8,0,0,0-6.78,6.77,27.44,27.44,0,0,0-4,9.53,28.67,28.67,0,0,0-.23,11.19,22.51,22.51,0,0,0,4.35,10.28,18.74,18.74,0,0,0,8.52,6.17A22.13,22.13,0,0,0,380.1,613.46Z"/><path d="M432.61,554l2.67-.45,34.54,42.39L471,547.52l2.6-.44-1.23,52.35-2.6.44L435.12,557.5,434,605.92l-2.6.44Z"/><path d="M230.73,656.73l2.87-.49,20.53,33.37L276.48,649l3.07-.52-1.23,52.35-2.67.45,1.15-47.94-21.47,39-2.27.38-19.76-32.06-1.14,48-2.67.45Z"/><path d="M325.85,640.64l2.93-.5L348.1,689l-2.8.47L339,673.27l-24.88,4.21L307,696l-2.87.49ZM338,671l-10.73-27.75L315.1,674.84Z"/><path d="M388.12,632.64l-18.34,3.1,0-2.55,39.35-6.66,0,2.55-18.34,3.1L389.61,682l-2.67.45Z"/><path d="M436.38,621.94l2.67-.45L438.51,645l33.81-5.72.54-23.55,2.67-.45-1.23,52.35-2.67.45.58-26.17-33.81,5.72-.58,26.17-2.67.45Z"/><path d="M508.22,609.79l27.41-4.64,0,2.55-24.74,4.19-.53,21.63,22.54-3.81-.07,2.41-22.54,3.81-.53,23.21,26.41-4.47,0,2.55L507,662.13Z"/><path d="M559.79,601.06l2.8-.47,13,45.68,15.31-49.79,2.6-.44,13.28,44.82,15.29-50.34L625,590l-16.84,55-2.53.43-13.48-44.78-15.34,49.66-2.67.45Z"/><circle class="cls-1" cx="727.07" cy="142.23" r="66.28"/><circle class="cls-1" cx="46.48" cy="686.35" r="44.04"/></g></g></svg>