<svg xmlns="http://www.w3.org/2000/svg" viewBox="0 0 411.91 72.5"><defs><style>.cls-1{fill:#fff;stroke:#fff;stroke-miterlimit:10;stroke-width:0.25px;}.cls-2{fill:none;}</style></defs><title>Asset 58</title><g id="Layer_2" data-name="Layer 2"><g id="Layer_1-2" data-name="Layer 1"><path class="cls-1" d="M7.77,33.58H16q5.65,0,8.75,2.58a8.93,8.93,0,0,1,3.1,7.27,12.17,12.17,0,0,1-1.72,6.48,11.59,11.59,0,0,1-5,4.4,17.07,17.07,0,0,1-7.58,1.58H5.47l-3,15.7h-2ZM5.87,54h7.9a12.72,12.72,0,0,0,8.7-2.85,9.66,9.66,0,0,0,3.25-7.65q0-8-9.9-8H9.42Z"/><path class="cls-1" d="M62.22,72.38a18.73,18.73,0,0,1-9-2.12A15.7,15.7,0,0,1,47,64.18a17.75,17.75,0,0,1-2.3-9.1,23.6,23.6,0,0,1,2.6-10.92,21.66,21.66,0,0,1,7.27-8.23A18.24,18.24,0,0,1,65,32.78a18.63,18.63,0,0,1,8.93,2.13A15.67,15.67,0,0,1,80.17,41a17.89,17.89,0,0,1,2.3,9.13,23.62,23.62,0,0,1-2.6,10.92,21.46,21.46,0,0,1-7.28,8.2A18.26,18.26,0,0,1,62.22,72.38Zm.1-2a16.29,16.29,0,0,0,8.77-2.57,19.56,19.56,0,0,0,6.73-7.23,20.65,20.65,0,0,0,2.6-10.25,16.8,16.8,0,0,0-1.9-8,13.83,13.83,0,0,0-5.45-5.58,16.37,16.37,0,0,0-8.25-2,16.17,16.17,0,0,0-6.65,1.42,18.33,18.33,0,0,0-5.77,4.1,20.27,20.27,0,0,0-4.12,6.45,21.17,21.17,0,0,0-1.55,8.13,16.64,16.64,0,0,0,1.9,8,13.86,13.86,0,0,0,5.45,5.55A16.36,16.36,0,0,0,62.32,70.43Z"/><path class="cls-1" d="M107.92,33.58h7.8q5.45,0,8.55,2.63a9,9,0,0,1,3.1,7.22,10.91,10.91,0,0,1-2.53,7.23,12.74,12.74,0,0,1-6.92,4.13l7.75,16.8h-2.35L116,55.13a17.32,17.32,0,0,1-2.35.15h-7.9l-3.15,16.3h-2Zm-1.85,19.8h7.85a13.33,13.33,0,0,0,5.75-1.2,9.81,9.81,0,0,0,4-3.42,9,9,0,0,0,1.5-5.17,7.42,7.42,0,0,0-2.47-6q-2.48-2.07-7.17-2.07h-6Z"/><path class="cls-1" d="M162.32,35.43H148.57l.35-1.85h29.5l-.35,1.85H164.32l-7,36.15h-2Z"/><path class="cls-1" d="M198.82,33.58h20l-.35,1.85h-18l-3.25,16.65h15.55l-.3,1.8H196.92l-3.45,17.7h-2Z"/><path class="cls-1" d="M250.67,72.38a18.73,18.73,0,0,1-9-2.12,15.7,15.7,0,0,1-6.28-6.08,17.75,17.75,0,0,1-2.3-9.1,23.6,23.6,0,0,1,2.6-10.92A21.66,21.66,0,0,1,243,35.93a18.24,18.24,0,0,1,10.42-3.15,18.63,18.63,0,0,1,8.93,2.13,15.67,15.67,0,0,1,6.27,6.1,17.89,17.89,0,0,1,2.3,9.13,23.62,23.62,0,0,1-2.6,10.92,21.46,21.46,0,0,1-7.28,8.2A18.26,18.26,0,0,1,250.67,72.38Zm.1-2a16.29,16.29,0,0,0,8.77-2.57,19.56,19.56,0,0,0,6.73-7.23,20.65,20.65,0,0,0,2.6-10.25,16.8,16.8,0,0,0-1.9-8,13.83,13.83,0,0,0-5.45-5.58,16.37,16.37,0,0,0-8.25-2,16.17,16.17,0,0,0-6.65,1.42,18.33,18.33,0,0,0-5.77,4.1,20.27,20.27,0,0,0-4.12,6.45,21.17,21.17,0,0,0-1.55,8.13,16.64,16.64,0,0,0,1.9,8,13.86,13.86,0,0,0,5.45,5.55A16.36,16.36,0,0,0,250.77,70.43Z"/><path class="cls-1" d="M296.37,33.58h2l-7,36.15h18.25l-.35,1.85H289Z"/><path class="cls-1" d="M337.11,33.58h2l-7.35,38h-2Z"/><path class="cls-1" d="M374.66,72.38a18.73,18.73,0,0,1-9-2.12,15.7,15.7,0,0,1-6.28-6.08,17.75,17.75,0,0,1-2.3-9.1,23.6,23.6,0,0,1,2.6-10.92A21.66,21.66,0,0,1,367,35.93a18.24,18.24,0,0,1,10.42-3.15,18.63,18.63,0,0,1,8.93,2.13,15.67,15.67,0,0,1,6.27,6.1,17.89,17.89,0,0,1,2.3,9.13,23.62,23.62,0,0,1-2.6,10.92,21.46,21.46,0,0,1-7.28,8.2A18.26,18.26,0,0,1,374.66,72.38Zm.1-2a16.29,16.29,0,0,0,8.77-2.57,19.56,19.56,0,0,0,6.73-7.23,20.65,20.65,0,0,0,2.6-10.25,16.8,16.8,0,0,0-1.9-8,13.83,13.83,0,0,0-5.45-5.58,16.37,16.37,0,0,0-8.25-2,16.17,16.17,0,0,0-6.65,1.42,18.33,18.33,0,0,0-5.77,4.1,20.27,20.27,0,0,0-4.12,6.45,21.17,21.17,0,0,0-1.55,8.13,16.64,16.64,0,0,0,1.9,8,13.86,13.86,0,0,0,5.45,5.55A16.36,16.36,0,0,0,374.76,70.43Z"/><rect class="cls-2" width="411.91" height="71.88"/></g></g></svg>