<svg xmlns="http://www.w3.org/2000/svg" viewBox="0 0 507.51 506.34"><defs><style>.cls-1{fill:#fff;stroke:#000;stroke-miterlimit:10;stroke-width:2px;}</style></defs><title>Asset 107</title><g id="Layer_2" data-name="Layer 2"><g id="Layer_1-2" data-name="Layer 1"><rect class="cls-1" x="1" y="1" width="505.51" height="504.34"/><path d="M188,246.21l2.12-.36,13,34.15L218,241.14l2.17-.37L204.4,282l-2.37.4Z"/><path d="M228.67,239.33l2-.33-.9,38.69-2,.33Z"/><path d="M244,236.74l20.26-3.43,0,1.88-18.29,3.1-.39,16,16.66-2.82-.05,1.78-16.66,2.82-.39,17.16,19.52-3.31,0,1.88-21.49,3.64Z"/><path d="M271.25,232.12l2.07-.35,9.63,33.77,11.31-36.81,1.92-.33L306,261.53l11.29-37.21,2.17-.37L307,264.6l-1.87.32-10-33.1-11.33,36.71-2,.33Z"/></g></g></svg>