<svg xmlns="http://www.w3.org/2000/svg" viewBox="0 0 405.8 112.54"><defs><style>.cls-1{fill:#fff;}.cls-2{fill:none;}</style></defs><title>Asset 47</title><g id="Layer_2" data-name="Layer 2"><g id="Layer_1-2" data-name="Layer 1"><path class="cls-1" d="M17,69.73l2.17-.37,14.28,36.12-2.07.35-4.67-12L8.31,97,3.07,110.63.95,111Zm9,22.41L18.06,71.62,9,95Z"/><path class="cls-1" d="M53.52,63.54l9.91-1.68q4.93-.83,7.93.86A7.56,7.56,0,0,1,75,68.41a9.67,9.67,0,0,1-1,6.44,10.11,10.11,0,0,1-5,4.42,7.83,7.83,0,0,1,5.29,2A8.87,8.87,0,0,1,77,86.54a10.72,10.72,0,0,1-.61,6,11.28,11.28,0,0,1-3.85,4.81A15,15,0,0,1,66,100l-13.36,2.26ZM54.62,100l11.09-1.88a11.64,11.64,0,0,0,7.44-3.95,8.89,8.89,0,0,0,1.79-7.4q-1.24-7.3-10.11-5.79L55,82.6Zm.43-19.29,9.56-1.62a10.8,10.8,0,0,0,6.81-3.51A7.91,7.91,0,0,0,73,68.85q-1.1-6.51-9.29-5.12l-8.33,1.41Z"/><path class="cls-1" d="M116.81,92.17a18.74,18.74,0,0,1-9.2-.6,15.7,15.7,0,0,1-7.2-4.94A17.75,17.75,0,0,1,96.62,78a23.62,23.62,0,0,1,.74-11.21,21.65,21.65,0,0,1,5.8-9.32,18.24,18.24,0,0,1,9.75-4.85,18.62,18.62,0,0,1,9.15.6,15.66,15.66,0,0,1,7.21,5,17.89,17.89,0,0,1,3.79,8.61,23.62,23.62,0,0,1-.74,11.21,21.46,21.46,0,0,1-5.8,9.3A18.27,18.27,0,0,1,116.81,92.17Zm-.23-1.94a16.29,16.29,0,0,0,8.22-4A19.56,19.56,0,0,0,130.23,78a20.66,20.66,0,0,0,.85-10.54,16.8,16.8,0,0,0-3.22-7.62,13.82,13.82,0,0,0-6.3-4.59,16.36,16.36,0,0,0-8.47-.62,16.17,16.17,0,0,0-6.32,2.52,18.33,18.33,0,0,0-5,5,20.29,20.29,0,0,0-3,7,21.18,21.18,0,0,0-.17,8.27A16.63,16.63,0,0,0,101.81,85a13.84,13.84,0,0,0,6.3,4.56A16.35,16.35,0,0,0,116.58,90.23Z"/><path class="cls-1" d="M169.22,83.29a15.12,15.12,0,0,1-7-.33,11.22,11.22,0,0,1-5.36-3.48,12.6,12.6,0,0,1-2.78-6.25,16.58,16.58,0,0,1-.21-3.36l.55-23.42,2-.33-.51,23a17.78,17.78,0,0,0,.26,3.61q.84,5,4.27,7.24t8.7,1.37a13.14,13.14,0,0,0,8.8-5.09q3-4.11,3.2-11.19l.53-23.21,2-.33L183,65.13q-.18,7.89-3.67,12.46A15.39,15.39,0,0,1,169.22,83.29Z"/><path class="cls-1" d="M216.27,37.84l-13.56,2.3,0-1.88,29.09-4.93,0,1.88-13.56,2.3-.86,36.81-2,.33Z"/><rect class="cls-2" width="405.8" height="112.54"/></g></g></svg>