<svg xmlns="http://www.w3.org/2000/svg" viewBox="0 0 3327.8 976.35"><defs><style>.cls-1{fill:#f5c023;stroke:#f5c023;}.cls-1,.cls-2,.cls-3{stroke-miterlimit:10;}.cls-2,.cls-3{fill:none;stroke-width:2px;}.cls-2{stroke:#0380bc;}.cls-3{stroke:#ed4b3a;}</style></defs><title>Asset 66</title><g id="Layer_2" data-name="Layer 2"><g id="Layer_1-2" data-name="Layer 1"><rect class="cls-1" x="396.43" y="121.97" width="2762" height="832"/><rect class="cls-2" x="1753.09" y="223.12" width="667.12" height="220.87"/><rect class="cls-2" x="1762.13" y="214.12" width="667.12" height="220.87"/><rect class="cls-2" x="1771.06" y="206.54" width="665.25" height="219.52"/><rect class="cls-2" x="1779.74" y="197.86" width="665.25" height="219.52"/><rect class="cls-2" x="1788.96" y="188.37" width="665.25" height="219.52"/><rect class="cls-2" x="1797.92" y="179.96" width="665.25" height="219.52"/><rect class="cls-2" x="1807.02" y="170.86" width="665.25" height="219.52"/><rect class="cls-2" x="1815.87" y="161.51" width="665.25" height="219.52"/><rect class="cls-2" x="1824.97" y="152.65" width="665.25" height="219.52"/><rect class="cls-2" x="1833.58" y="144.05" width="665.25" height="219.52"/><rect class="cls-2" x="1842.93" y="134.7" width="665.25" height="219.52"/><rect class="cls-2" x="1851.7" y="125.76" width="665.25" height="219.52"/><rect class="cls-2" x="1860.64" y="116.81" width="665.25" height="219.52"/><rect class="cls-2" x="1869.76" y="107.7" width="665.25" height="219.52"/><rect class="cls-2" x="1878.7" y="98.75" width="665.25" height="219.52"/><rect class="cls-2" x="1887.83" y="89.63" width="665.25" height="219.52"/><rect class="cls-2" x="1896.7" y="80.63" width="665.25" height="219.52"/><rect class="cls-2" x="1906.46" y="71.75" width="665.25" height="219.52"/><rect class="cls-3" x="1677.34" y="658.12" width="667.12" height="220.87"/><rect class="cls-3" x="1686.38" y="649.11" width="667.12" height="220.87"/><rect class="cls-3" x="1695.31" y="641.54" width="665.25" height="219.52"/><rect class="cls-3" x="1703.99" y="632.86" width="665.25" height="219.52"/><rect class="cls-3" x="1713.21" y="623.36" width="665.25" height="219.52"/><rect class="cls-3" x="1722.16" y="614.95" width="665.25" height="219.52"/><rect class="cls-3" x="1731.27" y="605.85" width="665.25" height="219.52"/><rect class="cls-3" x="1740.12" y="596.5" width="665.25" height="219.52"/><rect class="cls-3" x="1749.22" y="587.65" width="665.25" height="219.52"/><rect class="cls-3" x="1757.83" y="579.04" width="665.25" height="219.52"/><rect class="cls-3" x="1767.17" y="569.7" width="665.25" height="219.52"/><rect class="cls-3" x="1775.95" y="560.75" width="665.25" height="219.52"/><rect class="cls-3" x="1784.89" y="551.81" width="665.25" height="219.52"/><rect class="cls-3" x="1794.01" y="542.69" width="665.25" height="219.52"/><rect class="cls-3" x="1802.95" y="533.75" width="665.25" height="219.52"/><rect class="cls-3" x="1812.08" y="524.62" width="665.25" height="219.52"/><rect class="cls-3" x="1820.95" y="515.62" width="665.25" height="219.52"/><rect class="cls-3" x="1830.71" y="506.75" width="665.25" height="219.52"/><rect class="cls-3" x="2508.17" y="496.54" width="667.12" height="220.87"/><rect class="cls-3" x="2517.22" y="487.54" width="667.12" height="220.87"/><rect class="cls-3" x="2526.14" y="479.96" width="665.25" height="219.52"/><rect class="cls-3" x="2534.83" y="471.28" width="665.25" height="219.52"/><rect class="cls-3" x="2544.05" y="461.79" width="665.25" height="219.52"/><rect class="cls-3" x="2553" y="453.38" width="665.25" height="219.52"/><rect class="cls-3" x="2562.1" y="444.28" width="665.25" height="219.52"/><rect class="cls-3" x="2570.96" y="434.93" width="665.25" height="219.52"/><rect class="cls-3" x="2580.06" y="426.07" width="665.25" height="219.52"/><rect class="cls-3" x="2588.67" y="417.47" width="665.25" height="219.52"/><rect class="cls-3" x="2598.01" y="408.12" width="665.25" height="219.52"/><rect class="cls-3" x="2606.78" y="399.18" width="665.25" height="219.52"/><rect class="cls-3" x="2615.73" y="390.23" width="665.25" height="219.52"/><rect class="cls-3" x="2624.84" y="381.12" width="665.25" height="219.52"/><rect class="cls-3" x="2633.79" y="372.17" width="665.25" height="219.52"/><rect class="cls-3" x="2642.91" y="363.05" width="665.25" height="219.52"/><rect class="cls-3" x="2651.79" y="354.05" width="665.25" height="219.52"/><rect class="cls-3" x="2661.55" y="345.17" width="665.25" height="219.52"/><rect class="cls-3" x="925.49" y="382.24" width="667.12" height="220.87"/><rect class="cls-3" x="934.54" y="373.24" width="667.12" height="220.87"/><rect class="cls-3" x="943.46" y="365.66" width="665.25" height="219.52"/><rect class="cls-3" x="952.14" y="356.98" width="665.25" height="219.52"/><rect class="cls-3" x="961.37" y="347.49" width="665.25" height="219.52"/><rect class="cls-3" x="970.32" y="339.08" width="665.25" height="219.52"/><rect class="cls-3" x="979.42" y="329.98" width="665.25" height="219.52"/><rect class="cls-3" x="988.28" y="320.63" width="665.25" height="219.52"/><rect class="cls-3" x="997.38" y="311.78" width="665.25" height="219.52"/><rect class="cls-3" x="1005.98" y="303.17" width="665.25" height="219.52"/><rect class="cls-3" x="1015.33" y="293.82" width="665.25" height="219.52"/><rect class="cls-3" x="1024.1" y="284.88" width="665.25" height="219.52"/><rect class="cls-3" x="1033.05" y="275.93" width="665.25" height="219.52"/><rect class="cls-3" x="1042.16" y="266.82" width="665.25" height="219.52"/><rect class="cls-3" x="1051.11" y="257.87" width="665.25" height="219.52"/><rect class="cls-3" x="1060.23" y="248.75" width="665.25" height="219.52"/><rect class="cls-3" x="1069.11" y="239.75" width="665.25" height="219.52"/><rect class="cls-3" x="1078.87" y="230.88" width="665.25" height="219.52"/><rect class="cls-2" x="764.82" y="754.48" width="667.12" height="220.87"/><rect class="cls-2" x="773.86" y="745.48" width="667.12" height="220.87"/><rect class="cls-2" x="782.79" y="737.9" width="665.25" height="219.52"/><rect class="cls-2" x="791.47" y="729.22" width="665.25" height="219.52"/><rect class="cls-2" x="800.69" y="719.73" width="665.25" height="219.52"/><rect class="cls-2" x="809.64" y="711.32" width="665.25" height="219.52"/><rect class="cls-2" x="818.74" y="702.22" width="665.25" height="219.52"/><rect class="cls-2" x="827.6" y="692.87" width="665.25" height="219.52"/><rect class="cls-2" x="836.7" y="684.02" width="665.25" height="219.52"/><rect class="cls-2" x="845.31" y="675.41" width="665.25" height="219.52"/><rect class="cls-2" x="854.65" y="666.06" width="665.25" height="219.52"/><rect class="cls-2" x="863.43" y="657.12" width="665.25" height="219.52"/><rect class="cls-2" x="872.37" y="648.17" width="665.25" height="219.52"/><rect class="cls-2" x="881.48" y="639.06" width="665.25" height="219.52"/><rect class="cls-2" x="890.43" y="630.11" width="665.25" height="219.52"/><rect class="cls-2" x="899.55" y="620.99" width="665.25" height="219.52"/><rect class="cls-2" x="908.43" y="611.99" width="665.25" height="219.52"/><rect class="cls-2" x="918.19" y="603.12" width="665.25" height="219.52"/><rect class="cls-2" x="161.68" y="152.37" width="667.12" height="220.87"/><rect class="cls-2" x="170.72" y="143.36" width="667.12" height="220.87"/><rect class="cls-2" x="179.65" y="135.79" width="665.25" height="219.52"/><rect class="cls-2" x="188.33" y="127.11" width="665.25" height="219.52"/><rect class="cls-2" x="197.55" y="117.61" width="665.25" height="219.52"/><rect class="cls-2" x="206.51" y="109.2" width="665.25" height="219.52"/><rect class="cls-2" x="215.61" y="100.1" width="665.25" height="219.52"/><rect class="cls-2" x="224.46" y="90.75" width="665.25" height="219.52"/><rect class="cls-2" x="233.56" y="81.9" width="665.25" height="219.52"/><rect class="cls-2" x="242.17" y="73.29" width="665.25" height="219.52"/><rect class="cls-2" x="251.52" y="63.95" width="665.25" height="219.52"/><rect class="cls-2" x="260.29" y="55" width="665.25" height="219.52"/><rect class="cls-2" x="269.23" y="46.06" width="665.25" height="219.52"/><rect class="cls-2" x="278.35" y="36.94" width="665.25" height="219.52"/><rect class="cls-2" x="287.29" y="28" width="665.25" height="219.52"/><rect class="cls-2" x="296.42" y="18.87" width="665.25" height="219.52"/><rect class="cls-2" x="305.29" y="9.87" width="665.25" height="219.52"/><rect class="cls-2" x="315.05" y="1" width="665.25" height="219.52"/><rect class="cls-3" x="1" y="524.61" width="667.12" height="220.87"/><rect class="cls-3" x="10.04" y="515.6" width="667.12" height="220.87"/><rect class="cls-3" x="18.97" y="508.03" width="665.25" height="219.52"/><rect class="cls-3" x="27.65" y="499.34" width="665.25" height="219.52"/><rect class="cls-3" x="36.88" y="489.85" width="665.25" height="219.52"/><rect class="cls-3" x="45.83" y="481.44" width="665.25" height="219.52"/><rect class="cls-3" x="54.93" y="472.34" width="665.25" height="219.52"/><rect class="cls-3" x="63.78" y="462.99" width="665.25" height="219.52"/><rect class="cls-3" x="72.88" y="454.14" width="665.25" height="219.52"/><rect class="cls-3" x="81.49" y="445.53" width="665.25" height="219.52"/><rect class="cls-3" x="90.84" y="436.18" width="665.25" height="219.52"/><rect class="cls-3" x="99.61" y="427.24" width="665.25" height="219.52"/><rect class="cls-3" x="108.55" y="418.3" width="665.25" height="219.52"/><rect class="cls-3" x="117.67" y="409.18" width="665.25" height="219.52"/><rect class="cls-3" x="126.61" y="400.24" width="665.25" height="219.52"/><rect class="cls-3" x="135.74" y="391.11" width="665.25" height="219.52"/><rect class="cls-3" x="144.61" y="382.11" width="665.25" height="219.52"/><rect class="cls-3" x="154.37" y="373.24" width="665.25" height="219.52"/></g></g></svg>