<svg xmlns="http://www.w3.org/2000/svg" viewBox="0 0 605.35 55.44"><defs><style>.cls-1{fill:none;}</style></defs><title>Asset 103</title><g id="Layer_2" data-name="Layer 2"><g id="Layer_1-2" data-name="Layer 1"><path d="M69.49,1.12h2.8V51.73H98.4v2.59H69.49Z"/><path d="M127.45,1.12h2.8v53.2h-2.8Z"/><path d="M164.9,1.12h2.87l37.8,49.21V1.12h2.73v53.2h-2.87L167.63,5.11V54.32H164.9Z"/><path d="M242.95,1.12h2.8V25.83L276.48,1.12h4.06L248.69,26.6l34.65,27.72H279l-33.25-26.6v26.6h-2.8Z"/><path d="M311.48,1.12h29.26V3.71H314.28v22h23.66v2.45H314.28V51.73h27.51v2.59H311.48Z"/><path d="M372.59,1.12H389q13.79,0,21.14,6.86t7.35,19.81q0,13-7.31,19.74T388.9,54.32H372.59Zm2.8,50.54H389q12.6,0,19.07-6t6.48-17.85q0-11.83-6.48-17.92T389,3.78H375.39Z"/><path d="M448.33,1.12h2.8v53.2h-2.8Z"/><path d="M485.78,1.12h2.87l37.8,49.21V1.12h2.73v53.2H526.3L488.5,5.11V54.32h-2.73Z"/><rect class="cls-1" width="605.35" height="55.44"/></g></g></svg>