<svg xmlns="http://www.w3.org/2000/svg" viewBox="0 0 779.86 557.59"><defs><style>.cls-1{fill:none;stroke:#fff;stroke-miterlimit:10;stroke-width:2px;}.cls-2{fill:#fff;}</style></defs><title>Asset 39</title><g id="Layer_2" data-name="Layer 2"><g id="Layer_1-2" data-name="Layer 1"><rect class="cls-1" x="213.89" y="-72.33" width="352.08" height="702.24" transform="matrix(0.31, -0.95, 0.95, 0.31, 2.66, 561.27)"/><path class="cls-2" d="M155.68,256.11l2.87-.49L179.08,289l22.35-40.62,3.07-.52-1.23,52.35-2.67.45,1.15-47.94-21.47,39-2.27.38L158.26,260l-1.14,48-2.67.45Z"/><path class="cls-2" d="M250.8,240l2.93-.5L273,288.39l-2.8.47-6.31-16.22-24.88,4.21L232,295.34l-2.87.49ZM263,270.33l-10.73-27.75-12.21,31.63Z"/><path class="cls-2" d="M311.59,283a27.39,27.39,0,0,1-8.49.1,24.73,24.73,0,0,1-7.74-2.36l.21-2.78a22.86,22.86,0,0,0,7.49,2.51,25.11,25.11,0,0,0,8.23,0q6.33-1.07,9.66-4.93a10.53,10.53,0,0,0,2.45-9.06,8.93,8.93,0,0,0-3.36-5.67q-2.78-2.21-9.14-4.15a47.29,47.29,0,0,1-8.3-3.26,12.71,12.71,0,0,1-4.26-3.46,10.75,10.75,0,0,1-1.85-4.63,12.76,12.76,0,0,1,.82-7.31,14,14,0,0,1,4.87-5.87,19.48,19.48,0,0,1,8.2-3.24,23.92,23.92,0,0,1,7.16-.08,20.62,20.62,0,0,1,6.53,1.88l-.3,2.66a21.58,21.58,0,0,0-12.95-1.93,15.19,15.19,0,0,0-9.31,4.77,10.07,10.07,0,0,0-2.41,8.67,8.09,8.09,0,0,0,1.66,3.91,10.83,10.83,0,0,0,3.75,2.69,52.71,52.71,0,0,0,7,2.56,42.45,42.45,0,0,1,8.17,3.25,13.65,13.65,0,0,1,4.48,3.77,11.87,11.87,0,0,1,2,5,13,13,0,0,1-.85,7.52,14.5,14.5,0,0,1-5.08,6A20.63,20.63,0,0,1,311.59,283Z"/><path class="cls-2" d="M380.16,271.37a25.35,25.35,0,0,1-12.45-.81,21.24,21.24,0,0,1-9.74-6.69,24,24,0,0,1-5.12-11.62,32,32,0,0,1,1-15.16,29.31,29.31,0,0,1,7.85-12.61,24.68,24.68,0,0,1,13.2-6.55,25.2,25.2,0,0,1,12.38.82,21.2,21.2,0,0,1,9.75,6.72,24.21,24.21,0,0,1,5.13,11.65,32,32,0,0,1-1,15.16,29,29,0,0,1-7.85,12.58A24.71,24.71,0,0,1,380.16,271.37Zm-.31-2.62A22,22,0,0,0,391,263.33a26.46,26.46,0,0,0,7.34-11.16,27.93,27.93,0,0,0,1.16-14.26,22.72,22.72,0,0,0-4.35-10.31,18.7,18.7,0,0,0-8.53-6.21,22.14,22.14,0,0,0-11.46-.84,21.89,21.89,0,0,0-8.55,3.4,24.8,24.8,0,0,0-6.78,6.77,27.44,27.44,0,0,0-4,9.53,28.67,28.67,0,0,0-.23,11.19,22.51,22.51,0,0,0,4.35,10.28,18.74,18.74,0,0,0,8.52,6.17A22.13,22.13,0,0,0,379.86,268.74Z"/><path class="cls-2" d="M432.37,209.3l2.67-.45,34.54,42.39,1.14-48.42,2.6-.44-1.23,52.35-2.6.44-34.61-42.37-1.14,48.42-2.6.44Z"/><path class="cls-2" d="M230.49,312l2.87-.49,20.53,33.37,22.35-40.62,3.07-.52-1.23,52.35-2.67.45,1.15-47.94-21.47,39-2.27.38-19.76-32.06-1.14,48-2.67.45Z"/><path class="cls-2" d="M325.61,295.93l2.93-.5,19.31,48.87-2.8.47-6.31-16.22-24.88,4.21-7.09,18.49-2.87.49Zm12.2,30.32-10.73-27.75-12.21,31.63Z"/><path class="cls-2" d="M387.87,287.93,369.53,291l0-2.55,39.35-6.66,0,2.55-18.34,3.1-1.18,49.8-2.67.45Z"/><path class="cls-2" d="M436.14,277.23l2.67-.45-.54,23.55,33.81-5.72.54-23.55,2.67-.45L474.06,323l-2.67.45.58-26.17L438.16,303l-.58,26.17-2.67.45Z"/><path class="cls-2" d="M508,265.07l27.41-4.64,0,2.55-24.74,4.19-.53,21.63L532.62,285l-.07,2.41L510,291.21l-.53,23.21L535.88,310l0,2.55-29.08,4.92Z"/><path class="cls-2" d="M559.55,256.35l2.8-.47,13,45.68,15.31-49.79,2.6-.44,13.28,44.82,15.29-50.34,2.93-.5-16.84,55-2.53.43-13.48-44.78-15.34,49.66-2.67.45Z"/></g></g></svg>