<svg xmlns="http://www.w3.org/2000/svg" viewBox="0 0 411.91 71.89"><defs><style>.cls-1{fill:#fff;}.cls-2{fill:none;}</style></defs><title>Asset 56</title><g id="Layer_2" data-name="Layer 2"><g id="Layer_1-2" data-name="Layer 1"><path class="cls-1" d="M116,33.34h2.1L122,68.24l17.3-34.4h1.95l4.15,34.3,17.35-34.8h2.2l-19,38H144L139.7,37l-17.3,34.3h-2Z"/><path class="cls-1" d="M184.8,33.34h7.8q5.45,0,8.55,2.63a9,9,0,0,1,3.1,7.22,10.91,10.91,0,0,1-2.53,7.23,12.74,12.74,0,0,1-6.92,4.13l7.75,16.8H200.2l-7.35-16.45a17.32,17.32,0,0,1-2.35.15h-7.9l-3.15,16.3h-2Zm-1.85,19.8h7.85a13.33,13.33,0,0,0,5.75-1.2,9.81,9.81,0,0,0,4-3.42,9,9,0,0,0,1.5-5.17,7.42,7.42,0,0,0-2.47-6q-2.48-2.07-7.17-2.07h-6Z"/><path class="cls-1" d="M229.9,33.34h2l-7.35,38h-2Z"/><path class="cls-1" d="M265.69,35.19H251.94l.35-1.85h29.5l-.35,1.85H267.69l-7,36.15h-2Z"/><path class="cls-1" d="M302.19,33.34h2l-7.35,38h-2Z"/><path class="cls-1" d="M328.69,33.34h2l20,35.15,6.8-35.15h2l-7.35,38h-2l-20-35.15-6.8,35.15h-2Z"/><path class="cls-1" d="M394.89,71.89a19.17,19.17,0,0,1-9-2.08,15,15,0,0,1-6.17-5.95,17.81,17.81,0,0,1-2.23-9,23.11,23.11,0,0,1,2.65-11,20.74,20.74,0,0,1,18.65-11,22.06,22.06,0,0,1,6.57,1,19.7,19.7,0,0,1,5.78,2.85l-.5,1.9a20.17,20.17,0,0,0-12-3.8,18.46,18.46,0,0,0-9.45,2.5,18.88,18.88,0,0,0-6.92,7,20.14,20.14,0,0,0-2.62,10.25,16.93,16.93,0,0,0,1.85,8.08,13.08,13.08,0,0,0,5.33,5.4,16.7,16.7,0,0,0,8.22,1.92,25.78,25.78,0,0,0,10.45-2.1L408,54.24H397.29l.35-1.9h12.75L407.19,69A25.4,25.4,0,0,1,394.89,71.89Z"/><rect class="cls-2" width="411.91" height="71.88"/></g></g></svg>