<svg xmlns="http://www.w3.org/2000/svg" viewBox="0 0 405.8 112.54"><defs><style>.cls-1{fill:none;}</style></defs><title>Asset 95</title><g id="Layer_2" data-name="Layer 2"><g id="Layer_1-2" data-name="Layer 1"><path d="M0,75.8l2.07-.35,9.63,33.77L23,72.41l1.92-.33,9.82,33.13L46,68l2.17-.37L35.78,108.28l-1.87.32-10-33.1L12.61,112.2l-2,.33Z"/><path d="M67.81,64.31,75.5,63q5.37-.91,8.87,1.16a9,9,0,0,1,4.26,6.61,10.91,10.91,0,0,1-1.28,7.54,12.73,12.73,0,0,1-6.14,5.22L91.66,98.81l-2.32.39-10-15a17.42,17.42,0,0,1-2.29.54l-7.79,1.32-.38,16.6-2,.33Zm1.48,19.83L77,82.83a13.36,13.36,0,0,0,5.47-2.14,9.82,9.82,0,0,0,3.42-4.05,9,9,0,0,0,.61-5.35,7.42,7.42,0,0,0-3.45-5.53q-2.79-1.63-7.42-.85l-6,1Z"/><path d="M112.3,56.77l2-.33-.9,38.69-2,.33Z"/><path d="M147.9,52.62l-13.56,2.3,0-1.88,29.09-4.93,0,1.88-13.56,2.3L149,89.1l-2,.33Z"/><path d="M183.54,44.7l2-.33-.9,38.69-2,.33Z"/><path d="M209.68,40.28l2-.33,25.54,31.32L238,35.48l1.92-.33L239,73.84l-1.92.33L211.53,42.85l-.83,35.79-1.92.33Z"/><path d="M281.43,67.22a19.18,19.18,0,0,1-9.27-.53,15.06,15.06,0,0,1-7.08-4.83,17.8,17.8,0,0,1-3.7-8.53A23.11,23.11,0,0,1,262.16,42,20.74,20.74,0,0,1,278.7,28a22.09,22.09,0,0,1,6.65-.11,19.67,19.67,0,0,1,6.17,1.84l-.17,2A20.17,20.17,0,0,0,278.83,30a18.47,18.47,0,0,0-8.9,4,18.88,18.88,0,0,0-5.65,8.11,20.13,20.13,0,0,0-.88,10.54,16.94,16.94,0,0,0,3.17,7.65,13.08,13.08,0,0,0,6.15,4.43,16.71,16.71,0,0,0,8.43.52,25.8,25.8,0,0,0,10-3.82l.34-13.85-10.6,1.8,0-1.93,12.57-2.13-.37,17A25.39,25.39,0,0,1,281.43,67.22Z"/><rect class="cls-1" width="405.8" height="112.54"/></g></g></svg>